Exo-Italic.ufo
<glyph name=".notdef" format="1">
  <advance width="654"/>
  <unicode hex="0000"/>
  <outline>
    <contour>
      <point x="87" y="-3" type="line"/>
      <point x="627" y="-3" type="line"/>
      <point x="627" y="537" type="line"/>
      <point x="87" y="537" type="line"/>
    </contour>
    <contour>
      <point x="524" y="136" type="line"/>
      <point x="394" y="266" type="line"/>
      <point x="524" y="397" type="line"/>
      <point x="488" y="433" type="line"/>
      <point x="357" y="303" type="line"/>
      <point x="227" y="433" type="line"/>
      <point x="190" y="397" type="line"/>
      <point x="321" y="266" type="line"/>
      <point x="190" y="136" type="line"/>
      <point x="227" y="99" type="line"/>
      <point x="357" y="230" type="line"/>
      <point x="488" y="99" type="line"/>
    </contour>
    <contour>
      <point x="130" y="40" type="line"/>
      <point x="130" y="493" type="line"/>
      <point x="583" y="493" type="line"/>
      <point x="583" y="40" type="line"/>
    </contour>
  </outline>
</glyph>
<glyph name="ampersand" format="1">
  <advance width="673"/>
  <unicode hex="0026"/>
  <note>
    GF Latin Plus glyph
  </note>
  <outline>
    <contour>
      <point x="247" y="68" type="curve" smooth="yes"/>
      <point x="180" y="68"/>
      <point x="141" y="109"/>
      <point x="141" y="174" type="curve" smooth="yes"/>
      <point x="141" y="250"/>
      <point x="162" y="300"/>
      <point x="252" y="351" type="curve" smooth="yes"/>
      <point x="302" y="379" type="line"/>
      <point x="433" y="157" type="line"/>
      <point x="396" y="127" type="line" smooth="yes"/>
      <point x="338" y="79"/>
      <point x="293" y="68"/>
    </contour>
    <contour>
      <point x="224" y="-6" type="curve" smooth="yes"/>
      <point x="293" y="-6"/>
      <point x="353" y="13"/>
      <point x="429" y="73" type="curve" smooth="yes"/>
      <point x="468" y="103" type="line"/>
      <point x="529" y="0" type="line"/>
      <point x="613" y="0" type="line"/>
      <point x="528" y="143" type="line"/>
      <point x="608" y="210" type="line"/>
      <point x="689" y="307" type="line"/>
      <point x="666" y="341" type="line"/>
      <point x="493" y="200" type="line"/>
      <point x="337" y="472" type="line" smooth="yes"/>
      <point x="313" y="514"/>
      <point x="304" y="546"/>
      <point x="304" y="575" type="curve" smooth="yes"/>
      <point x="304" y="640"/>
      <point x="350" y="664"/>
      <point x="424" y="664" type="curve" smooth="yes"/>
      <point x="561" y="664" type="line"/>
      <point x="570" y="721" type="line"/>
      <point x="535" y="726"/>
      <point x="491" y="734"/>
      <point x="422" y="734" type="curve" smooth="yes"/>
      <point x="295" y="734"/>
      <point x="225" y="676"/>
      <point x="225" y="581" type="curve" smooth="yes"/>
      <point x="225" y="547"/>
      <point x="233" y="506"/>
      <point x="258" y="461" type="curve" smooth="yes"/>
      <point x="273" y="434" type="line"/>
      <point x="202" y="393" type="line" smooth="yes"/>
      <point x="99" y="332"/>
      <point x="60" y="265"/>
      <point x="60" y="157" type="curve" smooth="yes"/>
      <point x="60" y="57"/>
      <point x="126" y="-6"/>
    </contour>
  </outline>
</glyph>
<glyph name="comma" format="1">
  <advance width="200"/>
  <unicode hex="002C"/>
  <note>
    GF Latin Plus glyph
  </note>
  <outline>
    <contour>
      <point x="66" y="28" type="line" smooth="yes"/>
      <point x="66" y="23"/>
      <point x="65" y="20"/>
      <point x="65" y="18" type="curve" smooth="yes"/>
      <point x="65" y="9"/>
      <point x="71" y="5"/>
      <point x="79" y="5" type="curve" smooth="yes"/>
      <point x="87" y="5" type="line"/>
      <point x="81" y="-33" type="line" smooth="yes"/>
      <point x="79" y="-47"/>
      <point x="72" y="-50"/>
      <point x="57" y="-50" type="curve"/>
      <point x="53" y="-75" type="line"/>
      <point x="53" y="-75"/>
      <point x="64" y="-78"/>
      <point x="78" y="-78" type="curve" smooth="yes"/>
      <point x="98" y="-78"/>
      <point x="126" y="-71"/>
      <point x="132" y="-29" type="curve" smooth="yes"/>
      <point x="151" y="87" type="line" smooth="yes"/>
      <point x="152" y="92"/>
      <point x="152" y="96"/>
      <point x="152" y="98" type="curve" smooth="yes"/>
      <point x="152" y="106"/>
      <point x="149" y="111"/>
      <point x="139" y="111" type="curve" smooth="yes"/>
      <point x="96" y="111" type="line" smooth="yes"/>
      <point x="86" y="111"/>
      <point x="79" y="105"/>
      <point x="77" y="93" type="curve" smooth="yes"/>
    </contour>
  </outline>
</glyph>
<glyph name="three" format="1">
  <advance width="585"/>
  <unicode hex="0033"/>
  <note>
    GF Latin Plus glyph
  </note>
  <outline>
    <contour>
      <point x="174" y="670" type="line"/>
      <point x="384" y="670" type="line" smooth="yes"/>
      <point x="466" y="670"/>
      <point x="513" y="639"/>
      <point x="513" y="577" type="curve" smooth="yes"/>
      <point x="513" y="569"/>
      <point x="513" y="562"/>
      <point x="504" y="504" type="curve" smooth="yes"/>
      <point x="493" y="437"/>
      <point x="440" y="409"/>
      <point x="368" y="406" type="curve" smooth="yes"/>
      <point x="181" y="398" type="line"/>
      <point x="171" y="344" type="line"/>
      <point x="351" y="336" type="line" smooth="yes"/>
      <point x="411" y="334"/>
      <point x="473" y="310"/>
      <point x="473" y="245" type="curve" smooth="yes"/>
      <point x="473" y="239"/>
      <point x="469" y="214"/>
      <point x="463" y="179" type="curve" smooth="yes"/>
      <point x="446" y="89"/>
      <point x="380" y="65"/>
      <point x="295" y="65" type="curve" smooth="yes"/>
      <point x="54" y="65" type="line"/>
      <point x="44" y="7" type="line"/>
      <point x="111" y="-1"/>
      <point x="204" y="-6"/>
      <point x="309" y="-6" type="curve" smooth="yes"/>
      <point x="438" y="-6"/>
      <point x="523" y="54"/>
      <point x="541" y="168" type="curve" smooth="yes"/>
      <point x="547" y="210"/>
      <point x="552" y="238"/>
      <point x="552" y="250" type="curve" smooth="yes"/>
      <point x="552" y="328"/>
      <point x="492" y="362"/>
      <point x="455" y="371" type="curve"/>
      <point x="496" y="379"/>
      <point x="568" y="414"/>
      <point x="583" y="506" type="curve" smooth="yes"/>
      <point x="595" y="581"/>
      <point x="595" y="593"/>
      <point x="595" y="604" type="curve" smooth="yes"/>
      <point x="595" y="693"/>
      <point x="538" y="742"/>
      <point x="419" y="742" type="curve" smooth="yes"/>
      <point x="322" y="742"/>
      <point x="244" y="736"/>
      <point x="184" y="728" type="curve"/>
    </contour>
  </outline>
</glyph>
<glyph name="six" format="1">
  <advance width="623"/>
  <unicode hex="0036"/>
  <note>
    GF Latin Plus glyph
  </note>
  <outline>
    <contour>
      <point x="205" y="347" type="curve"/>
      <point x="391" y="347" type="line" smooth="yes"/>
      <point x="472" y="347"/>
      <point x="522" y="335"/>
      <point x="522" y="274" type="curve" smooth="yes"/>
      <point x="522" y="266"/>
      <point x="521" y="258"/>
      <point x="519" y="248" type="curve" smooth="yes"/>
      <point x="507" y="170" type="line" smooth="yes"/>
      <point x="495" y="89"/>
      <point x="443" y="69"/>
      <point x="384" y="69" type="curve" smooth="yes"/>
      <point x="298" y="69" type="line" smooth="yes"/>
      <point x="232" y="69"/>
      <point x="193" y="101"/>
      <point x="193" y="213" type="curve" smooth="yes"/>
      <point x="193" y="249"/>
      <point x="197" y="293"/>
    </contour>
    <contour>
      <point x="115" y="206" type="curve" smooth="yes"/>
      <point x="115" y="42"/>
      <point x="176" y="-3"/>
      <point x="274" y="-3" type="curve" smooth="yes"/>
      <point x="388" y="-3" type="line" smooth="yes"/>
      <point x="482" y="-3"/>
      <point x="566" y="40"/>
      <point x="584" y="158" type="curve" smooth="yes"/>
      <point x="600" y="261" type="line" smooth="yes"/>
      <point x="602" y="274"/>
      <point x="604" y="286"/>
      <point x="604" y="297" type="curve" smooth="yes"/>
      <point x="604" y="384"/>
      <point x="537" y="415"/>
      <point x="420" y="415" type="curve" smooth="yes"/>
      <point x="364" y="415"/>
      <point x="276" y="413"/>
      <point x="215" y="405" type="curve"/>
      <point x="243" y="583"/>
      <point x="332" y="670"/>
      <point x="439" y="670" type="curve" smooth="yes"/>
      <point x="621" y="670" type="line"/>
      <point x="631" y="731" type="line"/>
      <point x="579" y="737"/>
      <point x="506" y="742"/>
      <point x="449" y="742" type="curve" smooth="yes"/>
      <point x="208" y="742"/>
      <point x="115" y="489"/>
    </contour>
  </outline>
</glyph>
<glyph name="eight" format="1">
  <advance width="643"/>
  <unicode hex="0038"/>
  <note>
    GF Latin Plus glyph
  </note>
  <outline>
    <contour>
      <point x="253" y="501" type="curve" smooth="yes"/>
      <point x="264" y="570" type="line" smooth="yes"/>
      <point x="275" y="643"/>
      <point x="309" y="673"/>
      <point x="379" y="673" type="curve" smooth="yes"/>
      <point x="487" y="673" type="line" smooth="yes"/>
      <point x="536" y="673"/>
      <point x="563" y="655"/>
      <point x="563" y="604" type="curve" smooth="yes"/>
      <point x="563" y="594"/>
      <point x="562" y="583"/>
      <point x="560" y="570" type="curve" smooth="yes"/>
      <point x="549" y="501" type="line" smooth="yes"/>
      <point x="543" y="458"/>
      <point x="511" y="409"/>
      <point x="440" y="409" type="curve" smooth="yes"/>
      <point x="336" y="409" type="line" smooth="yes"/>
      <point x="277" y="409"/>
      <point x="251" y="439"/>
      <point x="251" y="480" type="curve" smooth="yes"/>
      <point x="251" y="487"/>
      <point x="252" y="493"/>
    </contour>
    <contour>
      <point x="186" y="155" type="curve" smooth="yes"/>
      <point x="200" y="248" type="line" smooth="yes"/>
      <point x="211" y="317"/>
      <point x="284" y="341"/>
      <point x="325" y="341" type="curve" smooth="yes"/>
      <point x="430" y="341" type="line" smooth="yes"/>
      <point x="496" y="341"/>
      <point x="524" y="321"/>
      <point x="524" y="274" type="curve" smooth="yes"/>
      <point x="524" y="266"/>
      <point x="523" y="257"/>
      <point x="522" y="248" type="curve" smooth="yes"/>
      <point x="507" y="155" type="line" smooth="yes"/>
      <point x="498" y="96"/>
      <point x="462" y="66"/>
      <point x="390" y="66" type="curve" smooth="yes"/>
      <point x="282" y="66" type="line" smooth="yes"/>
      <point x="225" y="66"/>
      <point x="184" y="86"/>
      <point x="184" y="136" type="curve" smooth="yes"/>
      <point x="184" y="142"/>
      <point x="185" y="148"/>
    </contour>
    <contour>
      <point x="104" y="142" type="line" smooth="yes"/>
      <point x="103" y="132"/>
      <point x="101" y="121"/>
      <point x="101" y="110" type="curve" smooth="yes"/>
      <point x="101" y="44"/>
      <point x="145" y="-2"/>
      <point x="257" y="-2" type="curve" smooth="yes"/>
      <point x="399" y="-2" type="line" smooth="yes"/>
      <point x="496" y="-2"/>
      <point x="568" y="38"/>
      <point x="584" y="144" type="curve" smooth="yes"/>
      <point x="602" y="256" type="line" smooth="yes"/>
      <point x="603" y="266"/>
      <point x="605" y="275"/>
      <point x="605" y="285" type="curve" smooth="yes"/>
      <point x="605" y="332"/>
      <point x="583" y="373"/>
      <point x="533" y="383" type="curve"/>
      <point x="587" y="397"/>
      <point x="620" y="457"/>
      <point x="627" y="503" type="curve" smooth="yes"/>
      <point x="640" y="587" type="line" smooth="yes"/>
      <point x="643" y="604"/>
      <point x="644" y="618"/>
      <point x="644" y="631" type="curve" smooth="yes"/>
      <point x="644" y="709"/>
      <point x="600" y="741"/>
      <point x="518" y="741" type="curve" smooth="yes"/>
      <point x="375" y="741" type="line" smooth="yes"/>
      <point x="284" y="741"/>
      <point x="207" y="702"/>
      <point x="189" y="588" type="curve" smooth="yes"/>
      <point x="176" y="503" type="line" smooth="yes"/>
      <point x="174" y="491"/>
      <point x="173" y="479"/>
      <point x="173" y="469" type="curve" smooth="yes"/>
      <point x="173" y="429"/>
      <point x="190" y="394"/>
      <point x="235" y="373" type="curve"/>
      <point x="191" y="363"/>
      <point x="133" y="321"/>
      <point x="121" y="250" type="curve" smooth="yes"/>
    </contour>
  </outline>
</glyph>
<glyph name="question" format="1">
  <advance width="531"/>
  <unicode hex="003F"/>
  <note>
    GF Latin Plus glyph
  </note>
  <outline>
    <contour>
      <point x="145" y="630" type="line"/>
      <point x="217" y="655"/>
      <point x="275" y="668"/>
      <point x="343" y="668" type="curve" smooth="yes"/>
      <point x="423" y="668"/>
      <point x="461" y="641"/>
      <point x="461" y="573" type="curve" smooth="yes"/>
      <point x="461" y="561"/>
      <point x="460" y="547"/>
      <point x="457" y="530" type="curve" smooth="yes"/>
      <point x="448" y="471" type="line" smooth="yes"/>
      <point x="434" y="383"/>
      <point x="385" y="356"/>
      <point x="277" y="356" type="curve" smooth="yes"/>
      <point x="226" y="356" type="line"/>
      <point x="201" y="199" type="line"/>
      <point x="263" y="199" type="line"/>
      <point x="278" y="293" type="line"/>
      <point x="434" y="293"/>
      <point x="508" y="352"/>
      <point x="527" y="470" type="curve" smooth="yes"/>
      <point x="538" y="541" type="line" smooth="yes"/>
      <point x="542" y="560"/>
      <point x="543" y="579"/>
      <point x="543" y="596" type="curve" smooth="yes"/>
      <point x="543" y="684"/>
      <point x="495" y="739"/>
      <point x="378" y="739" type="curve" smooth="yes"/>
      <point x="302" y="739"/>
      <point x="228" y="723"/>
      <point x="154" y="686" type="curve"/>
    </contour>
    <component base="period" xOffset="104"/>
  </outline>
</glyph>
<glyph name="at" format="1">
  <advance width="914"/>
  <unicode hex="0040"/>
  <note>
    GF Latin Plus glyph
  </note>
  <outline>
    <contour>
      <point x="516" y="484" type="curve" smooth="yes"/>
      <point x="563" y="484"/>
      <point x="602" y="477"/>
      <point x="653" y="453" type="curve"/>
      <point x="602" y="112" type="line"/>
      <point x="546" y="67"/>
      <point x="479" y="58"/>
      <point x="424" y="58" type="curve" smooth="yes"/>
      <point x="365" y="58"/>
      <point x="316" y="88"/>
      <point x="316" y="189" type="curve" smooth="yes"/>
      <point x="316" y="373"/>
      <point x="403" y="484"/>
    </contour>
    <contour>
      <point x="59" y="25" type="line" smooth="yes"/>
      <point x="57" y="10"/>
      <point x="55" y="-5"/>
      <point x="55" y="-19" type="curve" smooth="yes"/>
      <point x="55" y="-112"/>
      <point x="111" y="-186"/>
      <point x="230" y="-186" type="curve" smooth="yes"/>
      <point x="325" y="-186" type="line" smooth="yes"/>
      <point x="451" y="-186"/>
      <point x="566" y="-178"/>
      <point x="616" y="-170" type="curve"/>
      <point x="622" y="-126" type="line"/>
      <point x="238" y="-126" type="line" smooth="yes"/>
      <point x="164" y="-126"/>
      <point x="120" y="-84"/>
      <point x="120" y="-14" type="curve" smooth="yes"/>
      <point x="120" y="-4"/>
      <point x="121" y="7"/>
      <point x="123" y="19" type="curve" smooth="yes"/>
      <point x="201" y="508" type="line" smooth="yes"/>
      <point x="213" y="583"/>
      <point x="250" y="652"/>
      <point x="362" y="652" type="curve" smooth="yes"/>
      <point x="739" y="652" type="line" smooth="yes"/>
      <point x="806" y="652"/>
      <point x="854" y="627"/>
      <point x="854" y="551" type="curve" smooth="yes"/>
      <point x="854" y="538"/>
      <point x="852" y="524"/>
      <point x="850" y="508" type="curve" smooth="yes"/>
      <point x="802" y="183" type="line" smooth="yes"/>
      <point x="784" y="67"/>
      <point x="705" y="56"/>
      <point x="658" y="56" type="curve"/>
      <point x="721" y="480" type="line"/>
      <point x="674" y="523"/>
      <point x="603" y="545"/>
      <point x="522" y="545" type="curve" smooth="yes"/>
      <point x="377" y="545"/>
      <point x="252" y="413"/>
      <point x="252" y="183" type="curve" smooth="yes"/>
      <point x="252" y="41"/>
      <point x="323" y="-6"/>
      <point x="409" y="-6" type="curve" smooth="yes"/>
      <point x="474" y="-6"/>
      <point x="567" y="25"/>
      <point x="596" y="60" type="curve"/>
      <point x="606" y="0" type="line"/>
      <point x="663" y="0" type="line" smooth="yes"/>
      <point x="801" y="0"/>
      <point x="854" y="108"/>
      <point x="865" y="177" type="curve" smooth="yes"/>
      <point x="913" y="502" type="line" smooth="yes"/>
      <point x="916" y="520"/>
      <point x="917" y="539"/>
      <point x="917" y="556" type="curve" smooth="yes"/>
      <point x="917" y="651"/>
      <point x="864" y="712"/>
      <point x="754" y="712" type="curve" smooth="yes"/>
      <point x="372" y="712" type="line" smooth="yes"/>
      <point x="229" y="712"/>
      <point x="158" y="644"/>
      <point x="139" y="521" type="curve" smooth="yes"/>
    </contour>
  </outline>
</glyph>
<glyph name="A" format="1">
  <advance width="676"/>
  <unicode hex="0041"/>
  <note>
    GF Latin Plus glyph
  </note>
  <outline>
    <contour>
      <point x="256" y="281" type="line"/>
      <point x="447" y="664" type="line"/>
      <point x="513" y="281" type="line"/>
    </contour>
    <contour>
      <point x="35" y="0" type="line"/>
      <point x="117" y="0" type="line"/>
      <point x="224" y="210" type="line"/>
      <point x="521" y="210" type="line"/>
      <point x="559" y="0" type="line"/>
      <point x="642" y="0" type="line"/>
      <point x="510" y="736" type="line"/>
      <point x="408" y="736" type="line"/>
    </contour>
    <contour>
      <point x="466" y="810" type="move" name="top"/>
    </contour>
    <contour>
      <point x="632" y="0" type="move" name="ogonek"/>
    </contour>
    <contour>
      <point x="314" y="-150" type="move" name="bottom"/>
    </contour>
  </outline>
</glyph>
<glyph name="B" format="1">
  <advance width="614"/>
  <unicode hex="0042"/>
  <note>
    GF Latin Plus glyph
  </note>
  <outline>
    <contour>
      <point x="216" y="413" type="line"/>
      <point x="256" y="664" type="line"/>
      <point x="429" y="664" type="line" smooth="yes"/>
      <point x="503" y="664"/>
      <point x="544" y="639"/>
      <point x="544" y="575" type="curve" smooth="yes"/>
      <point x="544" y="561"/>
      <point x="542" y="547"/>
      <point x="539" y="529" type="curve" smooth="yes"/>
      <point x="524" y="456"/>
      <point x="481" y="413"/>
      <point x="405" y="413" type="curve" smooth="yes"/>
    </contour>
    <contour>
      <point x="163" y="71" type="line"/>
      <point x="207" y="350" type="line"/>
      <point x="397" y="350" type="line" smooth="yes"/>
      <point x="468" y="350"/>
      <point x="514" y="310"/>
      <point x="514" y="242" type="curve" smooth="yes"/>
      <point x="514" y="231"/>
      <point x="513" y="217"/>
      <point x="510" y="203" type="curve" smooth="yes"/>
      <point x="493" y="121"/>
      <point x="454" y="71"/>
      <point x="353" y="71" type="curve" smooth="yes"/>
    </contour>
    <contour>
      <point x="73" y="0" type="line"/>
      <point x="342" y="0" type="line" smooth="yes"/>
      <point x="484" y="0"/>
      <point x="561" y="60"/>
      <point x="583" y="178" type="curve" smooth="yes"/>
      <point x="589" y="204"/>
      <point x="589" y="221"/>
      <point x="589" y="235" type="curve" smooth="yes"/>
      <point x="589" y="327"/>
      <point x="533" y="370"/>
      <point x="482" y="385" type="curve"/>
      <point x="551" y="400"/>
      <point x="605" y="456"/>
      <point x="618" y="543" type="curve" smooth="yes"/>
      <point x="621" y="560"/>
      <point x="622" y="577"/>
      <point x="622" y="593" type="curve" smooth="yes"/>
      <point x="622" y="680"/>
      <point x="575" y="736"/>
      <point x="445" y="736" type="curve" smooth="yes"/>
      <point x="189" y="736" type="line"/>
    </contour>
    <contour>
      <point x="403" y="810" type="move" name="top"/>
    </contour>
  </outline>
</glyph>
<glyph name="C" format="1">
  <advance width="590"/>
  <unicode hex="0043"/>
  <note>
    GF Latin Plus glyph
  </note>
  <outline>
    <contour>
      <point x="120" y="383" type="curve" smooth="yes"/>
      <point x="112" y="335"/>
      <point x="105" y="275"/>
      <point x="105" y="226" type="curve" smooth="yes"/>
      <point x="105" y="76"/>
      <point x="169" y="-6"/>
      <point x="317" y="-6" type="curve" smooth="yes"/>
      <point x="387" y="-6"/>
      <point x="467" y="0"/>
      <point x="532" y="18" type="curve"/>
      <point x="542" y="78" type="line"/>
      <point x="486" y="70"/>
      <point x="435" y="65"/>
      <point x="337" y="65" type="curve" smooth="yes"/>
      <point x="226" y="65"/>
      <point x="184" y="113"/>
      <point x="184" y="226" type="curve" smooth="yes"/>
      <point x="184" y="265"/>
      <point x="191" y="319"/>
      <point x="198" y="366" type="curve" smooth="yes"/>
      <point x="236" y="588"/>
      <point x="298" y="670"/>
      <point x="429" y="670" type="curve" smooth="yes"/>
      <point x="504" y="670"/>
      <point x="570" y="662"/>
      <point x="633" y="650" type="curve"/>
      <point x="644" y="711" type="line"/>
      <point x="593" y="724"/>
      <point x="522" y="742"/>
      <point x="419" y="742" type="curve" smooth="yes"/>
      <point x="239" y="742"/>
      <point x="156" y="614"/>
    </contour>
    <contour>
      <point x="439" y="810" type="move" name="top"/>
    </contour>
    <contour>
      <point x="301" y="-150" type="move" name="bottom"/>
    </contour>
  </outline>
</glyph>
<glyph name="F" format="1">
  <advance width="553"/>
  <unicode hex="0046"/>
  <note>
    GF Latin Plus glyph
  </note>
  <outline>
    <contour>
      <point x="72" y="0" type="line"/>
      <point x="151" y="0" type="line"/>
      <point x="202" y="320" type="line"/>
      <point x="526" y="325" type="line"/>
      <point x="536" y="386" type="line"/>
      <point x="213" y="393" type="line"/>
      <point x="241" y="571" type="line" smooth="yes"/>
      <point x="252" y="636"/>
      <point x="282" y="662"/>
      <point x="340" y="662" type="curve" smooth="yes"/>
      <point x="622" y="662" type="line"/>
      <point x="633" y="726" type="line"/>
      <point x="602" y="730"/>
      <point x="372" y="736"/>
      <point x="333" y="736" type="curve" smooth="yes"/>
      <point x="259" y="736"/>
      <point x="185" y="710"/>
      <point x="165" y="587" type="curve" smooth="yes"/>
    </contour>
    <contour>
      <point x="426" y="810" type="move" name="top"/>
    </contour>
  </outline>
</glyph>
<glyph name="G" format="1">
  <advance width="646"/>
  <unicode hex="0047"/>
  <note>
    GF Latin Plus glyph
  </note>
  <outline>
    <contour>
      <point x="120" y="388" type="curve" smooth="yes"/>
      <point x="111" y="329"/>
      <point x="104" y="273"/>
      <point x="104" y="222" type="curve" smooth="yes"/>
      <point x="104" y="65"/>
      <point x="157" y="-6"/>
      <point x="295" y="-6" type="curve" smooth="yes"/>
      <point x="370" y="-6"/>
      <point x="480" y="33"/>
      <point x="514" y="52" type="curve"/>
      <point x="519" y="0" type="line"/>
      <point x="577" y="0" type="line"/>
      <point x="639" y="390" type="line"/>
      <point x="615" y="392"/>
      <point x="578" y="393"/>
      <point x="553" y="393" type="curve" smooth="yes"/>
      <point x="474" y="393"/>
      <point x="419" y="391"/>
      <point x="383" y="386" type="curve"/>
      <point x="374" y="325" type="line"/>
      <point x="552" y="325" type="line"/>
      <point x="517" y="106" type="line"/>
      <point x="482" y="92"/>
      <point x="384" y="67"/>
      <point x="320" y="67" type="curve" smooth="yes"/>
      <point x="223" y="67"/>
      <point x="184" y="116"/>
      <point x="184" y="222" type="curve" smooth="yes"/>
      <point x="184" y="261"/>
      <point x="189" y="310"/>
      <point x="198" y="368" type="curve" smooth="yes"/>
      <point x="229" y="567"/>
      <point x="284" y="672"/>
      <point x="434" y="672" type="curve" smooth="yes"/>
      <point x="528" y="672"/>
      <point x="604" y="662"/>
      <point x="657" y="651" type="curve"/>
      <point x="666" y="711" type="line"/>
      <point x="607" y="728"/>
      <point x="538" y="743"/>
      <point x="429" y="743" type="curve" smooth="yes"/>
      <point x="241" y="743"/>
      <point x="155" y="607"/>
    </contour>
    <contour>
      <point x="449" y="810" type="move" name="top"/>
    </contour>
    <contour>
      <point x="297" y="-150" type="move" name="bottom"/>
    </contour>
  </outline>
</glyph>
<glyph name="M" format="1">
  <advance width="814"/>
  <unicode hex="004D"/>
  <note>
    GF Latin Plus glyph
  </note>
  <outline>
    <contour>
      <point x="58" y="0" type="line"/>
      <point x="137" y="0" type="line"/>
      <point x="294" y="588" type="line"/>
      <point x="382" y="0" type="line"/>
      <point x="456" y="0" type="line"/>
      <point x="730" y="590" type="line"/>
      <point x="703" y="0" type="line"/>
      <point x="780" y="0" type="line"/>
      <point x="811" y="736" type="line"/>
      <point x="738" y="736" type="line"/>
      <point x="435" y="106" type="line"/>
      <point x="333" y="736" type="line"/>
      <point x="259" y="736" type="line"/>
    </contour>
    <contour>
      <point x="536" y="810" type="move" name="top"/>
    </contour>
    <contour>
      <point x="384" y="-150" type="move" name="bottom"/>
    </contour>
  </outline>
</glyph>
<glyph name="O" format="1">
  <advance width="686"/>
  <unicode hex="004F"/>
  <note>
    GF Latin Plus glyph
  </note>
  <outline>
    <contour>
      <point x="182" y="215" type="curve" smooth="yes"/>
      <point x="182" y="253"/>
      <point x="188" y="305"/>
      <point x="197" y="365" type="curve" smooth="yes"/>
      <point x="237" y="618"/>
      <point x="305" y="670"/>
      <point x="449" y="670" type="curve" smooth="yes"/>
      <point x="558" y="670"/>
      <point x="619" y="645"/>
      <point x="619" y="514" type="curve" smooth="yes"/>
      <point x="619" y="475"/>
      <point x="614" y="422"/>
      <point x="604" y="361" type="curve" smooth="yes"/>
      <point x="565" y="120"/>
      <point x="502" y="66"/>
      <point x="354" y="66" type="curve" smooth="yes"/>
      <point x="235" y="66"/>
      <point x="182" y="91"/>
    </contour>
    <contour>
      <point x="103" y="212" type="curve" smooth="yes"/>
      <point x="103" y="31"/>
      <point x="193" y="-6"/>
      <point x="341" y="-6" type="curve" smooth="yes"/>
      <point x="536" y="-6"/>
      <point x="636" y="53"/>
      <point x="683" y="348" type="curve" smooth="yes"/>
      <point x="693" y="412"/>
      <point x="699" y="469"/>
      <point x="699" y="514" type="curve" smooth="yes"/>
      <point x="699" y="699"/>
      <point x="604" y="742"/>
      <point x="461" y="742" type="curve" smooth="yes"/>
      <point x="262" y="742"/>
      <point x="165" y="671"/>
      <point x="118" y="378" type="curve" smooth="yes"/>
      <point x="108" y="314"/>
      <point x="103" y="258"/>
    </contour>
    <contour>
      <point x="474" y="810" type="move" name="top"/>
    </contour>
    <contour>
      <point x="422" y="0" type="move" name="ogonek"/>
    </contour>
    <contour>
      <point x="322" y="-150" type="move" name="bottom"/>
    </contour>
  </outline>
</glyph>
<glyph name="R" format="1">
  <advance width="617"/>
  <unicode hex="0052"/>
  <note>
    GF Latin Plus glyph
  </note>
  <outline>
    <contour>
      <point x="209" y="367" type="line"/>
      <point x="256" y="664" type="line"/>
      <point x="441" y="664" type="line" smooth="yes"/>
      <point x="496" y="664"/>
      <point x="552" y="645"/>
      <point x="552" y="556" type="curve" smooth="yes"/>
      <point x="552" y="543"/>
      <point x="551" y="529"/>
      <point x="548" y="513" type="curve" smooth="yes"/>
      <point x="529" y="391"/>
      <point x="470" y="367"/>
      <point x="399" y="367" type="curve" smooth="yes"/>
    </contour>
    <contour>
      <point x="72" y="0" type="line"/>
      <point x="151" y="0" type="line"/>
      <point x="200" y="307" type="line"/>
      <point x="241" y="305"/>
      <point x="353" y="303"/>
      <point x="389" y="303" type="curve"/>
      <point x="483" y="0" type="line"/>
      <point x="563" y="0" type="line"/>
      <point x="463" y="314" type="line"/>
      <point x="517" y="323"/>
      <point x="604" y="352"/>
      <point x="628" y="507" type="curve" smooth="yes"/>
      <point x="632" y="529"/>
      <point x="634" y="549"/>
      <point x="634" y="567" type="curve" smooth="yes"/>
      <point x="634" y="700"/>
      <point x="547" y="736"/>
      <point x="456" y="736" type="curve" smooth="yes"/>
      <point x="189" y="736" type="line"/>
    </contour>
    <contour>
      <point x="402" y="810" type="move" name="top"/>
    </contour>
    <contour>
      <point x="264" y="-150" type="move" name="bottom"/>
    </contour>
  </outline>
</glyph>
<glyph name="S" format="1">
  <advance width="569"/>
  <unicode hex="0053"/>
  <note>
    GF Latin Plus glyph
  </note>
  <outline>
    <contour>
      <point x="72" y="12" type="line"/>
      <point x="125" y="2"/>
      <point x="219" y="-6"/>
      <point x="301" y="-6" type="curve" smooth="yes"/>
      <point x="442" y="-6"/>
      <point x="530" y="33"/>
      <point x="551" y="165" type="curve" smooth="yes"/>
      <point x="561" y="232" type="line" smooth="yes"/>
      <point x="563" y="247"/>
      <point x="564" y="260"/>
      <point x="564" y="272" type="curve" smooth="yes"/>
      <point x="564" y="357"/>
      <point x="510" y="406"/>
      <point x="401" y="406" type="curve" smooth="yes"/>
      <point x="310" y="406" type="line" smooth="yes"/>
      <point x="248" y="406"/>
      <point x="218" y="424"/>
      <point x="218" y="477" type="curve" smooth="yes"/>
      <point x="218" y="486"/>
      <point x="219" y="496"/>
      <point x="221" y="507" type="curve" smooth="yes"/>
      <point x="228" y="555" type="line" smooth="yes"/>
      <point x="242" y="647"/>
      <point x="293" y="669"/>
      <point x="382" y="669" type="curve" smooth="yes"/>
      <point x="433" y="669"/>
      <point x="530" y="665"/>
      <point x="596" y="661" type="curve"/>
      <point x="605" y="721" type="line"/>
      <point x="548" y="733"/>
      <point x="442" y="742"/>
      <point x="389" y="742" type="curve" smooth="yes"/>
      <point x="262" y="742"/>
      <point x="175" y="704"/>
      <point x="153" y="562" type="curve" smooth="yes"/>
      <point x="143" y="499" type="line" smooth="yes"/>
      <point x="141" y="485"/>
      <point x="140" y="472"/>
      <point x="140" y="460" type="curve" smooth="yes"/>
      <point x="140" y="374"/>
      <point x="194" y="331"/>
      <point x="293" y="331" type="curve" smooth="yes"/>
      <point x="382" y="331" type="line" smooth="yes"/>
      <point x="455" y="331"/>
      <point x="486" y="308"/>
      <point x="486" y="254" type="curve" smooth="yes"/>
      <point x="486" y="245"/>
      <point x="486" y="235"/>
      <point x="484" y="225" type="curve" smooth="yes"/>
      <point x="476" y="177" type="line" smooth="yes"/>
      <point x="462" y="85"/>
      <point x="399" y="65"/>
      <point x="303" y="65" type="curve" smooth="yes"/>
      <point x="226" y="65"/>
      <point x="137" y="68"/>
      <point x="81" y="72" type="curve"/>
    </contour>
    <contour>
      <point x="410" y="810" type="move" name="top"/>
    </contour>
    <contour>
      <point x="258" y="-150" type="move" name="bottom"/>
    </contour>
  </outline>
</glyph>
<glyph name="U" format="1">
  <advance width="676"/>
  <unicode hex="0055"/>
  <note>
    GF Latin Plus glyph
  </note>
  <outline>
    <contour>
      <point x="124" y="330" type="line" smooth="yes"/>
      <point x="117" y="283"/>
      <point x="112" y="235"/>
      <point x="112" y="200" type="curve" smooth="yes"/>
      <point x="112" y="50"/>
      <point x="191" y="-6"/>
      <point x="339" y="-6" type="curve" smooth="yes"/>
      <point x="505" y="-6"/>
      <point x="611" y="37"/>
      <point x="654" y="310" type="curve" smooth="yes"/>
      <point x="721" y="736" type="line"/>
      <point x="642" y="736" type="line"/>
      <point x="576" y="320" type="line" smooth="yes"/>
      <point x="542" y="100"/>
      <point x="469" y="65"/>
      <point x="346" y="65" type="curve" smooth="yes"/>
      <point x="243" y="65"/>
      <point x="190" y="101"/>
      <point x="190" y="205" type="curve" smooth="yes"/>
      <point x="190" y="235"/>
      <point x="195" y="278"/>
      <point x="202" y="320" type="curve" smooth="yes"/>
      <point x="268" y="736" type="line"/>
      <point x="189" y="736" type="line"/>
    </contour>
    <contour>
      <point x="456" y="810" type="move" name="top"/>
    </contour>
    <contour>
      <point x="416" y="0" type="move" name="ogonek"/>
    </contour>
    <contour>
      <point x="304" y="-150" type="move" name="bottom"/>
    </contour>
  </outline>
</glyph>
<glyph name="Z" format="1">
  <advance width="560"/>
  <unicode hex="005A"/>
  <note>
    GF Latin Plus glyph
  </note>
  <outline>
    <contour>
      <point x="40" y="0" type="line"/>
      <point x="519" y="0" type="line"/>
      <point x="531" y="71" type="line"/>
      <point x="143" y="71" type="line"/>
      <point x="615" y="667" type="line"/>
      <point x="626" y="736" type="line"/>
      <point x="157" y="736" type="line"/>
      <point x="145" y="664" type="line"/>
      <point x="523" y="664" type="line"/>
      <point x="51" y="68" type="line"/>
    </contour>
    <contour>
      <point x="398" y="810" type="move" name="top"/>
    </contour>
    <contour>
      <point x="246" y="-150" type="move" name="bottom"/>
    </contour>
  </outline>
</glyph>
<glyph name="bracketleft" format="1">
  <advance width="333"/>
  <unicode hex="005B"/>
  <note>
    GF Latin Plus glyph
  </note>
  <outline>
    <contour>
      <point x="90" y="-22" type="line" smooth="yes"/>
      <point x="88" y="-38"/>
      <point x="85" y="-56"/>
      <point x="85" y="-75" type="curve" smooth="yes"/>
      <point x="85" y="-140"/>
      <point x="109" y="-210"/>
      <point x="216" y="-210" type="curve" smooth="yes"/>
      <point x="279" y="-210" type="line"/>
      <point x="289" y="-145" type="line"/>
      <point x="245" y="-145" type="line" smooth="yes"/>
      <point x="189" y="-145"/>
      <point x="166" y="-111"/>
      <point x="166" y="-57" type="curve" smooth="yes"/>
      <point x="166" y="-45"/>
      <point x="168" y="-32"/>
      <point x="169" y="-19" type="curve" smooth="yes"/>
      <point x="276" y="651" type="line" smooth="yes"/>
      <point x="290" y="742"/>
      <point x="335" y="777"/>
      <point x="391" y="777" type="curve" smooth="yes"/>
      <point x="435" y="777" type="line"/>
      <point x="445" y="842" type="line"/>
      <point x="382" y="842" type="line" smooth="yes"/>
      <point x="255" y="842"/>
      <point x="211" y="744"/>
      <point x="198" y="660" type="curve" smooth="yes"/>
    </contour>
  </outline>
</glyph>
<glyph name="b" format="1">
  <advance width="570"/>
  <unicode hex="0062"/>
  <note>
    GF Latin Plus glyph
  </note>
  <outline>
    <contour>
      <point x="165" y="105" type="curve"/>
      <point x="216" y="430" type="line"/>
      <point x="271" y="456"/>
      <point x="329" y="474"/>
      <point x="383" y="474" type="curve" smooth="yes"/>
      <point x="444" y="474"/>
      <point x="490" y="440"/>
      <point x="490" y="349" type="curve" smooth="yes"/>
      <point x="490" y="326"/>
      <point x="487" y="297"/>
      <point x="482" y="265" type="curve" smooth="yes"/>
      <point x="461" y="128"/>
      <point x="409" y="59"/>
      <point x="313" y="59" type="curve" smooth="yes"/>
      <point x="248" y="59"/>
      <point x="203" y="81"/>
    </contour>
    <contour>
      <point x="68" y="0" type="line"/>
      <point x="136" y="0" type="line"/>
      <point x="157" y="54" type="line"/>
      <point x="198" y="23"/>
      <point x="267" y="-6"/>
      <point x="333" y="-6" type="curve" smooth="yes"/>
      <point x="456" y="-6"/>
      <point x="535" y="92"/>
      <point x="558" y="244" type="curve" smooth="yes"/>
      <point x="565" y="288"/>
      <point x="570" y="329"/>
      <point x="570" y="360" type="curve" smooth="yes"/>
      <point x="570" y="479"/>
      <point x="504" y="540"/>
      <point x="407" y="540" type="curve" smooth="yes"/>
      <point x="359" y="540"/>
      <point x="285" y="520"/>
      <point x="225" y="486" type="curve"/>
      <point x="269" y="763" type="line"/>
      <point x="189" y="763" type="line"/>
    </contour>
    <contour>
      <point x="263" y="-150" type="move" name="bottom"/>
    </contour>
  </outline>
</glyph>
<glyph name="c" format="1">
  <advance width="480"/>
  <unicode hex="0063"/>
  <note>
    GF Latin Plus glyph
  </note>
  <outline>
    <contour>
      <point x="95" y="282" type="curve" smooth="yes"/>
      <point x="89" y="245"/>
      <point x="85" y="213"/>
      <point x="85" y="188" type="curve" smooth="yes"/>
      <point x="85" y="34"/>
      <point x="161" y="-6"/>
      <point x="273" y="-6" type="curve" smooth="yes"/>
      <point x="347" y="-6"/>
      <point x="404" y="1"/>
      <point x="447" y="10" type="curve"/>
      <point x="454" y="56" type="line"/>
      <point x="297" y="56" type="line" smooth="yes"/>
      <point x="210" y="56"/>
      <point x="164" y="86"/>
      <point x="164" y="194" type="curve" smooth="yes"/>
      <point x="164" y="211"/>
      <point x="167" y="234"/>
      <point x="172" y="265" type="curve" smooth="yes"/>
      <point x="198" y="426"/>
      <point x="261" y="477"/>
      <point x="356" y="477" type="curve" smooth="yes"/>
      <point x="508" y="477" type="line"/>
      <point x="517" y="524" type="line"/>
      <point x="463" y="532"/>
      <point x="394" y="540"/>
      <point x="342" y="540" type="curve" smooth="yes"/>
      <point x="214" y="540"/>
      <point x="124" y="468"/>
    </contour>
    <contour>
      <point x="355" y="650" type="move" name="top"/>
    </contour>
    <contour>
      <point x="229" y="-150" type="move" name="bottom"/>
    </contour>
  </outline>
</glyph>
<glyph name="e" format="1">
  <advance width="548"/>
  <unicode hex="0065"/>
  <note>
    GF Latin Plus glyph
  </note>
  <outline>
    <contour>
      <point x="173" y="279" type="curve"/>
      <point x="192" y="407"/>
      <point x="239" y="480"/>
      <point x="362" y="480" type="curve" smooth="yes"/>
      <point x="444" y="480"/>
      <point x="484" y="454"/>
      <point x="484" y="388" type="curve" smooth="yes"/>
      <point x="484" y="296"/>
      <point x="405" y="270"/>
      <point x="283" y="270" type="curve" smooth="yes"/>
      <point x="242" y="270"/>
      <point x="202" y="274"/>
    </contour>
    <contour>
      <point x="86" y="181" type="curve" smooth="yes"/>
      <point x="86" y="58"/>
      <point x="149" y="-6"/>
      <point x="303" y="-6" type="curve" smooth="yes"/>
      <point x="372" y="-6"/>
      <point x="442" y="1"/>
      <point x="484" y="7" type="curve"/>
      <point x="492" y="55" type="line"/>
      <point x="330" y="55" type="line" smooth="yes"/>
      <point x="211" y="55"/>
      <point x="164" y="92"/>
      <point x="164" y="175" type="curve" smooth="yes"/>
      <point x="164" y="194"/>
      <point x="165" y="216"/>
      <point x="168" y="236" type="curve"/>
      <point x="194" y="229"/>
      <point x="247" y="221"/>
      <point x="310" y="221" type="curve" smooth="yes"/>
      <point x="438" y="221"/>
      <point x="559" y="253"/>
      <point x="559" y="396" type="curve" smooth="yes"/>
      <point x="559" y="507"/>
      <point x="479" y="542"/>
      <point x="368" y="542" type="curve" smooth="yes"/>
      <point x="204" y="542"/>
      <point x="121" y="456"/>
      <point x="97" y="294" type="curve" smooth="yes"/>
      <point x="91" y="259"/>
      <point x="86" y="221"/>
    </contour>
    <contour>
      <point x="380" y="650" type="move" name="top"/>
    </contour>
    <contour>
      <point x="474" y="7" type="move" name="ogonek"/>
    </contour>
    <contour>
      <point x="274" y="-150" type="move" name="bottom"/>
    </contour>
  </outline>
</glyph>
<glyph name="f" format="1">
  <advance width="373"/>
  <unicode hex="0066"/>
  <note>
    GF Latin Plus glyph
  </note>
  <outline>
    <contour>
      <point x="99" y="467" type="line"/>
      <point x="181" y="467" type="line"/>
      <point x="107" y="0" type="line"/>
      <point x="186" y="0" type="line"/>
      <point x="260" y="467" type="line"/>
      <point x="422" y="467" type="line"/>
      <point x="433" y="534" type="line"/>
      <point x="271" y="534" type="line"/>
      <point x="281" y="598" type="line" smooth="yes"/>
      <point x="291" y="665"/>
      <point x="309" y="705"/>
      <point x="379" y="705" type="curve" smooth="yes"/>
      <point x="478" y="705" type="line"/>
      <point x="487" y="762" type="line"/>
      <point x="455" y="766"/>
      <point x="410" y="769"/>
      <point x="369" y="769" type="curve" smooth="yes"/>
      <point x="245" y="769"/>
      <point x="218" y="691"/>
      <point x="205" y="616" type="curve" smooth="yes"/>
      <point x="191" y="534" type="line"/>
      <point x="108" y="518" type="line"/>
    </contour>
    <contour>
      <point x="136" y="-150" type="move" name="bottom"/>
    </contour>
  </outline>
</glyph>
<glyph name="g" format="1">
  <advance width="566"/>
  <unicode hex="0067"/>
  <note>
    GF Latin Plus glyph
  </note>
  <outline>
    <contour>
      <point x="174" y="278" type="curve" smooth="yes"/>
      <point x="196" y="417"/>
      <point x="251" y="479"/>
      <point x="369" y="474" type="curve" smooth="yes"/>
      <point x="373" y="474"/>
      <point x="487" y="469"/>
      <point x="492" y="467" type="curve"/>
      <point x="435" y="108" type="line"/>
      <point x="373" y="76"/>
      <point x="324" y="59"/>
      <point x="266" y="59" type="curve" smooth="yes"/>
      <point x="208" y="59"/>
      <point x="164" y="98"/>
      <point x="164" y="183" type="curve" smooth="yes"/>
      <point x="164" y="210"/>
      <point x="168" y="237"/>
    </contour>
    <contour>
      <point x="51" y="-228" type="line"/>
      <point x="196" y="-235" type="line" smooth="yes"/>
      <point x="332" y="-244"/>
      <point x="464" y="-207"/>
      <point x="487" y="-63" type="curve" smooth="yes"/>
      <point x="580" y="518" type="line"/>
      <point x="540" y="527"/>
      <point x="465" y="540"/>
      <point x="373" y="540" type="curve" smooth="yes"/>
      <point x="207" y="540"/>
      <point x="124" y="462"/>
      <point x="96" y="287" type="curve" smooth="yes"/>
      <point x="90" y="248"/>
      <point x="85" y="204"/>
      <point x="85" y="170" type="curve" smooth="yes"/>
      <point x="85" y="62"/>
      <point x="147" y="-6"/>
      <point x="231" y="-6" type="curve" smooth="yes"/>
      <point x="291" y="-6"/>
      <point x="368" y="16"/>
      <point x="428" y="57" type="curve"/>
      <point x="410" y="-52" type="line" smooth="yes"/>
      <point x="395" y="-142"/>
      <point x="313" y="-174"/>
      <point x="222" y="-174" type="curve" smooth="yes"/>
      <point x="60" y="-174" type="line"/>
    </contour>
    <contour>
      <point x="382" y="650" type="move" name="top"/>
    </contour>
    <contour>
      <point x="209" y="-350" type="move" name="bottom"/>
    </contour>
  </outline>
</glyph>
<glyph name="s" format="1">
  <advance width="507"/>
  <unicode hex="0073"/>
  <note>
    GF Latin Plus glyph
  </note>
  <outline>
    <contour>
      <point x="60" y="8" type="line"/>
      <point x="101" y="-1"/>
      <point x="210" y="-6"/>
      <point x="273" y="-6" type="curve" smooth="yes"/>
      <point x="386" y="-6"/>
      <point x="461" y="27"/>
      <point x="475" y="117" type="curve" smooth="yes"/>
      <point x="483" y="165" type="line" smooth="yes"/>
      <point x="484" y="177"/>
      <point x="485" y="187"/>
      <point x="485" y="197" type="curve" smooth="yes"/>
      <point x="485" y="262"/>
      <point x="433" y="299"/>
      <point x="359" y="299" type="curve" smooth="yes"/>
      <point x="257" y="299" type="line" smooth="yes"/>
      <point x="201" y="299"/>
      <point x="179" y="310"/>
      <point x="179" y="340" type="curve" smooth="yes"/>
      <point x="179" y="347"/>
      <point x="180" y="356"/>
      <point x="182" y="372" type="curve" smooth="yes"/>
      <point x="188" y="404" type="line" smooth="yes"/>
      <point x="197" y="454"/>
      <point x="224" y="478"/>
      <point x="292" y="478" type="curve" smooth="yes"/>
      <point x="499" y="478" type="line"/>
      <point x="507" y="525" type="line"/>
      <point x="459" y="533"/>
      <point x="362" y="540"/>
      <point x="307" y="540" type="curve" smooth="yes"/>
      <point x="178" y="540"/>
      <point x="130" y="487"/>
      <point x="116" y="409" type="curve" smooth="yes"/>
      <point x="109" y="366" type="line" smooth="yes"/>
      <point x="106" y="350"/>
      <point x="105" y="336"/>
      <point x="105" y="323" type="curve" smooth="yes"/>
      <point x="105" y="260"/>
      <point x="155" y="233"/>
      <point x="243" y="233" type="curve" smooth="yes"/>
      <point x="341" y="233" type="line" smooth="yes"/>
      <point x="387" y="233"/>
      <point x="410" y="215"/>
      <point x="410" y="178" type="curve" smooth="yes"/>
      <point x="410" y="174"/>
      <point x="410" y="170"/>
      <point x="409" y="164" type="curve" smooth="yes"/>
      <point x="403" y="127" type="line" smooth="yes"/>
      <point x="394" y="74"/>
      <point x="353" y="56"/>
      <point x="290" y="56" type="curve" smooth="yes"/>
      <point x="68" y="56" type="line"/>
    </contour>
    <contour>
      <point x="353" y="650" type="move" name="top"/>
    </contour>
    <contour>
      <point x="227" y="-150" type="move" name="bottom"/>
    </contour>
  </outline>
</glyph>
<glyph name="z" format="1">
  <advance width="499"/>
  <unicode hex="007A"/>
  <note>
    GF Latin Plus glyph
  </note>
  <outline>
    <contour>
      <point x="54" y="1" type="line"/>
      <point x="454" y="1" type="line"/>
      <point x="454" y="1"/>
      <point x="466" y="65"/>
      <point x="465" y="66" type="curve"/>
      <point x="155" y="66" type="line"/>
      <point x="516" y="474" type="line"/>
      <point x="525" y="534" type="line"/>
      <point x="125" y="534" type="line"/>
      <point x="115" y="469" type="line"/>
      <point x="424" y="469" type="line"/>
      <point x="63" y="60" type="line"/>
    </contour>
    <contour>
      <point x="340" y="650" type="move" name="top"/>
    </contour>
    <contour>
      <point x="214" y="-150" type="move" name="bottom"/>
    </contour>
  </outline>
</glyph>
<glyph name="asciitilde" format="1">
  <advance width="451"/>
  <unicode hex="007E"/>
  <note>
    GF Latin Plus glyph
  </note>
  <outline>
    <contour>
      <point x="147" y="580" type="line"/>
      <point x="183" y="612"/>
      <point x="224" y="644"/>
      <point x="268" y="644" type="curve" smooth="yes"/>
      <point x="307" y="644"/>
      <point x="349" y="583"/>
      <point x="380" y="583" type="curve" smooth="yes"/>
      <point x="419" y="583"/>
      <point x="459" y="612"/>
      <point x="484" y="632" type="curve"/>
      <point x="492" y="603" type="line"/>
      <point x="457" y="570"/>
      <point x="419" y="538"/>
      <point x="374" y="538" type="curve" smooth="yes"/>
      <point x="331" y="538"/>
      <point x="295" y="598"/>
      <point x="260" y="598" type="curve" smooth="yes"/>
      <point x="222" y="598"/>
      <point x="192" y="579"/>
      <point x="154" y="553" type="curve"/>
    </contour>
  </outline>
</glyph>
<glyph name="section" format="1">
  <advance width="550"/>
  <unicode hex="00A7"/>
  <note>
    GF Latin Plus glyph
  </note>
  <outline>
    <contour>
      <point x="187" y="360" type="curve" smooth="yes"/>
      <point x="195" y="410" type="line" smooth="yes"/>
      <point x="202" y="461"/>
      <point x="227" y="475"/>
      <point x="295" y="475" type="curve" smooth="yes"/>
      <point x="419" y="475" type="line" smooth="yes"/>
      <point x="471" y="475"/>
      <point x="489" y="466"/>
      <point x="489" y="432" type="curve" smooth="yes"/>
      <point x="489" y="427"/>
      <point x="488" y="420"/>
      <point x="487" y="412" type="curve" smooth="yes"/>
      <point x="479" y="361" type="line" smooth="yes"/>
      <point x="470" y="303"/>
      <point x="457" y="299"/>
      <point x="377" y="299" type="curve" smooth="yes"/>
      <point x="267" y="299" type="line" smooth="yes"/>
      <point x="205" y="299"/>
      <point x="185" y="316"/>
      <point x="185" y="345" type="curve" smooth="yes"/>
      <point x="185" y="349"/>
      <point x="186" y="354"/>
    </contour>
    <contour>
      <point x="109" y="353" type="line" smooth="yes"/>
      <point x="107" y="336"/>
      <point x="106" y="326"/>
      <point x="106" y="318" type="curve" smooth="yes"/>
      <point x="106" y="261"/>
      <point x="150" y="237"/>
      <point x="240" y="237" type="curve" smooth="yes"/>
      <point x="367" y="237" type="line" smooth="yes"/>
      <point x="427" y="237"/>
      <point x="443" y="230"/>
      <point x="443" y="204" type="curve" smooth="yes"/>
      <point x="443" y="195"/>
      <point x="439" y="175"/>
      <point x="432" y="129" type="curve" smooth="yes"/>
      <point x="425" y="88"/>
      <point x="403" y="59"/>
      <point x="312" y="59" type="curve" smooth="yes"/>
      <point x="107" y="59" type="line"/>
      <point x="98" y="4" type="line"/>
      <point x="143" y="-3"/>
      <point x="260" y="-6"/>
      <point x="315" y="-6" type="curve" smooth="yes"/>
      <point x="424" y="-6"/>
      <point x="494" y="26"/>
      <point x="509" y="126" type="curve" smooth="yes"/>
      <point x="517" y="176" type="line" smooth="yes"/>
      <point x="521" y="200"/>
      <point x="522" y="210"/>
      <point x="522" y="221" type="curve" smooth="yes"/>
      <point x="522" y="251"/>
      <point x="511" y="272"/>
      <point x="478" y="283" type="curve"/>
      <point x="527" y="293"/>
      <point x="548" y="320"/>
      <point x="557" y="375" type="curve" smooth="yes"/>
      <point x="565" y="427" type="line" smooth="yes"/>
      <point x="567" y="438"/>
      <point x="568" y="449"/>
      <point x="568" y="459" type="curve" smooth="yes"/>
      <point x="568" y="515"/>
      <point x="533" y="537"/>
      <point x="444" y="537" type="curve" smooth="yes"/>
      <point x="305" y="537" type="line" smooth="yes"/>
      <point x="256" y="537"/>
      <point x="232" y="544"/>
      <point x="232" y="578" type="curve" smooth="yes"/>
      <point x="232" y="586"/>
      <point x="234" y="601"/>
      <point x="241" y="642" type="curve" smooth="yes"/>
      <point x="252" y="706"/>
      <point x="289" y="719"/>
      <point x="350" y="719" type="curve" smooth="yes"/>
      <point x="568" y="719" type="line"/>
      <point x="576" y="773" type="line"/>
      <point x="534" y="781"/>
      <point x="403" y="784"/>
      <point x="350" y="784" type="curve" smooth="yes"/>
      <point x="239" y="784"/>
      <point x="182" y="745"/>
      <point x="167" y="653" type="curve" smooth="yes"/>
      <point x="158" y="596" type="line" smooth="yes"/>
      <point x="156" y="581"/>
      <point x="155" y="571"/>
      <point x="155" y="562" type="curve" smooth="yes"/>
      <point x="155" y="530"/>
      <point x="165" y="505"/>
      <point x="199" y="491" type="curve"/>
      <point x="152" y="479"/>
      <point x="126" y="458"/>
      <point x="116" y="396" type="curve" smooth="yes"/>
    </contour>
  </outline>
</glyph>
<glyph name="copyright" format="1">
  <advance width="841"/>
  <unicode hex="00A9"/>
  <note>
    GF Latin Plus glyph
  </note>
  <outline>
    <contour>
      <point x="287" y="288" type="curve" smooth="yes"/>
      <point x="287" y="176"/>
      <point x="342" y="147"/>
      <point x="409" y="147" type="curve" smooth="yes"/>
      <point x="475" y="147"/>
      <point x="532" y="149"/>
      <point x="595" y="170" type="curve"/>
      <point x="600" y="206" type="line"/>
      <point x="554" y="197"/>
      <point x="495" y="190"/>
      <point x="428" y="190" type="curve" smooth="yes"/>
      <point x="363" y="190"/>
      <point x="336" y="226"/>
      <point x="336" y="298" type="curve" smooth="yes"/>
      <point x="336" y="420"/>
      <point x="397" y="540"/>
      <point x="485" y="540" type="curve" smooth="yes"/>
      <point x="517" y="540"/>
      <point x="586" y="536"/>
      <point x="645" y="528" type="curve"/>
      <point x="651" y="564" type="line"/>
      <point x="598" y="577"/>
      <point x="518" y="583"/>
      <point x="479" y="583" type="curve" smooth="yes"/>
      <point x="375" y="583"/>
      <point x="287" y="450"/>
    </contour>
    <contour>
      <point x="422" y="689" type="curve" smooth="yes"/>
      <point x="660" y="689" type="line" smooth="yes"/>
      <point x="767" y="689"/>
      <point x="807" y="604"/>
      <point x="807" y="491" type="curve" smooth="yes"/>
      <point x="807" y="250"/>
      <point x="685" y="43"/>
      <point x="554" y="43" type="curve" smooth="yes"/>
      <point x="319" y="43" type="line" smooth="yes"/>
      <point x="198" y="43"/>
      <point x="154" y="153"/>
      <point x="154" y="278" type="curve" smooth="yes"/>
      <point x="154" y="501"/>
      <point x="287" y="689"/>
    </contour>
    <contour>
      <point x="109" y="272" type="curve" smooth="yes"/>
      <point x="109" y="134"/>
      <point x="172" y="0"/>
      <point x="322" y="0" type="curve" smooth="yes"/>
      <point x="551" y="0" type="line" smooth="yes"/>
      <point x="714" y="0"/>
      <point x="852" y="240"/>
      <point x="852" y="498" type="curve" smooth="yes"/>
      <point x="852" y="626"/>
      <point x="796" y="732"/>
      <point x="657" y="732" type="curve" smooth="yes"/>
      <point x="429" y="732" type="line" smooth="yes"/>
      <point x="239" y="732"/>
      <point x="109" y="496"/>
    </contour>
  </outline>
</glyph>
<glyph name="registered" format="1">
  <advance width="841"/>
  <unicode hex="00AE"/>
  <note>
    GF Latin Plus glyph
  </note>
  <outline>
    <contour>
      <point x="375" y="372" type="line"/>
      <point x="401" y="537" type="line"/>
      <point x="538" y="537" type="line" smooth="yes"/>
      <point x="579" y="537"/>
      <point x="604" y="522"/>
      <point x="604" y="476" type="curve" smooth="yes"/>
      <point x="604" y="423"/>
      <point x="564" y="372"/>
      <point x="511" y="372" type="curve" smooth="yes"/>
    </contour>
    <contour>
      <point x="293" y="153" type="line"/>
      <point x="340" y="153" type="line"/>
      <point x="369" y="339" type="line"/>
      <point x="491" y="335" type="line"/>
      <point x="562" y="153" type="line"/>
      <point x="607" y="153" type="line"/>
      <point x="534" y="335" type="line"/>
      <point x="604" y="344"/>
      <point x="651" y="411"/>
      <point x="651" y="486" type="curve" smooth="yes"/>
      <point x="651" y="563"/>
      <point x="600" y="580"/>
      <point x="542" y="580" type="curve" smooth="yes"/>
      <point x="361" y="580" type="line"/>
    </contour>
    <contour>
      <point x="422" y="689" type="curve" smooth="yes"/>
      <point x="660" y="689" type="line" smooth="yes"/>
      <point x="767" y="689"/>
      <point x="807" y="604"/>
      <point x="807" y="491" type="curve" smooth="yes"/>
      <point x="807" y="250"/>
      <point x="685" y="43"/>
      <point x="554" y="43" type="curve" smooth="yes"/>
      <point x="319" y="43" type="line" smooth="yes"/>
      <point x="198" y="43"/>
      <point x="154" y="153"/>
      <point x="154" y="278" type="curve" smooth="yes"/>
      <point x="154" y="501"/>
      <point x="287" y="689"/>
    </contour>
    <contour>
      <point x="109" y="272" type="curve" smooth="yes"/>
      <point x="109" y="134"/>
      <point x="172" y="0"/>
      <point x="322" y="0" type="curve" smooth="yes"/>
      <point x="551" y="0" type="line" smooth="yes"/>
      <point x="714" y="0"/>
      <point x="852" y="240"/>
      <point x="852" y="498" type="curve" smooth="yes"/>
      <point x="852" y="626"/>
      <point x="796" y="732"/>
      <point x="657" y="732" type="curve" smooth="yes"/>
      <point x="429" y="732" type="line" smooth="yes"/>
      <point x="239" y="732"/>
      <point x="109" y="496"/>
    </contour>
  </outline>
</glyph>
<glyph name="twosuperior" format="1">
  <advance width="443"/>
  <unicode hex="00B2"/>
  <note>
    GF Latin Plus glyph
  </note>
  <outline>
    <contour>
      <point x="178" y="759" type="line"/>
      <point x="330" y="759" type="line" smooth="yes"/>
      <point x="404" y="759"/>
      <point x="427" y="734"/>
      <point x="427" y="695" type="curve" smooth="yes"/>
      <point x="427" y="650"/>
      <point x="394" y="593"/>
      <point x="314" y="525" type="curve" smooth="yes"/>
      <point x="92" y="335" type="line"/>
      <point x="83" y="280" type="line"/>
      <point x="452" y="280" type="line"/>
      <point x="463" y="343" type="line"/>
      <point x="187" y="343" type="line"/>
      <point x="364" y="494" type="line" smooth="yes"/>
      <point x="456" y="572"/>
      <point x="494" y="646"/>
      <point x="494" y="712" type="curve" smooth="yes"/>
      <point x="494" y="777"/>
      <point x="456" y="824"/>
      <point x="347" y="824" type="curve" smooth="yes"/>
      <point x="288" y="824"/>
      <point x="231" y="817"/>
      <point x="187" y="813" type="curve"/>
    </contour>
  </outline>
</glyph>
<glyph name="threesuperior" format="1">
  <advance width="437"/>
  <unicode hex="00B3"/>
  <note>
    GF Latin Plus glyph
  </note>
  <outline>
    <contour>
      <point x="169" y="763" type="line"/>
      <point x="326" y="763" type="line" smooth="yes"/>
      <point x="388" y="763"/>
      <point x="421" y="740"/>
      <point x="421" y="698" type="curve" smooth="yes"/>
      <point x="421" y="693"/>
      <point x="420" y="687"/>
      <point x="414" y="649" type="curve" smooth="yes"/>
      <point x="406" y="602"/>
      <point x="369" y="584"/>
      <point x="316" y="582" type="curve" smooth="yes"/>
      <point x="177" y="577" type="line"/>
      <point x="169" y="528" type="line"/>
      <point x="302" y="523" type="line" smooth="yes"/>
      <point x="350" y="521"/>
      <point x="392" y="504"/>
      <point x="392" y="460" type="curve" smooth="yes"/>
      <point x="392" y="455"/>
      <point x="390" y="436"/>
      <point x="385" y="415" type="curve" smooth="yes"/>
      <point x="373" y="353"/>
      <point x="327" y="337"/>
      <point x="264" y="337" type="curve" smooth="yes"/>
      <point x="85" y="337" type="line"/>
      <point x="77" y="287" type="line"/>
      <point x="127" y="279"/>
      <point x="198" y="276"/>
      <point x="277" y="276" type="curve" smooth="yes"/>
      <point x="373" y="276"/>
      <point x="437" y="320"/>
      <point x="450" y="404" type="curve" smooth="yes"/>
      <point x="455" y="435"/>
      <point x="458" y="454"/>
      <point x="458" y="464" type="curve" smooth="yes"/>
      <point x="458" y="519"/>
      <point x="415" y="545"/>
      <point x="387" y="552" type="curve"/>
      <point x="420" y="560"/>
      <point x="470" y="586"/>
      <point x="480" y="651" type="curve" smooth="yes"/>
      <point x="490" y="705"/>
      <point x="490" y="715"/>
      <point x="490" y="722" type="curve" smooth="yes"/>
      <point x="490" y="790"/>
      <point x="446" y="824"/>
      <point x="357" y="824" type="curve" smooth="yes"/>
      <point x="284" y="824"/>
      <point x="225" y="819"/>
      <point x="178" y="813" type="curve"/>
    </contour>
  </outline>
</glyph>
<glyph name="uni00B5" format="1">
  <advance width="582"/>
  <unicode hex="00B5"/>
  <outline>
    <contour>
      <point x="34" y="-270" type="line"/>
      <point x="104" y="171" type="line"/>
      <point x="161" y="532" type="line"/>
      <point x="241" y="532" type="line"/>
      <point x="183" y="170" type="line" smooth="yes"/>
      <point x="172" y="103"/>
      <point x="203" y="55"/>
      <point x="270" y="55" type="curve" smooth="yes"/>
      <point x="341" y="55"/>
      <point x="389" y="72"/>
      <point x="448" y="108" type="curve"/>
      <point x="515" y="532" type="line"/>
      <point x="595" y="532" type="line"/>
      <point x="511" y="1" type="line"/>
      <point x="448" y="1" type="line"/>
      <point x="441" y="59" type="line"/>
      <point x="387" y="28"/>
      <point x="325" y="0"/>
      <point x="262" y="-3" type="curve" smooth="yes"/>
      <point x="214" y="-5"/>
      <point x="181" y="15"/>
      <point x="164" y="45" type="curve"/>
      <point x="114" y="-270" type="line"/>
    </contour>
  </outline>
</glyph>
<glyph name="onesuperior" format="1">
  <advance width="272"/>
  <unicode hex="00B9"/>
  <note>
    GF Latin Plus glyph
  </note>
  <outline>
    <contour>
      <point x="146" y="727" type="line"/>
      <point x="262" y="756" type="line"/>
      <point x="186" y="280" type="line"/>
      <point x="253" y="280" type="line"/>
      <point x="339" y="820" type="line"/>
      <point x="278" y="820" type="line"/>
      <point x="153" y="771" type="line"/>
    </contour>
  </outline>
</glyph>
<glyph name="onequarter" format="1">
  <advance width="954"/>
  <unicode hex="00BC"/>
  <note>
    GF Latin Plus glyph
  </note>
  <outline>
    <contour>
      <point x="534" y="166" type="line"/>
      <point x="757" y="479" type="line"/>
      <point x="821" y="479" type="line"/>
      <point x="619" y="195" type="line"/>
      <point x="817" y="195" type="line"/>
      <point x="834" y="305" type="line"/>
      <point x="855" y="354" type="line"/>
      <point x="900" y="354" type="line"/>
      <point x="875" y="195" type="line"/>
      <point x="928" y="195" type="line"/>
      <point x="921" y="153" type="line"/>
      <point x="865" y="139" type="line"/>
      <point x="844" y="1" type="line"/>
      <point x="787" y="1" type="line"/>
      <point x="808" y="138" type="line"/>
      <point x="542" y="138" type="line"/>
    </contour>
    <contour>
      <point x="209" y="0" type="line"/>
      <point x="711" y="770" type="line"/>
      <point x="770" y="770" type="line"/>
      <point x="269" y="0" type="line"/>
    </contour>
    <contour>
      <point x="112" y="634" type="curve"/>
      <point x="117" y="674" type="line"/>
      <point x="171" y="674"/>
      <point x="246" y="725"/>
      <point x="256" y="737" type="curve"/>
      <point x="315" y="737" type="line"/>
      <point x="239" y="256" type="line"/>
      <point x="179" y="256" type="line"/>
      <point x="245" y="672" type="line"/>
      <point x="225" y="656"/>
      <point x="164" y="634"/>
    </contour>
  </outline>
</glyph>
<glyph name="onehalf" format="1">
  <advance width="978"/>
  <unicode hex="00BD"/>
  <note>
    GF Latin Plus glyph
  </note>
  <outline>
    <contour>
      <point x="579" y="0" type="line"/>
      <point x="587" y="51" type="line"/>
      <point x="657" y="98"/>
      <point x="887" y="251"/>
      <point x="900" y="337" type="curve" smooth="yes"/>
      <point x="910" y="395"/>
      <point x="894" y="432"/>
      <point x="811" y="432" type="curve" smooth="yes"/>
      <point x="644" y="432" type="line" smooth="yes"/>
      <point x="643" y="432"/>
      <point x="650" y="475"/>
      <point x="651" y="474" type="curve"/>
      <point x="715" y="484"/>
      <point x="761" y="486"/>
      <point x="843" y="486" type="curve" smooth="yes"/>
      <point x="944" y="486"/>
      <point x="975" y="419"/>
      <point x="962" y="337" type="curve" smooth="yes"/>
      <point x="945" y="226"/>
      <point x="741" y="87"/>
      <point x="696" y="55" type="curve"/>
      <point x="916" y="55" type="line"/>
      <point x="907" y="0" type="line"/>
    </contour>
    <contour>
      <point x="178" y="0" type="line"/>
      <point x="679" y="770" type="line"/>
      <point x="739" y="770" type="line"/>
      <point x="237" y="0" type="line"/>
    </contour>
    <contour>
      <point x="112" y="634" type="curve"/>
      <point x="117" y="674" type="line"/>
      <point x="171" y="674"/>
      <point x="246" y="725"/>
      <point x="256" y="737" type="curve"/>
      <point x="315" y="737" type="line"/>
      <point x="239" y="256" type="line"/>
      <point x="179" y="256" type="line"/>
      <point x="245" y="672" type="line"/>
      <point x="225" y="656"/>
      <point x="164" y="634"/>
    </contour>
  </outline>
</glyph>
<glyph name="threequarters" format="1">
  <advance width="1064"/>
  <unicode hex="00BE"/>
  <note>
    GF Latin Plus glyph
  </note>
  <outline>
    <contour>
      <point x="620" y="166" type="line"/>
      <point x="845" y="479" type="line"/>
      <point x="909" y="479" type="line"/>
      <point x="705" y="195" type="line"/>
      <point x="904" y="195" type="line"/>
      <point x="922" y="305" type="line"/>
      <point x="943" y="354" type="line"/>
      <point x="987" y="354" type="line"/>
      <point x="962" y="195" type="line"/>
      <point x="1015" y="195" type="line"/>
      <point x="1009" y="153" type="line"/>
      <point x="952" y="139" type="line"/>
      <point x="932" y="1" type="line"/>
      <point x="874" y="1" type="line"/>
      <point x="896" y="138" type="line"/>
      <point x="630" y="138" type="line"/>
    </contour>
    <contour>
      <point x="314" y="0" type="line"/>
      <point x="816" y="770" type="line"/>
      <point x="875" y="770" type="line"/>
      <point x="373" y="0" type="line"/>
    </contour>
    <contour>
      <point x="72" y="266" type="curve"/>
      <point x="78" y="306" type="line"/>
      <point x="244" y="306" type="line" smooth="yes"/>
      <point x="316" y="306"/>
      <point x="348" y="322"/>
      <point x="358" y="385" type="curve"/>
      <point x="360" y="402" type="line"/>
      <point x="368" y="450"/>
      <point x="326" y="469"/>
      <point x="277" y="471" type="curve" smooth="yes"/>
      <point x="145" y="475" type="line"/>
      <point x="152" y="520" type="line"/>
      <point x="281" y="524" type="line" smooth="yes"/>
      <point x="338" y="526"/>
      <point x="386" y="547"/>
      <point x="391" y="588" type="curve" smooth="yes"/>
      <point x="394" y="613" type="line"/>
      <point x="404" y="672"/>
      <point x="360" y="682"/>
      <point x="315" y="682" type="curve" smooth="yes"/>
      <point x="134" y="682" type="line"/>
      <point x="140" y="724" type="line"/>
      <point x="193" y="738"/>
      <point x="270" y="737"/>
      <point x="348" y="737" type="curve" smooth="yes"/>
      <point x="432" y="736"/>
      <point x="465" y="684"/>
      <point x="455" y="617" type="curve" smooth="yes"/>
      <point x="449" y="583" type="line" smooth="yes"/>
      <point x="441" y="529"/>
      <point x="389" y="501"/>
      <point x="359" y="497" type="curve"/>
      <point x="388" y="491"/>
      <point x="428" y="453"/>
      <point x="420" y="393" type="curve"/>
      <point x="415" y="367" type="line" smooth="yes"/>
      <point x="403" y="292"/>
      <point x="361" y="251"/>
      <point x="267" y="251" type="curve" smooth="yes"/>
      <point x="191" y="251"/>
      <point x="118" y="252"/>
    </contour>
  </outline>
</glyph>
<glyph name="AE" format="1">
  <advance width="933"/>
  <unicode hex="00C6"/>
  <note>
    GF Latin Plus glyph
  </note>
  <outline>
    <contour>
      <point x="314" y="277" type="line"/>
      <point x="571" y="617" type="line"/>
      <point x="517" y="277" type="line"/>
    </contour>
    <contour>
      <point x="22" y="0" type="line"/>
      <point x="104" y="0" type="line"/>
      <point x="266" y="208" type="line"/>
      <point x="507" y="208" type="line"/>
      <point x="492" y="115" type="line" smooth="yes"/>
      <point x="480" y="13"/>
      <point x="551" y="-5"/>
      <point x="633" y="-4" type="curve" smooth="yes"/>
      <point x="633" y="-4"/>
      <point x="865" y="2"/>
      <point x="900" y="7" type="curve"/>
      <point x="910" y="70" type="line"/>
      <point x="656" y="70" type="line" smooth="yes"/>
      <point x="609" y="70"/>
      <point x="558" y="78"/>
      <point x="571" y="157" type="curve" smooth="yes"/>
      <point x="599" y="330" type="line"/>
      <point x="909" y="335" type="line"/>
      <point x="919" y="396" type="line"/>
      <point x="609" y="401" type="line"/>
      <point x="635" y="561" type="line" smooth="yes"/>
      <point x="646" y="628"/>
      <point x="644" y="663"/>
      <point x="739" y="663" type="curve" smooth="yes"/>
      <point x="1003" y="663" type="line"/>
      <point x="1014" y="726" type="line"/>
      <point x="977" y="730"/>
      <point x="761" y="736"/>
      <point x="738" y="736" type="curve" smooth="yes"/>
      <point x="619" y="737"/>
      <point x="548" y="697"/>
      <point x="459" y="578" type="curve" smooth="yes"/>
    </contour>
    <contour>
      <point x="632" y="810" type="move" name="top"/>
    </contour>
  </outline>
</glyph>
<glyph name="Thorn" format="1">
  <advance width="550"/>
  <unicode hex="00DE"/>
  <note>
    GF Latin Plus glyph
  </note>
  <outline>
    <contour>
      <point x="266" y="736" type="line"/>
      <point x="189" y="736" type="line"/>
      <point x="72" y="0" type="line"/>
      <point x="151" y="0" type="line"/>
    </contour>
    <contour>
      <point x="211" y="525" type="line"/>
      <point x="372" y="525" type="line" smooth="yes"/>
      <point x="444" y="525"/>
      <point x="486" y="498"/>
      <point x="486" y="426" type="curve" smooth="yes"/>
      <point x="486" y="414"/>
      <point x="483" y="389"/>
      <point x="480" y="370" type="curve" smooth="yes"/>
      <point x="463" y="267"/>
      <point x="397" y="235"/>
      <point x="324" y="235" type="curve" smooth="yes"/>
      <point x="170" y="235" type="line"/>
      <point x="159" y="176" type="line"/>
      <point x="216" y="170"/>
      <point x="273" y="164"/>
      <point x="331" y="164" type="curve" smooth="yes"/>
      <point x="426" y="164"/>
      <point x="534" y="203"/>
      <point x="559" y="363" type="curve" smooth="yes"/>
      <point x="562" y="384"/>
      <point x="566" y="415"/>
      <point x="566" y="433" type="curve" smooth="yes"/>
      <point x="566" y="559"/>
      <point x="488" y="597"/>
      <point x="387" y="597" type="curve" smooth="yes"/>
      <point x="220" y="597" type="line"/>
    </contour>
  </outline>
</glyph>
<glyph name="germandbls" format="1">
  <advance width="584"/>
  <unicode hex="00DF"/>
  <note>
    GF Latin Plus glyph
  </note>
  <outline>
    <contour>
      <point x="66" y="0" type="line"/>
      <point x="145" y="0" type="line"/>
      <point x="229" y="532" type="line" smooth="yes"/>
      <point x="249" y="653"/>
      <point x="302" y="699"/>
      <point x="394" y="699" type="curve" smooth="yes"/>
      <point x="463" y="699"/>
      <point x="506" y="664"/>
      <point x="506" y="605" type="curve" smooth="yes"/>
      <point x="506" y="506"/>
      <point x="346" y="445"/>
      <point x="346" y="342" type="curve" smooth="yes"/>
      <point x="346" y="235"/>
      <point x="499" y="249"/>
      <point x="499" y="172" type="curve" smooth="yes"/>
      <point x="499" y="162"/>
      <point x="498" y="151"/>
      <point x="495" y="133" type="curve" smooth="yes"/>
      <point x="490" y="102"/>
      <point x="468" y="56"/>
      <point x="384" y="56" type="curve" smooth="yes"/>
      <point x="330" y="56"/>
      <point x="278" y="58"/>
      <point x="239" y="60" type="curve"/>
      <point x="231" y="8" type="line"/>
      <point x="263" y="0"/>
      <point x="327" y="-6"/>
      <point x="391" y="-6" type="curve" smooth="yes"/>
      <point x="473" y="-6"/>
      <point x="554" y="30"/>
      <point x="570" y="129" type="curve" smooth="yes"/>
      <point x="577" y="168"/>
      <point x="577" y="179"/>
      <point x="577" y="187" type="curve" smooth="yes"/>
      <point x="577" y="298"/>
      <point x="425" y="285"/>
      <point x="425" y="361" type="curve" smooth="yes"/>
      <point x="425" y="438"/>
      <point x="580" y="495"/>
      <point x="580" y="616" type="curve" smooth="yes"/>
      <point x="580" y="697"/>
      <point x="528" y="769"/>
      <point x="401" y="769" type="curve" smooth="yes"/>
      <point x="255" y="769"/>
      <point x="176" y="694"/>
      <point x="155" y="561" type="curve" smooth="yes"/>
    </contour>
  </outline>
</glyph>
<glyph name="ae" format="1">
  <advance width="898"/>
  <unicode hex="00E6"/>
  <note>
    GF Latin Plus glyph
  </note>
  <outline>
    <contour>
      <point x="521" y="279" type="curve"/>
      <point x="544" y="406"/>
      <point x="576" y="480"/>
      <point x="719" y="480" type="curve" smooth="yes"/>
      <point x="792" y="480"/>
      <point x="832" y="443"/>
      <point x="832" y="379" type="curve" smooth="yes"/>
      <point x="832" y="307"/>
      <point x="764" y="270"/>
      <point x="648" y="270" type="curve" smooth="yes"/>
      <point x="584" y="270"/>
      <point x="525" y="278"/>
    </contour>
    <contour>
      <point x="263" y="60" type="curve" smooth="yes"/>
      <point x="194" y="60"/>
      <point x="165" y="106"/>
      <point x="165" y="188" type="curve" smooth="yes"/>
      <point x="165" y="326"/>
      <point x="207" y="474"/>
      <point x="371" y="474" type="curve" smooth="yes"/>
      <point x="424" y="474"/>
      <point x="476" y="454"/>
      <point x="500" y="441" type="curve"/>
      <point x="452" y="369"/>
      <point x="435" y="264"/>
      <point x="435" y="183" type="curve" smooth="yes"/>
      <point x="435" y="167"/>
      <point x="436" y="151"/>
      <point x="439" y="137" type="curve"/>
      <point x="401" y="101"/>
      <point x="330" y="60"/>
    </contour>
    <contour>
      <point x="238" y="-6" type="curve" smooth="yes"/>
      <point x="321" y="-6"/>
      <point x="402" y="42"/>
      <point x="453" y="83" type="curve"/>
      <point x="473" y="30"/>
      <point x="531" y="-6"/>
      <point x="615" y="-6" type="curve" smooth="yes"/>
      <point x="689" y="-6"/>
      <point x="773" y="-1"/>
      <point x="834" y="7" type="curve"/>
      <point x="842" y="55" type="line"/>
      <point x="640" y="55" type="line" smooth="yes"/>
      <point x="539" y="55"/>
      <point x="512" y="100"/>
      <point x="512" y="178" type="curve" smooth="yes"/>
      <point x="512" y="198"/>
      <point x="513" y="209"/>
      <point x="516" y="236" type="curve"/>
      <point x="532" y="230"/>
      <point x="604" y="221"/>
      <point x="673" y="221" type="curve" smooth="yes"/>
      <point x="823" y="221"/>
      <point x="908" y="287"/>
      <point x="908" y="388" type="curve" smooth="yes"/>
      <point x="908" y="491"/>
      <point x="841" y="542"/>
      <point x="713" y="542" type="curve" smooth="yes"/>
      <point x="657" y="542"/>
      <point x="584" y="527"/>
      <point x="544" y="492" type="curve"/>
      <point x="498" y="524"/>
      <point x="421" y="540"/>
      <point x="366" y="540" type="curve" smooth="yes"/>
      <point x="171" y="540"/>
      <point x="86" y="388"/>
      <point x="86" y="174" type="curve" smooth="yes"/>
      <point x="86" y="45"/>
      <point x="150" y="-6"/>
    </contour>
    <contour>
      <point x="548" y="650" type="move" name="top"/>
    </contour>
  </outline>
</glyph>
<glyph name="eth" format="1">
  <advance width="566"/>
  <unicode hex="00F0"/>
  <note>
    GF Latin Plus glyph
  </note>
  <outline>
    <contour>
      <point x="558" y="265" type="line"/>
      <point x="568" y="332"/>
      <point x="573" y="392"/>
      <point x="573" y="444" type="curve" smooth="yes"/>
      <point x="573" y="671"/>
      <point x="450" y="762"/>
      <point x="244" y="763" type="curve"/>
      <point x="235" y="708" type="line"/>
      <point x="406" y="706"/>
      <point x="507" y="640"/>
      <point x="507" y="444" type="curve" smooth="yes"/>
      <point x="507" y="399"/>
      <point x="503" y="348"/>
      <point x="495" y="290" type="curve"/>
    </contour>
    <contour>
      <point x="267" y="627" type="line"/>
      <point x="275" y="599" type="line"/>
      <point x="623" y="733" type="line"/>
      <point x="616" y="761" type="line"/>
    </contour>
    <component base="o"/>
  </outline>
</glyph>
<glyph name="divide" format="1">
  <advance width="609"/>
  <unicode hex="00F7"/>
  <note>
    GF Latin Plus glyph
  </note>
  <outline>
    <contour>
      <point x="343" y="530" type="line" smooth="yes"/>
      <point x="340" y="516"/>
      <point x="349" y="507"/>
      <point x="363" y="507" type="curve" smooth="yes"/>
      <point x="408" y="507" type="line" smooth="yes"/>
      <point x="422" y="507"/>
      <point x="433" y="512"/>
      <point x="436" y="530" type="curve" smooth="yes"/>
      <point x="444" y="579" type="line" smooth="yes"/>
      <point x="446" y="595"/>
      <point x="441" y="604"/>
      <point x="423" y="604" type="curve" smooth="yes"/>
      <point x="379" y="604" type="line" smooth="yes"/>
      <point x="363" y="604"/>
      <point x="353" y="594"/>
      <point x="351" y="579" type="curve" smooth="yes"/>
    </contour>
    <contour>
      <point x="279" y="131" type="line" smooth="yes"/>
      <point x="277" y="117"/>
      <point x="285" y="108"/>
      <point x="299" y="108" type="curve" smooth="yes"/>
      <point x="344" y="108" type="line" smooth="yes"/>
      <point x="358" y="108"/>
      <point x="370" y="113"/>
      <point x="373" y="131" type="curve" smooth="yes"/>
      <point x="381" y="181" type="line" smooth="yes"/>
      <point x="384" y="197"/>
      <point x="378" y="206"/>
      <point x="360" y="206" type="curve" smooth="yes"/>
      <point x="315" y="206" type="line" smooth="yes"/>
      <point x="299" y="206"/>
      <point x="290" y="196"/>
      <point x="287" y="181" type="curve" smooth="yes"/>
    </contour>
    <component base="minus"/>
  </outline>
</glyph>
<glyph name="thorn" format="1">
  <advance width="567"/>
  <unicode hex="00FE"/>
  <note>
    GF Latin Plus glyph
  </note>
  <outline>
    <contour>
      <point x="30" y="-237" type="line"/>
      <point x="110" y="-237" type="line"/>
      <point x="151" y="25" type="line"/>
      <point x="197" y="2"/>
      <point x="247" y="-6"/>
      <point x="306" y="-6" type="curve" smooth="yes"/>
      <point x="453" y="-6"/>
      <point x="529" y="90"/>
      <point x="555" y="254" type="curve" smooth="yes"/>
      <point x="560" y="285"/>
      <point x="565" y="322"/>
      <point x="565" y="357" type="curve" smooth="yes"/>
      <point x="565" y="480"/>
      <point x="509" y="540"/>
      <point x="394" y="540" type="curve" smooth="yes"/>
      <point x="327" y="540"/>
      <point x="272" y="538"/>
      <point x="232" y="534" type="curve"/>
      <point x="269" y="763" type="line"/>
      <point x="189" y="763" type="line"/>
    </contour>
    <contour>
      <point x="161" y="87" type="curve"/>
      <point x="222" y="473" type="line"/>
      <point x="375" y="474" type="line" smooth="yes"/>
      <point x="452" y="475"/>
      <point x="487" y="430"/>
      <point x="487" y="345" type="curve" smooth="yes"/>
      <point x="487" y="319"/>
      <point x="482" y="291"/>
      <point x="479" y="270" type="curve" smooth="yes"/>
      <point x="456" y="132"/>
      <point x="411" y="62"/>
      <point x="299" y="62" type="curve" smooth="yes"/>
      <point x="242" y="62"/>
      <point x="215" y="69"/>
    </contour>
  </outline>
</glyph>
<glyph name="kgreenlandic" format="1">
  <advance width="526"/>
  <unicode hex="0138"/>
  <note>
    GF Latin Plus glyph
  </note>
  <outline>
    <contour>
      <point x="68" y="0" type="line"/>
      <point x="147" y="0" type="line"/>
      <point x="186" y="244" type="line"/>
      <point x="210" y="244"/>
      <point x="249" y="248"/>
      <point x="278" y="256" type="curve"/>
      <point x="422" y="0" type="line"/>
      <point x="505" y="0" type="line"/>
      <point x="347" y="281" type="line"/>
      <point x="418" y="316"/>
      <point x="490" y="382"/>
      <point x="533" y="534" type="curve"/>
      <point x="453" y="534" type="line"/>
      <point x="407" y="374"/>
      <point x="317" y="313"/>
      <point x="196" y="306" type="curve"/>
      <point x="232" y="534" type="line"/>
      <point x="152" y="534" type="line"/>
    </contour>
  </outline>
</glyph>
<glyph name="Schwa" format="1">
  <advance width="608"/>
  <unicode hex="018F"/>
  <note>
    GF Latin Plus glyph
  </note>
  <outline>
    <contour>
      <point x="298" y="-6" type="curve" smooth="yes"/>
      <point x="449" y="-6"/>
      <point x="560" y="67"/>
      <point x="609" y="370" type="curve" smooth="yes"/>
      <point x="618" y="431"/>
      <point x="623" y="482"/>
      <point x="623" y="525" type="curve" smooth="yes"/>
      <point x="623" y="700"/>
      <point x="537" y="742"/>
      <point x="387" y="742" type="curve" smooth="yes"/>
      <point x="310" y="742"/>
      <point x="246" y="730"/>
      <point x="201" y="718" type="curve"/>
      <point x="191" y="658" type="line"/>
      <point x="222" y="662"/>
      <point x="270" y="671"/>
      <point x="350" y="671" type="curve" smooth="yes"/>
      <point x="485" y="671"/>
      <point x="543" y="639"/>
      <point x="543" y="516" type="curve" smooth="yes"/>
      <point x="543" y="482"/>
      <point x="539" y="441"/>
      <point x="531" y="390" type="curve"/>
      <point x="121" y="390" type="line"/>
      <point x="111" y="333" type="line" smooth="yes"/>
      <point x="103" y="284"/>
      <point x="100" y="241"/>
      <point x="100" y="205" type="curve" smooth="yes"/>
      <point x="100" y="53"/>
      <point x="168" y="-6"/>
    </contour>
    <contour>
      <point x="307" y="65" type="curve" smooth="yes"/>
      <point x="214" y="65"/>
      <point x="179" y="109"/>
      <point x="179" y="209" type="curve" smooth="yes"/>
      <point x="179" y="241"/>
      <point x="183" y="279"/>
      <point x="190" y="325" type="curve"/>
      <point x="519" y="325" type="line"/>
      <point x="478" y="119"/>
      <point x="414" y="65"/>
    </contour>
  </outline>
</glyph>
<glyph name="tilde" format="1">
  <advance width="451"/>
  <unicode hex="02DC"/>
  <note>
    GF Latin Plus glyph
  </note>
  <outline>
    <contour>
      <point x="154" y="649" type="curve"/>
      <point x="195" y="649" type="line"/>
      <point x="202" y="689"/>
      <point x="231" y="709"/>
      <point x="262" y="709" type="curve" smooth="yes"/>
      <point x="313" y="709"/>
      <point x="355" y="650"/>
      <point x="413" y="650" type="curve" smooth="yes"/>
      <point x="472" y="650"/>
      <point x="509" y="688"/>
      <point x="523" y="756" type="curve"/>
      <point x="483" y="756" type="line"/>
      <point x="476" y="717"/>
      <point x="450" y="695"/>
      <point x="415" y="695" type="curve" smooth="yes"/>
      <point x="366" y="695"/>
      <point x="328" y="754"/>
      <point x="266" y="754" type="curve" smooth="yes"/>
      <point x="218" y="754"/>
      <point x="169" y="728"/>
    </contour>
  </outline>
</glyph>
<glyph name="uni0338" format="1">
  <advance width="638"/>
  <unicode hex="0338"/>
  <outline>
    <contour>
      <point x="182" y="104" type="line"/>
      <point x="201" y="83"/>
      <point x="231" y="73"/>
      <point x="268" y="73" type="curve" smooth="yes"/>
      <point x="372" y="73" type="line" smooth="yes"/>
      <point x="453" y="73"/>
      <point x="493" y="110"/>
      <point x="504" y="185" type="curve" smooth="yes"/>
      <point x="557" y="514" type="line" smooth="yes"/>
      <point x="561" y="538"/>
      <point x="561" y="570"/>
      <point x="553" y="585" type="curve"/>
    </contour>
    <contour>
      <point x="173" y="224" type="line" smooth="yes"/>
      <point x="170" y="202"/>
      <point x="170" y="168"/>
      <point x="177" y="154" type="curve"/>
      <point x="547" y="631" type="line"/>
      <point x="531" y="650"/>
      <point x="505" y="659"/>
      <point x="467" y="659" type="curve" smooth="yes"/>
      <point x="358" y="659" type="line" smooth="yes"/>
      <point x="281" y="659"/>
      <point x="235" y="611"/>
      <point x="225" y="547" type="curve" smooth="yes"/>
    </contour>
    <contour>
      <point x="86" y="182" type="curve" smooth="yes"/>
      <point x="146" y="566" type="line" smooth="yes"/>
      <point x="164" y="681"/>
      <point x="249" y="732"/>
      <point x="353" y="732" type="curve" smooth="yes"/>
      <point x="497" y="732" type="line" smooth="yes"/>
      <point x="627" y="732"/>
      <point x="657" y="647"/>
      <point x="642" y="552" type="curve" smooth="yes"/>
      <point x="581" y="159" type="line" smooth="yes"/>
      <point x="563" y="40"/>
      <point x="487" y="0"/>
      <point x="381" y="0" type="curve" smooth="yes"/>
      <point x="237" y="0" type="line" smooth="yes"/>
      <point x="133" y="0"/>
      <point x="68" y="62"/>
    </contour>
  </outline>
</glyph>
<glyph name="uni1E02" format="1">
  <advance width="590"/>
  <unicode hex="1E02"/>
  <outline>
    <contour>
      <point x="394" y="809" type="curve" smooth="yes"/>
      <point x="404" y="871" type="line" smooth="yes"/>
      <point x="405" y="879"/>
      <point x="410" y="883"/>
      <point x="418" y="883" type="curve" smooth="yes"/>
      <point x="429" y="883" type="line" smooth="yes"/>
      <point x="437" y="883"/>
      <point x="440" y="878"/>
      <point x="439" y="871" type="curve" smooth="yes"/>
      <point x="429" y="809" type="line" smooth="yes"/>
      <point x="428" y="801"/>
      <point x="422" y="797"/>
      <point x="415" y="797" type="curve" smooth="yes"/>
      <point x="404" y="797" type="line" smooth="yes"/>
      <point x="397" y="797"/>
      <point x="393" y="802"/>
    </contour>
    <contour>
      <point x="167" y="395" type="line"/>
      <point x="396" y="395" type="line" smooth="yes"/>
      <point x="489" y="395"/>
      <point x="566" y="457"/>
      <point x="586" y="555" type="curve" smooth="yes"/>
      <point x="610" y="675"/>
      <point x="555" y="708"/>
      <point x="445" y="708" type="curve" smooth="yes"/>
      <point x="216" y="708" type="line"/>
    </contour>
    <contour>
      <point x="108" y="25" type="line"/>
      <point x="337" y="25" type="line" smooth="yes"/>
      <point x="416" y="25"/>
      <point x="511" y="54"/>
      <point x="535" y="204" type="curve" smooth="yes"/>
      <point x="550" y="296"/>
      <point x="484" y="373"/>
      <point x="392" y="371" type="curve"/>
      <point x="163" y="371" type="line"/>
    </contour>
    <contour>
      <point x="80" y="0" type="line"/>
      <point x="196" y="732" type="line"/>
      <point x="449" y="732" type="line" smooth="yes"/>
      <point x="597" y="732"/>
      <point x="628" y="665"/>
      <point x="611" y="558" type="curve" smooth="yes"/>
      <point x="596" y="462"/>
      <point x="519" y="391"/>
      <point x="455" y="384" type="curve"/>
      <point x="497" y="374"/>
      <point x="576" y="311"/>
      <point x="558" y="197" type="curve" smooth="yes"/>
      <point x="542" y="95"/>
      <point x="487" y="0"/>
      <point x="333" y="0" type="curve" smooth="yes"/>
    </contour>
  </outline>
</glyph>
<glyph name="uni1E0A" format="1">
  <advance width="646"/>
  <unicode hex="1E0A"/>
  <outline>
    <contour>
      <point x="352" y="805" type="curve" smooth="yes"/>
      <point x="367" y="899" type="line" smooth="yes"/>
      <point x="369" y="914"/>
      <point x="379" y="924"/>
      <point x="395" y="924" type="curve" smooth="yes"/>
      <point x="485" y="924" type="line" smooth="yes"/>
      <point x="500" y="924"/>
      <point x="506" y="913"/>
      <point x="504" y="899" type="curve" smooth="yes"/>
      <point x="489" y="805" type="line" smooth="yes"/>
      <point x="487" y="790"/>
      <point x="477" y="782"/>
      <point x="463" y="782" type="curve" smooth="yes"/>
      <point x="373" y="782" type="line" smooth="yes"/>
      <point x="359" y="782"/>
      <point x="350" y="791"/>
    </contour>
    <contour>
      <point x="265" y="164" type="line"/>
      <point x="369" y="164" type="line" smooth="yes"/>
      <point x="433" y="164"/>
      <point x="459" y="223"/>
      <point x="481" y="364" type="curve" smooth="yes"/>
      <point x="510" y="545"/>
      <point x="481" y="568"/>
      <point x="423" y="568" type="curve" smooth="yes"/>
      <point x="329" y="568" type="line"/>
    </contour>
    <contour>
      <point x="45" y="0" type="line"/>
      <point x="161" y="732" type="line"/>
      <point x="477" y="732" type="line" smooth="yes"/>
      <point x="676" y="732"/>
      <point x="707" y="557"/>
      <point x="674" y="333" type="curve" smooth="yes"/>
      <point x="633" y="53"/>
      <point x="545" y="0"/>
      <point x="378" y="0" type="curve" smooth="yes"/>
    </contour>
  </outline>
</glyph>
<glyph name="uni1E1F" format="1">
  <advance width="406"/>
  <unicode hex="1E1F"/>
  <outline>
    <contour>
      <point x="316" y="869" type="curve" smooth="yes"/>
      <point x="331" y="963" type="line" smooth="yes"/>
      <point x="333" y="978"/>
      <point x="343" y="988"/>
      <point x="359" y="988" type="curve" smooth="yes"/>
      <point x="449" y="988" type="line" smooth="yes"/>
      <point x="464" y="988"/>
      <point x="470" y="977"/>
      <point x="468" y="963" type="curve" smooth="yes"/>
      <point x="453" y="869" type="line" smooth="yes"/>
      <point x="451" y="854"/>
      <point x="441" y="846"/>
      <point x="427" y="846" type="curve" smooth="yes"/>
      <point x="337" y="846" type="line" smooth="yes"/>
      <point x="323" y="846"/>
      <point x="314" y="855"/>
    </contour>
    <contour>
      <point x="73" y="397" type="line"/>
      <point x="92" y="514" type="line"/>
      <point x="166" y="531" type="line"/>
      <point x="182" y="630" type="line" smooth="yes"/>
      <point x="201" y="751"/>
      <point x="271" y="786"/>
      <point x="391" y="786" type="curve" smooth="yes"/>
      <point x="440" y="786"/>
      <point x="480" y="782"/>
      <point x="516" y="762" type="curve"/>
      <point x="498" y="651" type="line" smooth="yes"/>
      <point x="497" y="651"/>
      <point x="425" y="652"/>
      <point x="425" y="652" type="curve" smooth="yes"/>
      <point x="375" y="653"/>
      <point x="376" y="632"/>
      <point x="366" y="570" type="curve" smooth="yes"/>
      <point x="360" y="531" type="line"/>
      <point x="458" y="531" type="line"/>
      <point x="437" y="397" type="line"/>
      <point x="339" y="397" type="line"/>
      <point x="276" y="0" type="line"/>
      <point x="82" y="0" type="line"/>
      <point x="145" y="397" type="line"/>
    </contour>
  </outline>
</glyph>
<glyph name="uni1E40" format="1">
  <advance width="770"/>
  <unicode hex="1E40"/>
  <outline>
    <contour>
      <point x="511" y="809" type="curve" smooth="yes"/>
      <point x="521" y="871" type="line" smooth="yes"/>
      <point x="522" y="879"/>
      <point x="527" y="883"/>
      <point x="535" y="883" type="curve" smooth="yes"/>
      <point x="546" y="883" type="line" smooth="yes"/>
      <point x="554" y="883"/>
      <point x="557" y="878"/>
      <point x="556" y="871" type="curve" smooth="yes"/>
      <point x="546" y="809" type="line" smooth="yes"/>
      <point x="545" y="801"/>
      <point x="539" y="797"/>
      <point x="532" y="797" type="curve" smooth="yes"/>
      <point x="521" y="797" type="line" smooth="yes"/>
      <point x="514" y="797"/>
      <point x="510" y="802"/>
    </contour>
    <contour>
      <point x="71" y="0" type="line"/>
      <point x="268" y="732" type="line"/>
      <point x="302" y="732" type="line"/>
      <point x="407" y="41" type="line"/>
      <point x="725" y="732" type="line"/>
      <point x="764" y="732" type="line"/>
      <point x="732" y="0" type="line"/>
      <point x="707" y="0" type="line"/>
      <point x="739" y="701" type="line"/>
      <point x="415" y="0" type="line"/>
      <point x="387" y="0" type="line"/>
      <point x="284" y="696" type="line"/>
      <point x="96" y="0" type="line"/>
    </contour>
  </outline>
</glyph>
<glyph name="uni1E41" format="1">
  <advance width="857"/>
  <unicode hex="1E41"/>
  <outline>
    <contour>
      <point x="442" y="623" type="curve" smooth="yes"/>
      <point x="457" y="717" type="line" smooth="yes"/>
      <point x="459" y="732"/>
      <point x="469" y="742"/>
      <point x="485" y="742" type="curve" smooth="yes"/>
      <point x="575" y="742" type="line" smooth="yes"/>
      <point x="590" y="742"/>
      <point x="596" y="731"/>
      <point x="594" y="717" type="curve" smooth="yes"/>
      <point x="579" y="623" type="line" smooth="yes"/>
      <point x="577" y="608"/>
      <point x="567" y="600"/>
      <point x="553" y="600" type="curve" smooth="yes"/>
      <point x="463" y="600" type="line" smooth="yes"/>
      <point x="449" y="600"/>
      <point x="440" y="609"/>
    </contour>
    <contour>
      <point x="34" y="0" type="line"/>
      <point x="118" y="531" type="line"/>
      <point x="280" y="531" type="line"/>
      <point x="304" y="479" type="line"/>
      <point x="346" y="512"/>
      <point x="379" y="540"/>
      <point x="460" y="540" type="curve" smooth="yes"/>
      <point x="530" y="540"/>
      <point x="565" y="517"/>
      <point x="580" y="479" type="curve"/>
      <point x="628" y="507"/>
      <point x="685" y="540"/>
      <point x="762" y="540" type="curve" smooth="yes"/>
      <point x="900" y="540"/>
      <point x="902" y="452"/>
      <point x="884" y="340" type="curve" smooth="yes"/>
      <point x="830" y="0" type="line"/>
      <point x="636" y="0" type="line"/>
      <point x="691" y="344" type="line" smooth="yes"/>
      <point x="698" y="386"/>
      <point x="688" y="396"/>
      <point x="666" y="396" type="curve" smooth="yes"/>
      <point x="633" y="396"/>
      <point x="603" y="388"/>
      <point x="586" y="366" type="curve"/>
      <point x="585" y="358"/>
      <point x="583" y="349"/>
      <point x="582" y="340" type="curve" smooth="yes"/>
      <point x="528" y="0" type="line"/>
      <point x="334" y="0" type="line"/>
      <point x="388" y="344" type="line" smooth="yes"/>
      <point x="395" y="386"/>
      <point x="386" y="396"/>
      <point x="364" y="396" type="curve" smooth="yes"/>
      <point x="327" y="396"/>
      <point x="301" y="386"/>
      <point x="285" y="359" type="curve"/>
      <point x="228" y="0" type="line"/>
    </contour>
  </outline>
</glyph>
<glyph name="uni1E56" format="1">
  <advance width="600"/>
  <unicode hex="1E56"/>
  <outline>
    <contour>
      <point x="351" y="820" type="curve" smooth="yes"/>
      <point x="366" y="914" type="line" smooth="yes"/>
      <point x="368" y="929"/>
      <point x="378" y="939"/>
      <point x="394" y="939" type="curve" smooth="yes"/>
      <point x="484" y="939" type="line" smooth="yes"/>
      <point x="499" y="939"/>
      <point x="505" y="928"/>
      <point x="503" y="914" type="curve" smooth="yes"/>
      <point x="488" y="820" type="line" smooth="yes"/>
      <point x="486" y="805"/>
      <point x="476" y="797"/>
      <point x="462" y="797" type="curve" smooth="yes"/>
      <point x="372" y="797" type="line" smooth="yes"/>
      <point x="358" y="797"/>
      <point x="349" y="806"/>
    </contour>
    <contour>
      <point x="303" y="412" type="line"/>
      <point x="395" y="412" type="line" smooth="yes"/>
      <point x="433" y="412"/>
      <point x="451" y="441"/>
      <point x="459" y="492" type="curve" smooth="yes"/>
      <point x="467" y="542"/>
      <point x="455" y="567"/>
      <point x="420" y="567" type="curve" smooth="yes"/>
      <point x="328" y="567" type="line"/>
    </contour>
    <contour>
      <point x="44" y="0" type="line"/>
      <point x="160" y="732" type="line"/>
      <point x="466" y="732" type="line" smooth="yes"/>
      <point x="568" y="732"/>
      <point x="688" y="677"/>
      <point x="654" y="465" type="curve" smooth="yes"/>
      <point x="617" y="230"/>
      <point x="480" y="241"/>
      <point x="389" y="248" type="curve" smooth="yes"/>
      <point x="349" y="251"/>
      <point x="285" y="265"/>
      <point x="280" y="268" type="curve"/>
      <point x="238" y="0" type="line"/>
    </contour>
  </outline>
</glyph>
<glyph name="uni1E57" format="1">
  <advance width="555"/>
  <unicode hex="1E57"/>
  <outline>
    <contour>
      <point x="286" y="630" type="curve" smooth="yes"/>
      <point x="301" y="724" type="line" smooth="yes"/>
      <point x="303" y="739"/>
      <point x="313" y="749"/>
      <point x="329" y="749" type="curve" smooth="yes"/>
      <point x="419" y="749" type="line" smooth="yes"/>
      <point x="434" y="749"/>
      <point x="440" y="738"/>
      <point x="438" y="724" type="curve" smooth="yes"/>
      <point x="423" y="630" type="line" smooth="yes"/>
      <point x="421" y="615"/>
      <point x="411" y="607"/>
      <point x="397" y="607" type="curve" smooth="yes"/>
      <point x="307" y="607" type="line" smooth="yes"/>
      <point x="293" y="607"/>
      <point x="284" y="616"/>
    </contour>
    <contour>
      <point x="252" y="149" type="line"/>
      <point x="262" y="134"/>
      <point x="278" y="130"/>
      <point x="298" y="130" type="curve" smooth="yes"/>
      <point x="350" y="130"/>
      <point x="360" y="163"/>
      <point x="378" y="275" type="curve" smooth="yes"/>
      <point x="388" y="335"/>
      <point x="398" y="403"/>
      <point x="340" y="403" type="curve" smooth="yes"/>
      <point x="293" y="403" type="line"/>
    </contour>
    <contour>
      <point x="-8" y="-270" type="line"/>
      <point x="114" y="501" type="line"/>
      <point x="171" y="523"/>
      <point x="305" y="537"/>
      <point x="411" y="537" type="curve" smooth="yes"/>
      <point x="536" y="537"/>
      <point x="603" y="438"/>
      <point x="571" y="238" type="curve" smooth="yes"/>
      <point x="541" y="46"/>
      <point x="477" y="-10"/>
      <point x="324" y="-10" type="curve" smooth="yes"/>
      <point x="279" y="-10"/>
      <point x="250" y="0"/>
      <point x="233" y="29" type="curve"/>
      <point x="186" y="-270" type="line"/>
    </contour>
  </outline>
</glyph>
<glyph name="uni1E60" format="1">
  <advance width="565"/>
  <unicode hex="1E60"/>
  <outline>
    <contour>
      <point x="384" y="810" type="curve" smooth="yes"/>
      <point x="394" y="872" type="line" smooth="yes"/>
      <point x="395" y="880"/>
      <point x="400" y="884"/>
      <point x="408" y="884" type="curve" smooth="yes"/>
      <point x="419" y="884" type="line" smooth="yes"/>
      <point x="427" y="884"/>
      <point x="430" y="879"/>
      <point x="429" y="872" type="curve" smooth="yes"/>
      <point x="419" y="810" type="line" smooth="yes"/>
      <point x="418" y="802"/>
      <point x="412" y="798"/>
      <point x="405" y="798" type="curve" smooth="yes"/>
      <point x="394" y="798" type="line" smooth="yes"/>
      <point x="387" y="798"/>
      <point x="383" y="803"/>
    </contour>
    <contour>
      <point x="79" y="7" type="curve"/>
      <point x="81" y="22" type="line"/>
      <point x="124" y="18"/>
      <point x="225" y="16"/>
      <point x="318" y="16" type="curve" smooth="yes"/>
      <point x="408" y="16"/>
      <point x="490" y="39"/>
      <point x="508" y="156" type="curve" smooth="yes"/>
      <point x="518" y="224" type="line" smooth="yes"/>
      <point x="531" y="309"/>
      <point x="500" y="347"/>
      <point x="400" y="347" type="curve" smooth="yes"/>
      <point x="288" y="347" type="line" smooth="yes"/>
      <point x="133" y="347"/>
      <point x="126" y="420"/>
      <point x="138" y="498" type="curve" smooth="yes"/>
      <point x="149" y="564" type="line"/>
      <point x="172" y="709"/>
      <point x="258" y="738"/>
      <point x="370" y="738" type="curve" smooth="yes"/>
      <point x="423" y="738"/>
      <point x="541" y="727"/>
      <point x="589" y="719" type="curve"/>
      <point x="587" y="706" type="line"/>
      <point x="524" y="710"/>
      <point x="366" y="714"/>
      <point x="366" y="714" type="curve" smooth="yes"/>
      <point x="261" y="718"/>
      <point x="192" y="681"/>
      <point x="173" y="560" type="curve"/>
      <point x="162" y="494" type="line"/>
      <point x="146" y="390"/>
      <point x="198" y="371"/>
      <point x="290" y="371" type="curve" smooth="yes"/>
      <point x="404" y="371" type="line" smooth="yes"/>
      <point x="537" y="371"/>
      <point x="555" y="301"/>
      <point x="542" y="219" type="curve" smooth="yes"/>
      <point x="532" y="151" type="line"/>
      <point x="510" y="9"/>
      <point x="411" y="-8"/>
      <point x="312" y="-8" type="curve" smooth="yes"/>
      <point x="263" y="-8"/>
      <point x="124" y="-1"/>
    </contour>
  </outline>
</glyph>
<glyph name="Germandbls" format="1">
  <advance width="671"/>
  <unicode hex="1E9E"/>
  <note>
    GF Latin Plus glyph
  </note>
  <outline>
    <contour>
      <point x="430" y="379" type="line"/>
      <point x="676" y="667" type="line"/>
      <point x="686" y="729" type="line"/>
      <point x="588" y="666" type="line"/>
      <point x="358" y="395" type="line"/>
    </contour>
    <contour>
      <point x="348" y="329" type="line"/>
      <point x="472" y="329" type="line" smooth="yes"/>
      <point x="542" y="329"/>
      <point x="570" y="301"/>
      <point x="570" y="251" type="curve" smooth="yes"/>
      <point x="570" y="242"/>
      <point x="569" y="233"/>
      <point x="560" y="176" type="curve" smooth="yes"/>
      <point x="546" y="85"/>
      <point x="475" y="65"/>
      <point x="389" y="65" type="curve" smooth="yes"/>
      <point x="340" y="65"/>
      <point x="284" y="70"/>
      <point x="254" y="76" type="curve"/>
      <point x="244" y="8" type="line"/>
      <point x="276" y="1"/>
      <point x="351" y="-6"/>
      <point x="387" y="-6" type="curve" smooth="yes"/>
      <point x="510" y="-6"/>
      <point x="615" y="28"/>
      <point x="639" y="169" type="curve" smooth="yes"/>
      <point x="650" y="236"/>
      <point x="652" y="252"/>
      <point x="652" y="265" type="curve" smooth="yes"/>
      <point x="652" y="349"/>
      <point x="595" y="395"/>
      <point x="493" y="395" type="curve" smooth="yes"/>
      <point x="358" y="395" type="line"/>
    </contour>
    <contour>
      <point x="77" y="0" type="line"/>
      <point x="157" y="0" type="line"/>
      <point x="248" y="576" type="line" smooth="yes"/>
      <point x="257" y="635"/>
      <point x="294" y="664"/>
      <point x="349" y="664" type="curve" smooth="yes"/>
      <point x="645" y="664" type="line"/>
      <point x="686" y="729" type="line"/>
      <point x="655" y="730"/>
      <point x="408" y="736"/>
      <point x="358" y="736" type="curve" smooth="yes"/>
      <point x="266" y="736"/>
      <point x="187" y="692"/>
      <point x="168" y="575" type="curve" smooth="yes"/>
    </contour>
  </outline>
</glyph>
<glyph name="quoteright" format="1">
  <advance width="186"/>
  <unicode hex="2019"/>
  <note>
    GF Latin Plus glyph
  </note>
  <outline>
    <contour>
      <point x="155" y="647" type="line" smooth="yes"/>
      <point x="154" y="646"/>
      <point x="154" y="645"/>
      <point x="154" y="643" type="curve" smooth="yes"/>
      <point x="154" y="634"/>
      <point x="160" y="628"/>
      <point x="169" y="628" type="curve" smooth="yes"/>
      <point x="177" y="628" type="line"/>
      <point x="170" y="578" type="line" smooth="yes"/>
      <point x="167" y="566"/>
      <point x="162" y="555"/>
      <point x="143" y="555" type="curve"/>
      <point x="138" y="527" type="line"/>
      <point x="144" y="526"/>
      <point x="148" y="525"/>
      <point x="157" y="525" type="curve" smooth="yes"/>
      <point x="180" y="525"/>
      <point x="215" y="534"/>
      <point x="223" y="584" type="curve" smooth="yes"/>
      <point x="246" y="727" type="line" smooth="yes"/>
      <point x="246" y="729"/>
      <point x="246" y="731"/>
      <point x="246" y="733" type="curve" smooth="yes"/>
      <point x="246" y="741"/>
      <point x="243" y="747"/>
      <point x="235" y="747" type="curve" smooth="yes"/>
      <point x="187" y="747" type="line" smooth="yes"/>
      <point x="175" y="747"/>
      <point x="169" y="740"/>
      <point x="167" y="727" type="curve" smooth="yes"/>
    </contour>
  </outline>
</glyph>
<glyph name="quotesinglbase" format="1">
  <advance width="186"/>
  <unicode hex="201A"/>
  <note>
    GF Latin Plus glyph
  </note>
  <outline>
    <contour>
      <point x="54" y="13" type="line" smooth="yes"/>
      <point x="54" y="12"/>
      <point x="54" y="10"/>
      <point x="54" y="9" type="curve" smooth="yes"/>
      <point x="54" y="-1"/>
      <point x="60" y="-6"/>
      <point x="68" y="-6" type="curve" smooth="yes"/>
      <point x="77" y="-6" type="line"/>
      <point x="69" y="-56" type="line" smooth="yes"/>
      <point x="67" y="-69"/>
      <point x="61" y="-79"/>
      <point x="42" y="-79" type="curve"/>
      <point x="38" y="-107" type="line"/>
      <point x="40" y="-108"/>
      <point x="48" y="-109"/>
      <point x="57" y="-109" type="curve" smooth="yes"/>
      <point x="79" y="-109"/>
      <point x="115" y="-101"/>
      <point x="123" y="-50" type="curve" smooth="yes"/>
      <point x="146" y="93" type="line" smooth="yes"/>
      <point x="146" y="95"/>
      <point x="146" y="97"/>
      <point x="146" y="99" type="curve" smooth="yes"/>
      <point x="146" y="107"/>
      <point x="143" y="112"/>
      <point x="134" y="112" type="curve" smooth="yes"/>
      <point x="87" y="112" type="line" smooth="yes"/>
      <point x="75" y="112"/>
      <point x="68" y="106"/>
      <point x="67" y="93" type="curve" smooth="yes"/>
    </contour>
  </outline>
</glyph>
<glyph name="bullet" format="1">
  <advance width="327"/>
  <unicode hex="2022"/>
  <note>
    GF Latin Plus glyph
  </note>
  <outline>
    <contour>
      <point x="125" y="347" type="line" smooth="yes"/>
      <point x="122" y="327"/>
      <point x="132" y="315"/>
      <point x="152" y="315" type="curve" smooth="yes"/>
      <point x="215" y="315" type="line" smooth="yes"/>
      <point x="235" y="315"/>
      <point x="252" y="323"/>
      <point x="256" y="347" type="curve" smooth="yes"/>
      <point x="267" y="416" type="line" smooth="yes"/>
      <point x="271" y="438"/>
      <point x="263" y="451"/>
      <point x="238" y="451" type="curve" smooth="yes"/>
      <point x="175" y="451" type="line" smooth="yes"/>
      <point x="153" y="451"/>
      <point x="139" y="437"/>
      <point x="136" y="416" type="curve" smooth="yes"/>
    </contour>
  </outline>
</glyph>
<glyph name="zerosuperior" format="1">
  <advance width="419"/>
  <unicode hex="2070"/>
  <outline>
    <contour>
      <point x="183" y="481" type="curve" smooth="yes"/>
      <point x="220" y="719" type="line" smooth="yes"/>
      <point x="227" y="764"/>
      <point x="259" y="789"/>
      <point x="303" y="789" type="curve" smooth="yes"/>
      <point x="367" y="789" type="line" smooth="yes"/>
      <point x="411" y="789"/>
      <point x="427" y="772"/>
      <point x="427" y="737" type="curve" smooth="yes"/>
      <point x="427" y="732"/>
      <point x="427" y="726"/>
      <point x="426" y="719" type="curve" smooth="yes"/>
      <point x="388" y="480" type="line" smooth="yes"/>
      <point x="381" y="436"/>
      <point x="356" y="411"/>
      <point x="305" y="411" type="curve" smooth="yes"/>
      <point x="245" y="411" type="line" smooth="yes"/>
      <point x="201" y="411"/>
      <point x="181" y="428"/>
      <point x="181" y="464" type="curve" smooth="yes"/>
      <point x="181" y="469"/>
      <point x="182" y="475"/>
    </contour>
    <contour>
      <point x="117" y="472" type="line" smooth="yes"/>
      <point x="115" y="462"/>
      <point x="115" y="453"/>
      <point x="115" y="445" type="curve" smooth="yes"/>
      <point x="115" y="384"/>
      <point x="157" y="353"/>
      <point x="223" y="353" type="curve" smooth="yes"/>
      <point x="312" y="353" type="line" smooth="yes"/>
      <point x="386" y="353"/>
      <point x="438" y="392"/>
      <point x="452" y="472" type="curve" smooth="yes"/>
      <point x="492" y="725" type="line" smooth="yes"/>
      <point x="493" y="735"/>
      <point x="494" y="745"/>
      <point x="494" y="754" type="curve" smooth="yes"/>
      <point x="494" y="808"/>
      <point x="462" y="846"/>
      <point x="390" y="846" type="curve" smooth="yes"/>
      <point x="301" y="846" type="line" smooth="yes"/>
      <point x="227" y="846"/>
      <point x="169" y="804"/>
      <point x="157" y="725" type="curve" smooth="yes"/>
    </contour>
  </outline>
</glyph>
<glyph name="i.superior" format="1">
  <advance width="165"/>
  <unicode hex="2071"/>
  <note>
    GF Latin Plus glyph
  </note>
  <outline>
    <contour>
      <point x="166" y="751" type="line" smooth="yes"/>
      <point x="164" y="744"/>
      <point x="168" y="739"/>
      <point x="175" y="739" type="curve" smooth="yes"/>
      <point x="225" y="739" type="line" smooth="yes"/>
      <point x="232" y="739"/>
      <point x="237" y="743"/>
      <point x="238" y="751" type="curve" smooth="yes"/>
      <point x="248" y="812" type="line" smooth="yes"/>
      <point x="248" y="819"/>
      <point x="246" y="824"/>
      <point x="238" y="824" type="curve" smooth="yes"/>
      <point x="189" y="824" type="line" smooth="yes"/>
      <point x="181" y="824"/>
      <point x="176" y="820"/>
      <point x="175" y="812" type="curve" smooth="yes"/>
    </contour>
    <contour>
      <point x="222" y="672" type="line"/>
      <point x="155" y="672" type="line"/>
      <point x="93" y="280" type="line"/>
      <point x="160" y="280" type="line"/>
    </contour>
    <contour>
      <point x="153" y="280" type="move" name="ogonek"/>
    </contour>
    <contour>
      <point x="116" y="170" type="move" name="bottom"/>
    </contour>
  </outline>
</glyph>
<glyph name="foursuperior" format="1">
  <advance width="448"/>
  <unicode hex="2074"/>
  <note>
    GF Latin Plus glyph
  </note>
  <outline>
    <contour>
      <point x="90" y="449" type="line"/>
      <point x="99" y="413" type="line"/>
      <point x="356" y="413" type="line"/>
      <point x="335" y="281" type="line"/>
      <point x="402" y="281" type="line"/>
      <point x="423" y="413" type="line"/>
      <point x="497" y="425" type="line"/>
      <point x="504" y="472" type="line"/>
      <point x="432" y="472" type="line"/>
      <point x="462" y="660" type="line"/>
      <point x="409" y="660" type="line"/>
      <point x="387" y="608" type="line"/>
      <point x="365" y="472" type="line"/>
      <point x="172" y="472" type="line"/>
      <point x="421" y="820" type="line"/>
      <point x="352" y="820" type="line"/>
    </contour>
  </outline>
</glyph>
<glyph name="fivesuperior" format="1">
  <advance width="469"/>
  <unicode hex="2075"/>
  <note>
    GF Latin Plus glyph
  </note>
  <outline>
    <contour>
      <point x="118" y="285" type="line"/>
      <point x="168" y="280"/>
      <point x="232" y="276"/>
      <point x="293" y="276" type="curve" smooth="yes"/>
      <point x="398" y="276"/>
      <point x="474" y="318"/>
      <point x="488" y="408" type="curve" smooth="yes"/>
      <point x="500" y="482" type="line" smooth="yes"/>
      <point x="502" y="497"/>
      <point x="503" y="506"/>
      <point x="502" y="515" type="curve" smooth="yes"/>
      <point x="502" y="573"/>
      <point x="464" y="614"/>
      <point x="388" y="614" type="curve" smooth="yes"/>
      <point x="323" y="614" type="line" smooth="yes"/>
      <point x="280" y="614"/>
      <point x="250" y="597"/>
      <point x="236" y="579" type="curve"/>
      <point x="273" y="758" type="line"/>
      <point x="525" y="758" type="line"/>
      <point x="535" y="820" type="line"/>
      <point x="219" y="820" type="line"/>
      <point x="153" y="498" type="line"/>
      <point x="217" y="498" type="line"/>
      <point x="230" y="538"/>
      <point x="257" y="555"/>
      <point x="302" y="555" type="curve" smooth="yes"/>
      <point x="358" y="555" type="line" smooth="yes"/>
      <point x="409" y="555"/>
      <point x="433" y="533"/>
      <point x="433" y="496" type="curve" smooth="yes"/>
      <point x="433" y="490"/>
      <point x="433" y="483"/>
      <point x="431" y="473" type="curve" smooth="yes"/>
      <point x="423" y="419" type="line" smooth="yes"/>
      <point x="414" y="366"/>
      <point x="364" y="338"/>
      <point x="306" y="338" type="curve" smooth="yes"/>
      <point x="127" y="338" type="line"/>
    </contour>
  </outline>
</glyph>
<glyph name="sixsuperior" format="1">
  <advance width="464"/>
  <unicode hex="2076"/>
  <note>
    GF Latin Plus glyph
  </note>
  <outline>
    <contour>
      <point x="202" y="530" type="curve"/>
      <point x="343" y="530" type="line" smooth="yes"/>
      <point x="395" y="530"/>
      <point x="427" y="522"/>
      <point x="427" y="480" type="curve" smooth="yes"/>
      <point x="427" y="474"/>
      <point x="426" y="469"/>
      <point x="425" y="462" type="curve" smooth="yes"/>
      <point x="416" y="407" type="line" smooth="yes"/>
      <point x="408" y="360"/>
      <point x="373" y="340"/>
      <point x="329" y="340" type="curve" smooth="yes"/>
      <point x="270" y="340" type="line" smooth="yes"/>
      <point x="222" y="340"/>
      <point x="194" y="362"/>
      <point x="193" y="438" type="curve" smooth="yes"/>
      <point x="193" y="463"/>
      <point x="196" y="493"/>
    </contour>
    <contour>
      <point x="127" y="432" type="curve" smooth="yes"/>
      <point x="127" y="311"/>
      <point x="178" y="278"/>
      <point x="252" y="278" type="curve" smooth="yes"/>
      <point x="334" y="278" type="line" smooth="yes"/>
      <point x="405" y="278"/>
      <point x="467" y="312"/>
      <point x="481" y="397" type="curve" smooth="yes"/>
      <point x="492" y="467" type="line" smooth="yes"/>
      <point x="495" y="484"/>
      <point x="496" y="493"/>
      <point x="496" y="501" type="curve" smooth="yes"/>
      <point x="495" y="564"/>
      <point x="448" y="589"/>
      <point x="366" y="589" type="curve" smooth="yes"/>
      <point x="321" y="589"/>
      <point x="258" y="588"/>
      <point x="209" y="580" type="curve"/>
      <point x="229" y="703"/>
      <point x="292" y="763"/>
      <point x="371" y="763" type="curve" smooth="yes"/>
      <point x="506" y="763" type="line"/>
      <point x="515" y="816" type="line"/>
      <point x="476" y="821"/>
      <point x="422" y="824"/>
      <point x="378" y="824" type="curve" smooth="yes"/>
      <point x="196" y="824"/>
      <point x="126" y="643"/>
    </contour>
  </outline>
</glyph>
<glyph name="sevensuperior" format="1">
  <advance width="408"/>
  <unicode hex="2077"/>
  <note>
    GF Latin Plus glyph
  </note>
  <outline>
    <contour>
      <point x="147" y="751" type="line"/>
      <point x="418" y="751" type="line"/>
      <point x="152" y="280" type="line"/>
      <point x="229" y="280" type="line"/>
      <point x="508" y="787" type="line"/>
      <point x="493" y="820" type="line"/>
      <point x="158" y="820" type="line"/>
    </contour>
  </outline>
</glyph>
<glyph name="eightsuperior" format="1">
  <advance width="480"/>
  <unicode hex="2078"/>
  <note>
    GF Latin Plus glyph
  </note>
  <outline>
    <contour>
      <point x="237" y="649" type="curve" smooth="yes"/>
      <point x="245" y="696" type="line" smooth="yes"/>
      <point x="252" y="743"/>
      <point x="276" y="765"/>
      <point x="325" y="765" type="curve" smooth="yes"/>
      <point x="404" y="765" type="line" smooth="yes"/>
      <point x="438" y="765"/>
      <point x="456" y="752"/>
      <point x="456" y="718" type="curve" smooth="yes"/>
      <point x="456" y="711"/>
      <point x="455" y="702"/>
      <point x="454" y="694" type="curve" smooth="yes"/>
      <point x="447" y="647" type="line" smooth="yes"/>
      <point x="443" y="618"/>
      <point x="419" y="585"/>
      <point x="371" y="585" type="curve" smooth="yes"/>
      <point x="296" y="585" type="line" smooth="yes"/>
      <point x="253" y="585"/>
      <point x="236" y="606"/>
      <point x="236" y="633" type="curve" smooth="yes"/>
      <point x="236" y="638"/>
      <point x="236" y="643"/>
    </contour>
    <contour>
      <point x="190" y="410" type="curve" smooth="yes"/>
      <point x="198" y="462" type="line" smooth="yes"/>
      <point x="205" y="509"/>
      <point x="256" y="526"/>
      <point x="287" y="526" type="curve" smooth="yes"/>
      <point x="362" y="526" type="line" smooth="yes"/>
      <point x="409" y="526"/>
      <point x="429" y="513"/>
      <point x="429" y="480" type="curve" smooth="yes"/>
      <point x="429" y="474"/>
      <point x="428" y="467"/>
      <point x="427" y="459" type="curve" smooth="yes"/>
      <point x="417" y="398" type="line" smooth="yes"/>
      <point x="411" y="358"/>
      <point x="386" y="337"/>
      <point x="335" y="337" type="curve" smooth="yes"/>
      <point x="257" y="337" type="line" smooth="yes"/>
      <point x="216" y="337"/>
      <point x="187" y="351"/>
      <point x="187" y="385" type="curve" smooth="yes"/>
      <point x="187" y="388"/>
      <point x="188" y="399"/>
    </contour>
    <contour>
      <point x="120" y="393" type="line" smooth="yes"/>
      <point x="118" y="381"/>
      <point x="117" y="370"/>
      <point x="117" y="361" type="curve" smooth="yes"/>
      <point x="117" y="314"/>
      <point x="149" y="278"/>
      <point x="235" y="278" type="curve" smooth="yes"/>
      <point x="342" y="278" type="line" smooth="yes"/>
      <point x="415" y="278"/>
      <point x="469" y="306"/>
      <point x="483" y="388" type="curve" smooth="yes"/>
      <point x="495" y="468" type="line" smooth="yes"/>
      <point x="496" y="476"/>
      <point x="497" y="483"/>
      <point x="497" y="496" type="curve" smooth="yes"/>
      <point x="497" y="524"/>
      <point x="481" y="554"/>
      <point x="444" y="561" type="curve"/>
      <point x="485" y="571"/>
      <point x="508" y="618"/>
      <point x="513" y="649" type="curve" smooth="yes"/>
      <point x="522" y="711" type="line" smooth="yes"/>
      <point x="524" y="723"/>
      <point x="525" y="733"/>
      <point x="525" y="743" type="curve" smooth="yes"/>
      <point x="525" y="801"/>
      <point x="492" y="824"/>
      <point x="429" y="824" type="curve" smooth="yes"/>
      <point x="322" y="824" type="line" smooth="yes"/>
      <point x="253" y="824"/>
      <point x="195" y="797"/>
      <point x="181" y="712" type="curve" smooth="yes"/>
      <point x="173" y="656" type="line" smooth="yes"/>
      <point x="171" y="640"/>
      <point x="169" y="631"/>
      <point x="169" y="620" type="curve" smooth="yes"/>
      <point x="169" y="595"/>
      <point x="182" y="570"/>
      <point x="215" y="554" type="curve"/>
      <point x="175" y="546"/>
      <point x="139" y="514"/>
      <point x="132" y="465" type="curve" smooth="yes"/>
    </contour>
  </outline>
</glyph>
<glyph name="zeroinferior" format="1">
  <advance width="482"/>
  <unicode hex="2080"/>
  <outline>
    <contour>
      <point x="161" y="-69" type="line" smooth="yes"/>
      <point x="150" y="-134"/>
      <point x="179" y="-146"/>
      <point x="231" y="-146" type="curve" smooth="yes"/>
      <point x="313" y="-146" type="line" smooth="yes"/>
      <point x="377" y="-146"/>
      <point x="395" y="-125"/>
      <point x="404" y="-70" type="curve" smooth="yes"/>
      <point x="440" y="148" type="line" smooth="yes"/>
      <point x="449" y="199"/>
      <point x="431" y="224"/>
      <point x="375" y="224" type="curve" smooth="yes"/>
      <point x="289" y="224" type="line" smooth="yes"/>
      <point x="230" y="224"/>
      <point x="206" y="203"/>
      <point x="197" y="148" type="curve" smooth="yes"/>
    </contour>
    <contour>
      <point x="100" y="-82" type="curve" smooth="yes"/>
      <point x="138" y="163" type="line" smooth="yes"/>
      <point x="151" y="247"/>
      <point x="200" y="279"/>
      <point x="277" y="279" type="curve" smooth="yes"/>
      <point x="395" y="279" type="line" smooth="yes"/>
      <point x="485" y="279"/>
      <point x="511" y="226"/>
      <point x="500" y="159" type="curve" smooth="yes"/>
      <point x="462" y="-89" type="line" smooth="yes"/>
      <point x="447" y="-179"/>
      <point x="399" y="-200"/>
      <point x="328" y="-200" type="curve" smooth="yes"/>
      <point x="210" y="-200" type="line" smooth="yes"/>
      <point x="140" y="-200"/>
      <point x="84" y="-176"/>
    </contour>
  </outline>
</glyph>
<glyph name="oneinferior" format="1">
  <advance width="288"/>
  <unicode hex="2081"/>
  <outline>
    <contour>
      <point x="36" y="178" type="curve"/>
      <point x="41" y="218" type="line"/>
      <point x="95" y="218"/>
      <point x="170" y="269"/>
      <point x="180" y="281" type="curve"/>
      <point x="239" y="281" type="line"/>
      <point x="163" y="-200" type="line"/>
      <point x="103" y="-200" type="line"/>
      <point x="169" y="217" type="line"/>
      <point x="148" y="201"/>
      <point x="88" y="178"/>
    </contour>
  </outline>
</glyph>
<glyph name="twoinferior" format="1">
  <advance width="459"/>
  <unicode hex="2082"/>
  <outline>
    <contour>
      <point x="40" y="-200" type="line"/>
      <point x="48" y="-149" type="line"/>
      <point x="118" y="-102"/>
      <point x="347" y="51"/>
      <point x="361" y="137" type="curve" smooth="yes"/>
      <point x="370" y="195"/>
      <point x="354" y="232"/>
      <point x="272" y="232" type="curve" smooth="yes"/>
      <point x="104" y="232" type="line" smooth="yes"/>
      <point x="103" y="232"/>
      <point x="111" y="275"/>
      <point x="111" y="274" type="curve"/>
      <point x="176" y="284"/>
      <point x="222" y="286"/>
      <point x="303" y="286" type="curve" smooth="yes"/>
      <point x="405" y="286"/>
      <point x="436" y="217"/>
      <point x="423" y="135" type="curve" smooth="yes"/>
      <point x="405" y="30"/>
      <point x="200" y="-112"/>
      <point x="155" y="-145" type="curve"/>
      <point x="376" y="-145" type="line"/>
      <point x="368" y="-200" type="line"/>
    </contour>
  </outline>
</glyph>
<glyph name="threeinferior" format="1">
  <advance width="397"/>
  <unicode hex="2083"/>
  <outline>
    <contour>
      <point x="-1" y="-190" type="curve"/>
      <point x="5" y="-149" type="line"/>
      <point x="171" y="-149" type="line" smooth="yes"/>
      <point x="243" y="-149"/>
      <point x="275" y="-133"/>
      <point x="285" y="-71" type="curve"/>
      <point x="287" y="-53" type="line"/>
      <point x="295" y="-6"/>
      <point x="253" y="14"/>
      <point x="204" y="15" type="curve" smooth="yes"/>
      <point x="72" y="19" type="line"/>
      <point x="79" y="65" type="line"/>
      <point x="208" y="69" type="line" smooth="yes"/>
      <point x="265" y="71"/>
      <point x="313" y="91"/>
      <point x="318" y="132" type="curve" smooth="yes"/>
      <point x="321" y="158" type="line"/>
      <point x="331" y="216"/>
      <point x="287" y="227"/>
      <point x="242" y="227" type="curve" smooth="yes"/>
      <point x="61" y="227" type="line"/>
      <point x="67" y="269" type="line"/>
      <point x="120" y="282"/>
      <point x="197" y="282"/>
      <point x="275" y="281" type="curve" smooth="yes"/>
      <point x="359" y="281"/>
      <point x="392" y="228"/>
      <point x="382" y="162" type="curve" smooth="yes"/>
      <point x="376" y="128" type="line" smooth="yes"/>
      <point x="368" y="74"/>
      <point x="316" y="45"/>
      <point x="286" y="42" type="curve"/>
      <point x="315" y="35"/>
      <point x="355" y="-3"/>
      <point x="347" y="-62" type="curve"/>
      <point x="342" y="-89" type="line" smooth="yes"/>
      <point x="330" y="-163"/>
      <point x="288" y="-204"/>
      <point x="194" y="-204" type="curve" smooth="yes"/>
      <point x="118" y="-204"/>
      <point x="45" y="-203"/>
    </contour>
  </outline>
</glyph>
<glyph name="fourinferior" format="1">
  <advance width="430"/>
  <unicode hex="2084"/>
  <outline>
    <contour>
      <point x="0" y="-34" type="line"/>
      <point x="223" y="279" type="line"/>
      <point x="289" y="279" type="line"/>
      <point x="85" y="-5" type="line"/>
      <point x="284" y="-5" type="line"/>
      <point x="302" y="105" type="line"/>
      <point x="322" y="154" type="line"/>
      <point x="367" y="154" type="line"/>
      <point x="341" y="-5" type="line"/>
      <point x="394" y="-5" type="line"/>
      <point x="388" y="-47" type="line"/>
      <point x="331" y="-61" type="line"/>
      <point x="311" y="-199" type="line"/>
      <point x="253" y="-199" type="line"/>
      <point x="275" y="-62" type="line"/>
      <point x="9" y="-62" type="line"/>
    </contour>
  </outline>
</glyph>
<glyph name="fiveinferior" format="1">
  <advance width="419"/>
  <unicode hex="2085"/>
  <outline>
    <contour>
      <point x="5" y="-193" type="curve"/>
      <point x="12" y="-148" type="line"/>
      <point x="212" y="-148" type="line" smooth="yes"/>
      <point x="265" y="-148"/>
      <point x="293" y="-125"/>
      <point x="301" y="-72" type="curve"/>
      <point x="307" y="-29" type="line" smooth="yes"/>
      <point x="313" y="10"/>
      <point x="311" y="37"/>
      <point x="246" y="37" type="curve" smooth="yes"/>
      <point x="162" y="37" type="line" smooth="yes"/>
      <point x="124" y="37"/>
      <point x="91" y="11"/>
      <point x="86" y="-19" type="curve"/>
      <point x="33" y="-19" type="line"/>
      <point x="95" y="279" type="line"/>
      <point x="399" y="279" type="line"/>
      <point x="390" y="224" type="line"/>
      <point x="141" y="224" type="line"/>
      <point x="105" y="52" type="line"/>
      <point x="140" y="99"/>
      <point x="204" y="91"/>
      <point x="270" y="90" type="curve" smooth="yes"/>
      <point x="355" y="87"/>
      <point x="376" y="41"/>
      <point x="367" y="-23" type="curve" smooth="yes"/>
      <point x="357" y="-92" type="line" smooth="yes"/>
      <point x="346" y="-178"/>
      <point x="284" y="-204"/>
      <point x="220" y="-204" type="curve" smooth="yes"/>
      <point x="137" y="-204"/>
      <point x="58" y="-203"/>
    </contour>
  </outline>
</glyph>
<glyph name="sixinferior" format="1">
  <advance width="419"/>
  <unicode hex="2086"/>
  <outline>
    <contour>
      <point x="82" y="26" type="line"/>
      <point x="60" y="-110"/>
      <point x="87" y="-146"/>
      <point x="149" y="-146" type="curve" smooth="yes"/>
      <point x="226" y="-146" type="line" smooth="yes"/>
      <point x="273" y="-146"/>
      <point x="298" y="-123"/>
      <point x="305" y="-80" type="curve" smooth="yes"/>
      <point x="315" y="-25" type="line"/>
      <point x="322" y="21"/>
      <point x="298" y="26"/>
      <point x="254" y="26" type="curve" smooth="yes"/>
    </contour>
    <contour>
      <point x="27" y="56" type="curve" smooth="yes"/>
      <point x="58" y="247"/>
      <point x="118" y="278"/>
      <point x="183" y="283" type="curve" smooth="yes"/>
      <point x="253" y="288"/>
      <point x="354" y="282"/>
      <point x="403" y="274" type="curve"/>
      <point x="396" y="230" type="line"/>
      <point x="207" y="230" type="line" smooth="yes"/>
      <point x="129" y="230"/>
      <point x="104" y="160"/>
      <point x="89" y="65" type="curve"/>
      <point x="135" y="74"/>
      <point x="223" y="75"/>
      <point x="274" y="75" type="curve" smooth="yes"/>
      <point x="369" y="75"/>
      <point x="383" y="30"/>
      <point x="373" y="-28" type="curve" smooth="yes"/>
      <point x="362" y="-98" type="line" smooth="yes"/>
      <point x="349" y="-176"/>
      <point x="301" y="-200"/>
      <point x="233" y="-200" type="curve" smooth="yes"/>
      <point x="130" y="-200" type="line" smooth="yes"/>
      <point x="52" y="-200"/>
      <point x="-8" y="-156"/>
    </contour>
  </outline>
</glyph>
<glyph name="seveninferior" format="1">
  <advance width="443"/>
  <unicode hex="2087"/>
  <outline>
    <contour>
      <point x="44" y="225" type="line"/>
      <point x="53" y="280" type="line"/>
      <point x="396" y="280" type="line"/>
      <point x="410" y="251" type="line"/>
      <point x="155" y="-200" type="line"/>
      <point x="90" y="-200" type="line"/>
      <point x="330" y="225" type="line"/>
    </contour>
  </outline>
</glyph>
<glyph name="eightinferior" format="1">
  <advance width="427"/>
  <unicode hex="2088"/>
  <outline>
    <contour>
      <point x="140" y="127" type="line" smooth="yes"/>
      <point x="133" y="85"/>
      <point x="159" y="68"/>
      <point x="197" y="68" type="curve" smooth="yes"/>
      <point x="297" y="68" type="line" smooth="yes"/>
      <point x="333" y="68"/>
      <point x="366" y="88"/>
      <point x="372" y="127" type="curve" smooth="yes"/>
      <point x="377" y="154" type="line" smooth="yes"/>
      <point x="387" y="218"/>
      <point x="361" y="231"/>
      <point x="312" y="231" type="curve" smooth="yes"/>
      <point x="235" y="231" type="line" smooth="yes"/>
      <point x="182" y="231"/>
      <point x="154" y="215"/>
      <point x="144" y="154" type="curve" smooth="yes"/>
    </contour>
    <contour>
      <point x="107" y="-80" type="line" smooth="yes"/>
      <point x="99" y="-130"/>
      <point x="115" y="-149"/>
      <point x="170" y="-149" type="curve" smooth="yes"/>
      <point x="257" y="-149" type="line" smooth="yes"/>
      <point x="307" y="-149"/>
      <point x="331" y="-131"/>
      <point x="339" y="-80" type="curve" smooth="yes"/>
      <point x="346" y="-40" type="line" smooth="yes"/>
      <point x="352" y="0"/>
      <point x="319" y="19"/>
      <point x="291" y="19" type="curve" smooth="yes"/>
      <point x="195" y="19" type="line" smooth="yes"/>
      <point x="150" y="19"/>
      <point x="119" y="-6"/>
      <point x="113" y="-38" type="curve" smooth="yes"/>
    </contour>
    <contour>
      <point x="45" y="-88" type="curve" smooth="yes"/>
      <point x="54" y="-34" type="line" smooth="yes"/>
      <point x="61" y="9"/>
      <point x="101" y="32"/>
      <point x="133" y="35" type="curve"/>
      <point x="80" y="50"/>
      <point x="74" y="96"/>
      <point x="80" y="132" type="curve" smooth="yes"/>
      <point x="87" y="173" type="line"/>
      <point x="102" y="266"/>
      <point x="159" y="283"/>
      <point x="228" y="283" type="curve" smooth="yes"/>
      <point x="339" y="283" type="line" smooth="yes"/>
      <point x="414" y="283"/>
      <point x="452" y="247"/>
      <point x="439" y="162" type="curve"/>
      <point x="432" y="125" type="line" smooth="yes"/>
      <point x="428" y="96"/>
      <point x="403" y="57"/>
      <point x="354" y="52" type="curve"/>
      <point x="392" y="45"/>
      <point x="413" y="1"/>
      <point x="407" y="-39" type="curve" smooth="yes"/>
      <point x="397" y="-95" type="line"/>
      <point x="383" y="-187"/>
      <point x="331" y="-201"/>
      <point x="270" y="-201" type="curve" smooth="yes"/>
      <point x="150" y="-201" type="line" smooth="yes"/>
      <point x="43" y="-201"/>
      <point x="37" y="-138"/>
    </contour>
  </outline>
</glyph>
<glyph name="nineinferior" format="1">
  <advance width="483"/>
  <unicode hex="2089"/>
  <outline>
    <contour>
      <point x="129" y="112" type="line" smooth="yes"/>
      <point x="122" y="66"/>
      <point x="144" y="60"/>
      <point x="188" y="60" type="curve" smooth="yes"/>
      <point x="360" y="60" type="line"/>
      <point x="382" y="198"/>
      <point x="355" y="231"/>
      <point x="293" y="231" type="curve" smooth="yes"/>
      <point x="217" y="231" type="line" smooth="yes"/>
      <point x="170" y="231"/>
      <point x="144" y="208"/>
      <point x="137" y="164" type="curve" smooth="yes"/>
    </contour>
    <contour>
      <point x="39" y="-194" type="curve"/>
      <point x="46" y="-149" type="line"/>
      <point x="236" y="-149" type="line" smooth="yes"/>
      <point x="313" y="-149"/>
      <point x="338" y="-79"/>
      <point x="353" y="18" type="curve"/>
      <point x="307" y="9"/>
      <point x="220" y="8"/>
      <point x="169" y="8" type="curve" smooth="yes"/>
      <point x="74" y="8"/>
      <point x="61" y="54"/>
      <point x="70" y="113" type="curve" smooth="yes"/>
      <point x="80" y="182" type="line" smooth="yes"/>
      <point x="92" y="261"/>
      <point x="145" y="286"/>
      <point x="213" y="285" type="curve" smooth="yes"/>
      <point x="313" y="285" type="line" smooth="yes"/>
      <point x="392" y="285"/>
      <point x="450" y="236"/>
      <point x="415" y="22" type="curve" smooth="yes"/>
      <point x="383" y="-170"/>
      <point x="324" y="-198"/>
      <point x="259" y="-202" type="curve" smooth="yes"/>
      <point x="189" y="-208"/>
      <point x="88" y="-202"/>
    </contour>
  </outline>
</glyph>
<glyph name="dong" format="1">
  <advance width="609"/>
  <unicode hex="20AB"/>
  <note>
    GF Latin Plus glyph
  </note>
  <outline>
    <contour>
      <point x="68" y="-34" type="line"/>
      <point x="546" y="-34" type="line"/>
      <point x="556" y="32" type="line"/>
      <point x="79" y="32" type="line"/>
    </contour>
    <contour>
      <point x="403" y="669" type="line"/>
      <point x="691" y="669" type="line"/>
      <point x="696" y="704" type="line"/>
      <point x="409" y="704" type="line"/>
    </contour>
    <contour>
      <point x="376" y="519" type="curve" smooth="yes"/>
      <point x="432" y="519"/>
      <point x="468" y="507"/>
      <point x="514" y="493" type="curve"/>
      <point x="474" y="237" type="line"/>
      <point x="431" y="216"/>
      <point x="378" y="192"/>
      <point x="316" y="192" type="curve" smooth="yes"/>
      <point x="237" y="192"/>
      <point x="201" y="224"/>
      <point x="201" y="299" type="curve" smooth="yes"/>
      <point x="201" y="405"/>
      <point x="255" y="519"/>
    </contour>
    <contour>
      <point x="120" y="281" type="curve" smooth="yes"/>
      <point x="120" y="175"/>
      <point x="172" y="127"/>
      <point x="282" y="127" type="curve" smooth="yes"/>
      <point x="344" y="127"/>
      <point x="432" y="160"/>
      <point x="466" y="187" type="curve"/>
      <point x="472" y="133" type="line"/>
      <point x="537" y="133" type="line"/>
      <point x="640" y="783" type="line"/>
      <point x="560" y="783" type="line"/>
      <point x="524" y="549" type="line"/>
      <point x="482" y="565"/>
      <point x="424" y="581"/>
      <point x="364" y="581" type="curve" smooth="yes"/>
      <point x="191" y="581"/>
      <point x="120" y="419"/>
    </contour>
  </outline>
</glyph>
<glyph name="cedi" format="1">
  <advance width="609"/>
  <unicode hex="20B5"/>
  <note>
    GF Latin Plus glyph
  </note>
  <outline>
    <contour>
      <point x="365" y="-100" type="line"/>
      <point x="507" y="793" type="line"/>
      <point x="463" y="793" type="line"/>
      <point x="321" y="-100" type="line"/>
    </contour>
    <contour>
      <point x="109" y="228" type="curve" smooth="yes"/>
      <point x="109" y="40"/>
      <point x="205" y="-6"/>
      <point x="334" y="-6" type="curve" smooth="yes"/>
      <point x="432" y="-6"/>
      <point x="511" y="8"/>
      <point x="560" y="26" type="curve"/>
      <point x="569" y="83" type="line"/>
      <point x="504" y="68"/>
      <point x="453" y="62"/>
      <point x="363" y="62" type="curve" smooth="yes"/>
      <point x="251" y="62"/>
      <point x="183" y="97"/>
      <point x="183" y="233" type="curve" smooth="yes"/>
      <point x="183" y="480"/>
      <point x="299" y="664"/>
      <point x="476" y="664" type="curve" smooth="yes"/>
      <point x="541" y="664"/>
      <point x="607" y="653"/>
      <point x="658" y="643" type="curve"/>
      <point x="667" y="700" type="line"/>
      <point x="635" y="714"/>
      <point x="556" y="733"/>
      <point x="468" y="733" type="curve" smooth="yes"/>
      <point x="266" y="733"/>
      <point x="109" y="535"/>
    </contour>
  </outline>
</glyph>
<glyph name="afii61289" format="1">
  <advance width="452"/>
  <unicode hex="2113"/>
  <outline>
    <contour>
      <point x="213" y="358" type="curve"/>
      <point x="243" y="603" type="line" smooth="yes"/>
      <point x="249" y="652"/>
      <point x="285" y="677"/>
      <point x="321" y="677" type="curve" smooth="yes"/>
      <point x="366" y="677"/>
      <point x="391" y="646"/>
      <point x="391" y="604" type="curve" smooth="yes"/>
      <point x="391" y="574"/>
      <point x="318" y="449"/>
    </contour>
    <contour>
      <point x="63" y="251" type="curve"/>
      <point x="71" y="213" type="line"/>
      <point x="83" y="218"/>
      <point x="108" y="233"/>
      <point x="121" y="244" type="curve"/>
      <point x="113" y="184" type="line" smooth="yes"/>
      <point x="110" y="163"/>
      <point x="109" y="145"/>
      <point x="109" y="129" type="curve" smooth="yes"/>
      <point x="109" y="33"/>
      <point x="152" y="0"/>
      <point x="228" y="0" type="curve" smooth="yes"/>
      <point x="339" y="0" type="line"/>
      <point x="345" y="48" type="line"/>
      <point x="276" y="57" type="line" smooth="yes"/>
      <point x="219" y="65"/>
      <point x="191" y="88"/>
      <point x="191" y="157" type="curve" smooth="yes"/>
      <point x="191" y="172"/>
      <point x="192" y="189"/>
      <point x="194" y="208" type="curve" smooth="yes"/>
      <point x="203" y="281" type="line"/>
      <point x="337" y="379"/>
      <point x="459" y="557"/>
      <point x="459" y="613" type="curve" smooth="yes"/>
      <point x="459" y="692"/>
      <point x="409" y="739"/>
      <point x="331" y="739" type="curve" smooth="yes"/>
      <point x="240" y="739"/>
      <point x="175" y="691"/>
      <point x="163" y="591" type="curve" smooth="yes"/>
      <point x="128" y="306" type="line"/>
      <point x="107" y="286"/>
      <point x="85" y="268"/>
    </contour>
  </outline>
</glyph>
<glyph name="afii61352" format="1">
  <advance width="1095"/>
  <unicode hex="2116"/>
  <outline>
    <contour>
      <point x="62" y="0" type="line"/>
      <point x="161" y="630" type="line" smooth="yes"/>
      <point x="183" y="768"/>
      <point x="397" y="775"/>
      <point x="406" y="650" type="curve"/>
      <point x="490" y="98" type="line" smooth="yes"/>
      <point x="498" y="49"/>
      <point x="566" y="61"/>
      <point x="578" y="118" type="curve"/>
      <point x="578" y="118"/>
      <point x="631" y="448"/>
      <point x="650" y="567" type="curve" smooth="yes"/>
      <point x="669" y="690"/>
      <point x="722" y="734"/>
      <point x="810" y="735" type="curve" smooth="yes"/>
      <point x="1031" y="735" type="line" smooth="yes"/>
      <point x="1133" y="735"/>
      <point x="1162" y="680"/>
      <point x="1142" y="553" type="curve" smooth="yes"/>
      <point x="1124" y="440"/>
      <point x="1091" y="383"/>
      <point x="982" y="381" type="curve" smooth="yes"/>
      <point x="929" y="381" type="line" smooth="yes"/>
      <point x="822" y="383"/>
      <point x="784" y="426"/>
      <point x="812" y="602" type="curve"/>
      <point x="871" y="602" type="line"/>
      <point x="850" y="471"/>
      <point x="864" y="436"/>
      <point x="930" y="436" type="curve" smooth="yes"/>
      <point x="982" y="436" type="line" smooth="yes"/>
      <point x="1043" y="436"/>
      <point x="1071" y="471"/>
      <point x="1084" y="553" type="curve" smooth="yes"/>
      <point x="1101" y="665"/>
      <point x="1065" y="677"/>
      <point x="1010" y="677" type="curve" smooth="yes"/>
      <point x="1010" y="677"/>
      <point x="915" y="677"/>
      <point x="848" y="677" type="curve" smooth="yes"/>
      <point x="766" y="677"/>
      <point x="738" y="627"/>
      <point x="727" y="557" type="curve" smooth="yes"/>
      <point x="654" y="98" type="line" smooth="yes"/>
      <point x="635" y="-26"/>
      <point x="422" y="-49"/>
      <point x="412" y="89" type="curve" smooth="yes"/>
      <point x="328" y="636" type="line" smooth="yes"/>
      <point x="318" y="690"/>
      <point x="249" y="674"/>
      <point x="240" y="618" type="curve" smooth="yes"/>
      <point x="142" y="0" type="line"/>
    </contour>
  </outline>
</glyph>
<glyph name="uni2206" format="1">
  <advance width="733"/>
  <unicode hex="2206"/>
  <outline>
    <contour>
      <point x="138" y="70" type="line"/>
      <point x="620" y="70" type="line"/>
      <point x="468" y="609" type="line"/>
    </contour>
    <contour>
      <point x="17" y="0" type="line"/>
      <point x="462" y="732" type="line"/>
      <point x="500" y="732" type="line"/>
      <point x="701" y="0" type="line"/>
    </contour>
  </outline>
</glyph>
<glyph name="infinity" format="1">
  <advance width="680"/>
  <unicode hex="221E"/>
  <outline>
    <contour>
      <point x="432" y="342" type="curve"/>
      <point x="457" y="283"/>
      <point x="503" y="225"/>
      <point x="563" y="225" type="curve" smooth="yes"/>
      <point x="645" y="225"/>
      <point x="669" y="275"/>
      <point x="679" y="341" type="curve" smooth="yes"/>
      <point x="690" y="410"/>
      <point x="685" y="458"/>
      <point x="600" y="458" type="curve" smooth="yes"/>
      <point x="548" y="458"/>
      <point x="473" y="393"/>
    </contour>
    <contour>
      <point x="112" y="342" type="curve" smooth="yes"/>
      <point x="100" y="264"/>
      <point x="118" y="225"/>
      <point x="191" y="225" type="curve" smooth="yes"/>
      <point x="261" y="225"/>
      <point x="327" y="302"/>
      <point x="358" y="342" type="curve"/>
      <point x="329" y="398"/>
      <point x="283" y="458"/>
      <point x="228" y="458" type="curve" smooth="yes"/>
      <point x="149" y="458"/>
      <point x="125" y="425"/>
    </contour>
    <contour>
      <point x="52" y="350" type="curve" smooth="yes"/>
      <point x="66" y="437"/>
      <point x="91" y="514"/>
      <point x="230" y="514" type="curve" smooth="yes"/>
      <point x="310" y="514"/>
      <point x="371" y="444"/>
      <point x="401" y="384" type="curve"/>
      <point x="446" y="443"/>
      <point x="537" y="514"/>
      <point x="614" y="514" type="curve" smooth="yes"/>
      <point x="752" y="514"/>
      <point x="752" y="411"/>
      <point x="740" y="330" type="curve" smooth="yes"/>
      <point x="725" y="238"/>
      <point x="689" y="168"/>
      <point x="562" y="168" type="curve" smooth="yes"/>
      <point x="480" y="168"/>
      <point x="418" y="234"/>
      <point x="387" y="300" type="curve"/>
      <point x="335" y="228"/>
      <point x="265" y="169"/>
      <point x="180" y="169" type="curve" smooth="yes"/>
      <point x="53" y="169"/>
      <point x="37" y="258"/>
    </contour>
  </outline>
</glyph>
<glyph name="f_f" format="1">
  <advance width="753"/>
  <unicode hex="FB00"/>
  <note>
    GF Latin Plus glyph
  </note>
  <outline>
    <contour>
      <point x="86" y="471" type="line"/>
      <point x="93" y="517" type="line"/>
      <point x="193" y="531" type="line"/>
      <point x="207" y="620" type="line" smooth="yes"/>
      <point x="217" y="681"/>
      <point x="249" y="776"/>
      <point x="369" y="776" type="curve" smooth="yes"/>
      <point x="407" y="776"/>
      <point x="448" y="768"/>
      <point x="486" y="757" type="curve"/>
      <point x="479" y="711" type="line" smooth="yes"/>
      <point x="478" y="711"/>
      <point x="387" y="716"/>
      <point x="387" y="716" type="curve" smooth="yes"/>
      <point x="328" y="719"/>
      <point x="296" y="684"/>
      <point x="284" y="603" type="curve" smooth="yes"/>
      <point x="272" y="531" type="line"/>
      <point x="557" y="531" type="line"/>
      <point x="573" y="630" type="line" smooth="yes"/>
      <point x="585" y="706"/>
      <point x="620" y="786"/>
      <point x="720" y="786" type="curve" smooth="yes"/>
      <point x="756" y="786"/>
      <point x="826" y="779"/>
      <point x="861" y="766" type="curve"/>
      <point x="853" y="721" type="line" smooth="yes"/>
      <point x="852" y="721"/>
      <point x="735" y="726"/>
      <point x="735" y="726" type="curve" smooth="yes"/>
      <point x="673" y="729"/>
      <point x="660" y="677"/>
      <point x="649" y="611" type="curve" smooth="yes"/>
      <point x="636" y="531" type="line"/>
      <point x="788" y="531" type="line"/>
      <point x="779" y="471" type="line"/>
      <point x="627" y="471" type="line"/>
      <point x="552" y="-1" type="line"/>
      <point x="473" y="-1" type="line"/>
      <point x="548" y="471" type="line"/>
      <point x="262" y="471" type="line"/>
      <point x="188" y="0" type="line"/>
      <point x="108" y="0" type="line"/>
      <point x="183" y="471" type="line"/>
    </contour>
  </outline>
</glyph>
<glyph name="fi" format="1">
  <advance width="571"/>
  <unicode hex="FB01"/>
  <note>
    GF Latin Plus glyph
  </note>
  <outline>
    <contour>
      <point x="52" y="468" type="line"/>
      <point x="59" y="515" type="line"/>
      <point x="151" y="528" type="line"/>
      <point x="161" y="586" type="line" smooth="yes"/>
      <point x="180" y="705"/>
      <point x="257" y="785"/>
      <point x="386" y="786" type="curve" smooth="yes"/>
      <point x="426" y="786"/>
      <point x="537" y="782"/>
      <point x="592" y="765" type="curve"/>
      <point x="585" y="721" type="line" smooth="yes"/>
      <point x="584" y="721"/>
      <point x="408" y="726"/>
      <point x="408" y="726" type="curve" smooth="yes"/>
      <point x="330" y="729"/>
      <point x="255" y="689"/>
      <point x="237" y="573" type="curve" smooth="yes"/>
      <point x="230" y="528" type="line"/>
      <point x="589" y="520" type="line"/>
      <point x="506" y="0" type="line"/>
      <point x="426" y="0" type="line"/>
      <point x="501" y="468" type="line"/>
      <point x="220" y="468" type="line"/>
      <point x="146" y="0" type="line"/>
      <point x="67" y="0" type="line"/>
      <point x="141" y="468" type="line"/>
    </contour>
  </outline>
</glyph>
<glyph name="fl" format="1">
  <advance width="695"/>
  <unicode hex="FB02"/>
  <note>
    GF Latin Plus glyph
  </note>
  <outline>
    <contour>
      <point x="86" y="471" type="line"/>
      <point x="93" y="519" type="line"/>
      <point x="185" y="531" type="line"/>
      <point x="194" y="583" type="line" smooth="yes"/>
      <point x="214" y="716"/>
      <point x="292" y="786"/>
      <point x="412" y="786" type="curve" smooth="yes"/>
      <point x="674" y="785" type="line"/>
      <point x="582" y="204" type="line" smooth="yes"/>
      <point x="562" y="76"/>
      <point x="608" y="68"/>
      <point x="634" y="62" type="curve" smooth="yes"/>
      <point x="634" y="62"/>
      <point x="691" y="48"/>
      <point x="698" y="48" type="curve"/>
      <point x="690" y="2" type="line"/>
      <point x="612" y="2" type="line" smooth="yes"/>
      <point x="525" y="2"/>
      <point x="480" y="56"/>
      <point x="501" y="191" type="curve" smooth="yes"/>
      <point x="586" y="726" type="line"/>
      <point x="572" y="726"/>
      <point x="415" y="726"/>
      <point x="415" y="726" type="curve" smooth="yes"/>
      <point x="344" y="726"/>
      <point x="288" y="685"/>
      <point x="271" y="579" type="curve" smooth="yes"/>
      <point x="264" y="531" type="line"/>
      <point x="395" y="531" type="line"/>
      <point x="386" y="471" type="line"/>
      <point x="255" y="471" type="line"/>
      <point x="180" y="0" type="line"/>
      <point x="101" y="0" type="line"/>
      <point x="175" y="471" type="line"/>
    </contour>
  </outline>
</glyph>
<glyph name="f_f_i" format="1">
  <advance width="986"/>
  <unicode hex="FB03"/>
  <note>
    GF Latin Plus glyph
  </note>
  <outline>
    <contour>
      <point x="86" y="471" type="line"/>
      <point x="93" y="517" type="line"/>
      <point x="193" y="531" type="line"/>
      <point x="207" y="620" type="line" smooth="yes"/>
      <point x="217" y="681"/>
      <point x="249" y="776"/>
      <point x="369" y="776" type="curve" smooth="yes"/>
      <point x="407" y="776"/>
      <point x="448" y="768"/>
      <point x="486" y="757" type="curve"/>
      <point x="479" y="711" type="line" smooth="yes"/>
      <point x="478" y="711"/>
      <point x="387" y="716"/>
      <point x="387" y="716" type="curve" smooth="yes"/>
      <point x="328" y="719"/>
      <point x="297" y="684"/>
      <point x="283" y="603" type="curve" smooth="yes"/>
      <point x="272" y="531" type="line"/>
      <point x="555" y="531" type="line"/>
      <point x="562" y="576" type="line"/>
      <point x="581" y="695"/>
      <point x="662" y="785"/>
      <point x="791" y="786" type="curve" smooth="yes"/>
      <point x="831" y="786"/>
      <point x="941" y="782"/>
      <point x="995" y="765" type="curve"/>
      <point x="989" y="720" type="line" smooth="yes"/>
      <point x="988" y="720"/>
      <point x="810" y="726"/>
      <point x="810" y="726" type="curve" smooth="yes"/>
      <point x="732" y="728"/>
      <point x="659" y="689"/>
      <point x="641" y="573" type="curve" smooth="yes"/>
      <point x="634" y="531" type="line"/>
      <point x="993" y="523" type="line"/>
      <point x="910" y="0" type="line"/>
      <point x="831" y="0" type="line"/>
      <point x="905" y="471" type="line"/>
      <point x="625" y="471" type="line"/>
      <point x="550" y="0" type="line"/>
      <point x="471" y="0" type="line"/>
      <point x="545" y="471" type="line"/>
      <point x="262" y="471" type="line"/>
      <point x="188" y="0" type="line"/>
      <point x="108" y="0" type="line"/>
      <point x="183" y="471" type="line"/>
    </contour>
  </outline>
</glyph>
<glyph name="ffl" format="1">
  <advance width="1109"/>
  <unicode hex="FB04"/>
  <outline>
    <contour>
      <point x="86" y="471" type="line"/>
      <point x="93" y="517" type="line"/>
      <point x="193" y="531" type="line"/>
      <point x="207" y="620" type="line" smooth="yes"/>
      <point x="217" y="681"/>
      <point x="249" y="776"/>
      <point x="369" y="776" type="curve" smooth="yes"/>
      <point x="406" y="776"/>
      <point x="448" y="768"/>
      <point x="486" y="757" type="curve"/>
      <point x="479" y="711" type="line" smooth="yes"/>
      <point x="478" y="711"/>
      <point x="387" y="716"/>
      <point x="387" y="716" type="curve" smooth="yes"/>
      <point x="328" y="719"/>
      <point x="296" y="684"/>
      <point x="283" y="603" type="curve" smooth="yes"/>
      <point x="272" y="531" type="line"/>
      <point x="554" y="531" type="line"/>
      <point x="561" y="583" type="line"/>
      <point x="582" y="716"/>
      <point x="658" y="787"/>
      <point x="774" y="786" type="curve"/>
      <point x="1043" y="785" type="line"/>
      <point x="951" y="204" type="line" smooth="yes"/>
      <point x="931" y="76"/>
      <point x="977" y="68"/>
      <point x="1003" y="62" type="curve" smooth="yes"/>
      <point x="1003" y="62"/>
      <point x="1060" y="48"/>
      <point x="1067" y="48" type="curve"/>
      <point x="1059" y="2" type="line"/>
      <point x="979" y="2" type="line" smooth="yes"/>
      <point x="891" y="2"/>
      <point x="848" y="56"/>
      <point x="870" y="191" type="curve" smooth="yes"/>
      <point x="955" y="726" type="line"/>
      <point x="941" y="726"/>
      <point x="780" y="726"/>
      <point x="780" y="726" type="curve" smooth="yes"/>
      <point x="710" y="726"/>
      <point x="657" y="685"/>
      <point x="641" y="579" type="curve" smooth="yes"/>
      <point x="633" y="531" type="line"/>
      <point x="764" y="531" type="line"/>
      <point x="754" y="471" type="line"/>
      <point x="623" y="471" type="line"/>
      <point x="549" y="0" type="line"/>
      <point x="470" y="0" type="line"/>
      <point x="544" y="471" type="line"/>
      <point x="262" y="471" type="line"/>
      <point x="188" y="0" type="line"/>
      <point x="108" y="0" type="line"/>
      <point x="183" y="471" type="line"/>
    </contour>
  </outline>
</glyph>
<glyph name="s_t" format="1">
  <advance width="849"/>
  <unicode hex="FB06"/>
  <outline>
    <contour>
      <point x="59" y="12" type="curve"/>
      <point x="66" y="58" type="line"/>
      <point x="306" y="58" type="line" smooth="yes"/>
      <point x="343" y="58"/>
      <point x="386" y="68"/>
      <point x="396" y="134" type="curve"/>
      <point x="401" y="169" type="line" smooth="yes"/>
      <point x="407" y="206"/>
      <point x="386" y="229"/>
      <point x="333" y="229" type="curve" smooth="yes"/>
      <point x="216" y="229" type="line" smooth="yes"/>
      <point x="122" y="229"/>
      <point x="76" y="256"/>
      <point x="92" y="359" type="curve" smooth="yes"/>
      <point x="98" y="407" type="line" smooth="yes"/>
      <point x="109" y="489"/>
      <point x="158" y="532"/>
      <point x="261" y="532" type="curve" smooth="yes"/>
      <point x="684" y="532" type="line"/>
      <point x="722" y="680" type="line"/>
      <point x="786" y="680" type="line"/>
      <point x="763" y="532" type="line"/>
      <point x="910" y="532" type="line"/>
      <point x="901" y="472" type="line"/>
      <point x="753" y="472" type="line"/>
      <point x="711" y="201" type="line" smooth="yes"/>
      <point x="690" y="72"/>
      <point x="736" y="64"/>
      <point x="762" y="58" type="curve" smooth="yes"/>
      <point x="762" y="58"/>
      <point x="818" y="44"/>
      <point x="825" y="44" type="curve"/>
      <point x="818" y="-2" type="line"/>
      <point x="736" y="-2" type="line" smooth="yes"/>
      <point x="653" y="-2"/>
      <point x="608" y="53"/>
      <point x="629" y="188" type="curve" smooth="yes"/>
      <point x="674" y="468" type="line"/>
      <point x="271" y="468" type="line" smooth="yes"/>
      <point x="210" y="468"/>
      <point x="185" y="445"/>
      <point x="176" y="390" type="curve" smooth="yes"/>
      <point x="171" y="357" type="line" smooth="yes"/>
      <point x="161" y="294"/>
      <point x="191" y="297"/>
      <point x="246" y="297" type="curve" smooth="yes"/>
      <point x="365" y="297" type="line" smooth="yes"/>
      <point x="453" y="297"/>
      <point x="493" y="246"/>
      <point x="481" y="173" type="curve"/>
      <point x="475" y="116" type="line"/>
      <point x="461" y="7"/>
      <point x="385" y="-7"/>
      <point x="321" y="-7" type="curve" smooth="yes"/>
      <point x="257" y="-7"/>
      <point x="94" y="-4"/>
    </contour>
  </outline>
</glyph>
<glyph name="A.smcp" format="1">
  <advance width="572"/>
  <note>
    GF Latin Plus glyph
  </note>
  <outline>
    <contour>
      <point x="224" y="215" type="line"/>
      <point x="368" y="497" type="line"/>
      <point x="419" y="215" type="line"/>
    </contour>
    <contour>
      <point x="39" y="0" type="line"/>
      <point x="117" y="0" type="line"/>
      <point x="196" y="150" type="line"/>
      <point x="427" y="150" type="line"/>
      <point x="456" y="0" type="line"/>
      <point x="535" y="0" type="line"/>
      <point x="426" y="560" type="line"/>
      <point x="330" y="560" type="line"/>
    </contour>
    <contour>
      <point x="383" y="616" type="move" name="top"/>
    </contour>
    <contour>
      <point x="477" y="0" type="move" name="ogonek"/>
    </contour>
    <contour>
      <point x="267" y="-114" type="move" name="bottom"/>
    </contour>
  </outline>
</glyph>
<glyph name="AE.smcp" format="1">
  <advance width="784"/>
  <note>
    GF Latin Plus glyph
  </note>
  <outline>
    <contour>
      <point x="272" y="211" type="line"/>
      <point x="466" y="460" type="line"/>
      <point x="426" y="211" type="line"/>
    </contour>
    <contour>
      <point x="29" y="0" type="line"/>
      <point x="105" y="0" type="line"/>
      <point x="227" y="149" type="line"/>
      <point x="418" y="149" type="line"/>
      <point x="408" y="82" type="line" smooth="yes"/>
      <point x="400" y="9"/>
      <point x="454" y="-4"/>
      <point x="524" y="-3" type="curve" smooth="yes"/>
      <point x="541" y="-3"/>
      <point x="708" y="1"/>
      <point x="743" y="6" type="curve"/>
      <point x="753" y="64" type="line"/>
      <point x="548" y="64" type="line" smooth="yes"/>
      <point x="507" y="64"/>
      <point x="473" y="73"/>
      <point x="482" y="127" type="curve" smooth="yes"/>
      <point x="501" y="246" type="line"/>
      <point x="747" y="251" type="line"/>
      <point x="756" y="306" type="line"/>
      <point x="511" y="311" type="line"/>
      <point x="528" y="424" type="line" smooth="yes"/>
      <point x="537" y="478"/>
      <point x="543" y="494"/>
      <point x="608" y="494" type="curve" smooth="yes"/>
      <point x="820" y="494" type="line"/>
      <point x="830" y="552" type="line"/>
      <point x="792" y="555"/>
      <point x="629" y="560"/>
      <point x="605" y="560" type="curve" smooth="yes"/>
      <point x="507" y="561"/>
      <point x="442" y="532"/>
      <point x="369" y="436" type="curve" smooth="yes"/>
    </contour>
    <contour>
      <point x="526" y="650" type="move" name="top"/>
    </contour>
  </outline>
</glyph>
<glyph name="B.smcp" format="1">
  <advance width="520"/>
  <note>
    GF Latin Plus glyph
  </note>
  <outline>
    <contour>
      <point x="194" y="318" type="line"/>
      <point x="222" y="495" type="line"/>
      <point x="354" y="495" type="line" smooth="yes"/>
      <point x="409" y="495"/>
      <point x="440" y="477"/>
      <point x="440" y="433" type="curve" smooth="yes"/>
      <point x="440" y="423"/>
      <point x="439" y="412"/>
      <point x="437" y="400" type="curve" smooth="yes"/>
      <point x="426" y="347"/>
      <point x="394" y="318"/>
      <point x="338" y="318" type="curve" smooth="yes"/>
    </contour>
    <contour>
      <point x="155" y="65" type="line"/>
      <point x="186" y="262" type="line"/>
      <point x="330" y="262" type="line" smooth="yes"/>
      <point x="384" y="262"/>
      <point x="419" y="234"/>
      <point x="420" y="186" type="curve" smooth="yes"/>
      <point x="420" y="178"/>
      <point x="419" y="168"/>
      <point x="416" y="155" type="curve" smooth="yes"/>
      <point x="404" y="101"/>
      <point x="376" y="65"/>
      <point x="299" y="65" type="curve" smooth="yes"/>
    </contour>
    <contour>
      <point x="69" y="0" type="line"/>
      <point x="290" y="0" type="line" smooth="yes"/>
      <point x="406" y="0"/>
      <point x="470" y="43"/>
      <point x="487" y="135" type="curve" smooth="yes"/>
      <point x="491" y="156"/>
      <point x="491" y="169"/>
      <point x="491" y="179" type="curve" smooth="yes"/>
      <point x="491" y="249"/>
      <point x="447" y="281"/>
      <point x="404" y="293" type="curve"/>
      <point x="459" y="304"/>
      <point x="502" y="348"/>
      <point x="512" y="412" type="curve" smooth="yes"/>
      <point x="515" y="426"/>
      <point x="515" y="438"/>
      <point x="515" y="450" type="curve" smooth="yes"/>
      <point x="515" y="517"/>
      <point x="476" y="560"/>
      <point x="369" y="560" type="curve" smooth="yes"/>
      <point x="157" y="560" type="line"/>
    </contour>
    <contour>
      <point x="332" y="616" type="move" name="top"/>
    </contour>
  </outline>
</glyph>
<glyph name="C.smcp" format="1">
  <advance width="499"/>
  <note>
    GF Latin Plus glyph
  </note>
  <outline>
    <contour>
      <point x="104" y="293" type="curve" smooth="yes"/>
      <point x="98" y="256"/>
      <point x="93" y="211"/>
      <point x="93" y="175" type="curve" smooth="yes"/>
      <point x="94" y="60"/>
      <point x="148" y="-5"/>
      <point x="271" y="-5" type="curve" smooth="yes"/>
      <point x="327" y="-5"/>
      <point x="391" y="0"/>
      <point x="444" y="14" type="curve"/>
      <point x="453" y="70" type="line"/>
      <point x="408" y="64"/>
      <point x="368" y="60"/>
      <point x="290" y="60" type="curve" smooth="yes"/>
      <point x="202" y="60"/>
      <point x="170" y="94"/>
      <point x="169" y="176" type="curve" smooth="yes"/>
      <point x="169" y="204"/>
      <point x="173" y="243"/>
      <point x="179" y="278" type="curve" smooth="yes"/>
      <point x="206" y="436"/>
      <point x="255" y="500"/>
      <point x="356" y="500" type="curve" smooth="yes"/>
      <point x="415" y="500"/>
      <point x="469" y="493"/>
      <point x="518" y="484" type="curve"/>
      <point x="528" y="539" type="line"/>
      <point x="488" y="550"/>
      <point x="429" y="565"/>
      <point x="344" y="565" type="curve" smooth="yes"/>
      <point x="198" y="565"/>
      <point x="130" y="469"/>
    </contour>
    <contour>
      <point x="369" y="650" type="move" name="top"/>
    </contour>
    <contour>
      <point x="251" y="-150" type="move" name="bottom"/>
    </contour>
  </outline>
</glyph>
<glyph name="E.smcp" format="1">
  <advance width="492"/>
  <note>
    GF Latin Plus glyph
  </note>
  <outline>
    <contour>
      <point x="86" y="111" type="line" smooth="yes"/>
      <point x="70" y="13"/>
      <point x="142" y="-5"/>
      <point x="198" y="-5" type="curve" smooth="yes"/>
      <point x="235" y="-5"/>
      <point x="403" y="1"/>
      <point x="435" y="4" type="curve"/>
      <point x="444" y="62" type="line"/>
      <point x="226" y="62" type="line" smooth="yes"/>
      <point x="183" y="62"/>
      <point x="156" y="75"/>
      <point x="164" y="127" type="curve" smooth="yes"/>
      <point x="183" y="247" type="line"/>
      <point x="436" y="250" type="line"/>
      <point x="445" y="306" type="line"/>
      <point x="194" y="312" type="line"/>
      <point x="211" y="428" type="line" smooth="yes"/>
      <point x="219" y="476"/>
      <point x="245" y="494"/>
      <point x="288" y="494" type="curve" smooth="yes"/>
      <point x="511" y="494" type="line"/>
      <point x="521" y="552" type="line"/>
      <point x="485" y="555"/>
      <point x="312" y="560"/>
      <point x="279" y="560" type="curve" smooth="yes"/>
      <point x="212" y="561"/>
      <point x="153" y="533"/>
      <point x="138" y="445" type="curve" smooth="yes"/>
    </contour>
    <contour>
      <point x="352" y="616" type="move" name="top"/>
    </contour>
    <contour>
      <point x="425" y="4" type="move" name="ogonek"/>
    </contour>
    <contour>
      <point x="237" y="-114" type="move" name="bottom"/>
    </contour>
  </outline>
</glyph>
<glyph name="Eng.smcp" format="1">
  <advance width="567"/>
  <note>
    GF Latin Plus glyph
  </note>
  <outline>
    <contour>
      <point x="235" y="-168" type="line"/>
      <point x="256" y="-177"/>
      <point x="293" y="-185"/>
      <point x="325" y="-185" type="curve" smooth="yes"/>
      <point x="425" y="-185"/>
      <point x="480" y="-146"/>
      <point x="494" y="-53" type="curve" smooth="yes"/>
      <point x="506" y="25" type="line"/>
      <point x="431" y="26" type="line"/>
      <point x="420" y="-44" type="line" smooth="yes"/>
      <point x="410" y="-103"/>
      <point x="373" y="-120"/>
      <point x="322" y="-120" type="curve" smooth="yes"/>
      <point x="308" y="-120"/>
      <point x="257" y="-116"/>
      <point x="244" y="-112" type="curve"/>
    </contour>
    <component base="N.smcp"/>
  </outline>
</glyph>
<glyph name="Eth.smcp" format="1">
  <advance width="569"/>
  <note>
    GF Latin Plus glyph
  </note>
  <outline>
    <contour>
      <point x="56" y="259" type="line"/>
      <point x="321" y="259" type="line"/>
      <point x="329" y="308" type="line"/>
      <point x="65" y="308" type="line"/>
    </contour>
    <component base="D.smcp"/>
  </outline>
</glyph>
<glyph name="Germandbls.smcp" format="1">
  <advance width="573"/>
  <note>
    GF Latin Plus glyph
  </note>
  <outline>
    <contour>
      <point x="367" y="288" type="line"/>
      <point x="560" y="499" type="line"/>
      <point x="568" y="554" type="line"/>
      <point x="478" y="497" type="line"/>
      <point x="302" y="300" type="line"/>
    </contour>
    <contour>
      <point x="294" y="248" type="line"/>
      <point x="395" y="248" type="line" smooth="yes"/>
      <point x="446" y="248"/>
      <point x="469" y="228"/>
      <point x="469" y="192" type="curve" smooth="yes"/>
      <point x="469" y="186"/>
      <point x="468" y="179"/>
      <point x="462" y="137" type="curve" smooth="yes"/>
      <point x="452" y="73"/>
      <point x="400" y="60"/>
      <point x="333" y="60" type="curve" smooth="yes"/>
      <point x="295" y="60"/>
      <point x="250" y="65"/>
      <point x="225" y="69" type="curve"/>
      <point x="216" y="7" type="line"/>
      <point x="243" y="1"/>
      <point x="303" y="-5"/>
      <point x="333" y="-5" type="curve" smooth="yes"/>
      <point x="435" y="-5"/>
      <point x="518" y="20"/>
      <point x="537" y="127" type="curve" smooth="yes"/>
      <point x="546" y="175"/>
      <point x="547" y="189"/>
      <point x="547" y="197" type="curve" smooth="yes"/>
      <point x="546" y="264"/>
      <point x="497" y="300"/>
      <point x="415" y="300" type="curve" smooth="yes"/>
      <point x="302" y="300" type="line"/>
    </contour>
    <contour>
      <point x="72" y="0" type="line"/>
      <point x="148" y="0" type="line"/>
      <point x="216" y="432" type="line" smooth="yes"/>
      <point x="223" y="476"/>
      <point x="251" y="495"/>
      <point x="293" y="495" type="curve" smooth="yes"/>
      <point x="527" y="495" type="line"/>
      <point x="568" y="554" type="line"/>
      <point x="537" y="556"/>
      <point x="353" y="560"/>
      <point x="302" y="560" type="curve" smooth="yes"/>
      <point x="223" y="561"/>
      <point x="156" y="526"/>
      <point x="140" y="431" type="curve" smooth="yes"/>
    </contour>
  </outline>
</glyph>
<glyph name="H.smcp" format="1">
  <advance width="565"/>
  <note>
    GF Latin Plus glyph
  </note>
  <outline>
    <contour>
      <point x="68" y="0" type="line"/>
      <point x="144" y="0" type="line"/>
      <point x="182" y="242" type="line"/>
      <point x="462" y="242" type="line"/>
      <point x="424" y="0" type="line"/>
      <point x="500" y="0" type="line"/>
      <point x="589" y="560" type="line"/>
      <point x="513" y="560" type="line"/>
      <point x="473" y="306" type="line"/>
      <point x="193" y="306" type="line"/>
      <point x="233" y="560" type="line"/>
      <point x="157" y="560" type="line"/>
    </contour>
    <contour>
      <point x="380" y="616" type="move" name="top"/>
    </contour>
    <contour>
      <point x="264" y="-114" type="move" name="bottom"/>
    </contour>
  </outline>
</glyph>
<glyph name="I.smcp" format="1">
  <advance width="212"/>
  <note>
    GF Latin Plus glyph
  </note>
  <outline>
    <contour>
      <point x="68" y="0" type="line"/>
      <point x="144" y="0" type="line"/>
      <point x="233" y="560" type="line"/>
      <point x="157" y="560" type="line"/>
    </contour>
    <contour>
      <point x="203" y="616" type="move" name="top"/>
    </contour>
    <contour>
      <point x="135" y="0" type="move" name="ogonek"/>
    </contour>
    <contour>
      <point x="88" y="-114" type="move" name="bottom"/>
    </contour>
  </outline>
</glyph>
<glyph name="K.smcp" format="1">
  <advance width="513"/>
  <note>
    GF Latin Plus glyph
  </note>
  <outline>
    <contour>
      <point x="68" y="0" type="line"/>
      <point x="144" y="0" type="line"/>
      <point x="183" y="248" type="line"/>
      <point x="287" y="248" type="line"/>
      <point x="408" y="0" type="line"/>
      <point x="484" y="0" type="line"/>
      <point x="350" y="280" type="line"/>
      <point x="561" y="560" type="line"/>
      <point x="483" y="560" type="line"/>
      <point x="292" y="313" type="line"/>
      <point x="193" y="313" type="line"/>
      <point x="233" y="560" type="line"/>
      <point x="157" y="560" type="line"/>
    </contour>
    <contour>
      <point x="356" y="650" type="move" name="top"/>
    </contour>
    <contour>
      <point x="225" y="-150" type="move" name="bottom"/>
    </contour>
  </outline>
</glyph>
<glyph name="M.salt.smcp" format="1">
  <advance width="708"/>
  <outline>
    <contour>
      <point x="56" y="0" type="line"/>
      <point x="129" y="0" type="line"/>
      <point x="236" y="465" type="line" smooth="yes"/>
      <point x="241" y="490"/>
      <point x="254" y="497"/>
      <point x="268" y="497" type="curve" smooth="yes"/>
      <point x="279" y="497"/>
      <point x="287" y="489"/>
      <point x="289" y="468" type="curve" smooth="yes"/>
      <point x="317" y="197" type="line" smooth="yes"/>
      <point x="320" y="158"/>
      <point x="343" y="136"/>
      <point x="380" y="136" type="curve" smooth="yes"/>
      <point x="415" y="136"/>
      <point x="448" y="153"/>
      <point x="464" y="197" type="curve" smooth="yes"/>
      <point x="574" y="471" type="line" smooth="yes"/>
      <point x="581" y="489"/>
      <point x="591" y="498"/>
      <point x="600" y="498" type="curve" smooth="yes"/>
      <point x="609" y="498"/>
      <point x="615" y="493"/>
      <point x="615" y="473" type="curve" smooth="yes"/>
      <point x="615" y="471"/>
      <point x="615" y="466"/>
      <point x="614" y="460" type="curve" smooth="yes"/>
      <point x="576" y="0" type="line"/>
      <point x="650" y="0" type="line"/>
      <point x="689" y="479" type="line" smooth="yes"/>
      <point x="689" y="483"/>
      <point x="689" y="488"/>
      <point x="689" y="494" type="curve" smooth="yes"/>
      <point x="689" y="552"/>
      <point x="658" y="568"/>
      <point x="618" y="568" type="curve" smooth="yes"/>
      <point x="576" y="568"/>
      <point x="540" y="550"/>
      <point x="521" y="491" type="curve" smooth="yes"/>
      <point x="419" y="238" type="line" smooth="yes"/>
      <point x="413" y="217"/>
      <point x="403" y="211"/>
      <point x="393" y="211" type="curve" smooth="yes"/>
      <point x="383" y="211"/>
      <point x="377" y="217"/>
      <point x="376" y="240" type="curve" smooth="yes"/>
      <point x="348" y="490" type="line" smooth="yes"/>
      <point x="345" y="540"/>
      <point x="320" y="569"/>
      <point x="270" y="569" type="curve" smooth="yes"/>
      <point x="223" y="569"/>
      <point x="181" y="547"/>
      <point x="166" y="477" type="curve" smooth="yes"/>
    </contour>
    <contour>
      <point x="446" y="616" type="move" name="top"/>
    </contour>
    <contour>
      <point x="331" y="-114" type="move" name="bottom"/>
    </contour>
  </outline>
</glyph>
<glyph name="M.smcp" format="1">
  <advance width="690"/>
  <note>
    GF Latin Plus glyph
  </note>
  <outline>
    <contour>
      <point x="55" y="0" type="line"/>
      <point x="131" y="0" type="line"/>
      <point x="249" y="427" type="line"/>
      <point x="318" y="0" type="line"/>
      <point x="389" y="0" type="line"/>
      <point x="594" y="430" type="line"/>
      <point x="577" y="0" type="line"/>
      <point x="651" y="0" type="line"/>
      <point x="671" y="560" type="line"/>
      <point x="601" y="560" type="line"/>
      <point x="368" y="92" type="line"/>
      <point x="284" y="560" type="line"/>
      <point x="214" y="560" type="line"/>
    </contour>
    <contour>
      <point x="450" y="650" type="move" name="top"/>
    </contour>
    <contour>
      <point x="323" y="-150" type="move" name="bottom"/>
    </contour>
  </outline>
</glyph>
<glyph name="N.salt.smcp" format="1">
  <advance width="626"/>
  <outline>
    <contour>
      <point x="81" y="0" type="line"/>
      <point x="157" y="0" type="line"/>
      <point x="230" y="454" type="line" smooth="yes"/>
      <point x="234" y="484"/>
      <point x="249" y="492"/>
      <point x="268" y="492" type="curve" smooth="yes"/>
      <point x="283" y="492"/>
      <point x="292" y="484"/>
      <point x="295" y="466" type="curve" smooth="yes"/>
      <point x="374" y="71" type="line" smooth="yes"/>
      <point x="381" y="20"/>
      <point x="409" y="-5"/>
      <point x="461" y="-5" type="curve" smooth="yes"/>
      <point x="520" y="-5"/>
      <point x="567" y="18"/>
      <point x="578" y="90" type="curve" smooth="yes"/>
      <point x="653" y="560" type="line"/>
      <point x="577" y="560" type="line"/>
      <point x="503" y="99" type="line" smooth="yes"/>
      <point x="499" y="73"/>
      <point x="484" y="66"/>
      <point x="468" y="66" type="curve" smooth="yes"/>
      <point x="450" y="66"/>
      <point x="441" y="73"/>
      <point x="438" y="91" type="curve" smooth="yes"/>
      <point x="360" y="487" type="line" smooth="yes"/>
      <point x="352" y="534"/>
      <point x="328" y="565"/>
      <point x="271" y="565" type="curve" smooth="yes"/>
      <point x="214" y="565"/>
      <point x="167" y="541"/>
      <point x="156" y="466" type="curve" smooth="yes"/>
    </contour>
    <contour>
      <point x="428" y="616" type="move" name="top"/>
    </contour>
    <contour>
      <point x="306" y="-114" type="move" name="bottom"/>
    </contour>
  </outline>
</glyph>
<glyph name="N.smcp" format="1">
  <advance width="567"/>
  <note>
    GF Latin Plus glyph
  </note>
  <outline>
    <contour>
      <point x="68" y="0" type="line"/>
      <point x="144" y="0" type="line"/>
      <point x="214" y="439" type="line"/>
      <point x="440" y="0" type="line"/>
      <point x="502" y="0" type="line"/>
      <point x="591" y="560" type="line"/>
      <point x="515" y="560" type="line"/>
      <point x="445" y="122" type="line"/>
      <point x="219" y="560" type="line"/>
      <point x="157" y="560" type="line"/>
    </contour>
    <contour>
      <point x="372" y="616" type="move" name="top"/>
    </contour>
    <contour>
      <point x="257" y="-114" type="move" name="bottom"/>
    </contour>
  </outline>
</glyph>
<glyph name="O.smcp" format="1">
  <advance width="579"/>
  <note>
    GF Latin Plus glyph
  </note>
  <outline>
    <contour>
      <point x="167" y="167" type="curve" smooth="yes"/>
      <point x="167" y="195"/>
      <point x="171" y="233"/>
      <point x="178" y="278" type="curve" smooth="yes"/>
      <point x="207" y="461"/>
      <point x="258" y="500"/>
      <point x="368" y="500" type="curve" smooth="yes"/>
      <point x="452" y="500"/>
      <point x="498" y="481"/>
      <point x="499" y="388" type="curve" smooth="yes"/>
      <point x="499" y="360"/>
      <point x="496" y="320"/>
      <point x="488" y="274" type="curve" smooth="yes"/>
      <point x="460" y="102"/>
      <point x="414" y="60"/>
      <point x="300" y="60" type="curve" smooth="yes"/>
      <point x="208" y="60"/>
      <point x="168" y="79"/>
    </contour>
    <contour>
      <point x="91" y="164" type="curve" smooth="yes"/>
      <point x="93" y="24"/>
      <point x="168" y="-5"/>
      <point x="288" y="-5" type="curve" smooth="yes"/>
      <point x="448" y="-5"/>
      <point x="529" y="40"/>
      <point x="564" y="263" type="curve" smooth="yes"/>
      <point x="572" y="311"/>
      <point x="576" y="355"/>
      <point x="575" y="388" type="curve" smooth="yes"/>
      <point x="574" y="532"/>
      <point x="495" y="565"/>
      <point x="379" y="565" type="curve" smooth="yes"/>
      <point x="216" y="565"/>
      <point x="137" y="509"/>
      <point x="102" y="289" type="curve" smooth="yes"/>
      <point x="95" y="242"/>
      <point x="91" y="198"/>
    </contour>
    <contour>
      <point x="389" y="616" type="move" name="top"/>
    </contour>
    <contour>
      <point x="354" y="0" type="move" name="ogonek"/>
    </contour>
    <contour>
      <point x="274" y="-114" type="move" name="bottom"/>
    </contour>
  </outline>
</glyph>
<glyph name="R.smcp" format="1">
  <advance width="524"/>
  <note>
    GF Latin Plus glyph
  </note>
  <outline>
    <contour>
      <point x="189" y="284" type="line"/>
      <point x="222" y="495" type="line"/>
      <point x="359" y="495" type="line" smooth="yes"/>
      <point x="401" y="495"/>
      <point x="445" y="483"/>
      <point x="445" y="419" type="curve" smooth="yes"/>
      <point x="445" y="410"/>
      <point x="445" y="398"/>
      <point x="442" y="383" type="curve" smooth="yes"/>
      <point x="429" y="299"/>
      <point x="384" y="284"/>
      <point x="330" y="284" type="curve" smooth="yes"/>
    </contour>
    <contour>
      <point x="68" y="0" type="line"/>
      <point x="144" y="0" type="line"/>
      <point x="180" y="228" type="line"/>
      <point x="216" y="227"/>
      <point x="288" y="226"/>
      <point x="321" y="226" type="curve"/>
      <point x="395" y="0" type="line"/>
      <point x="472" y="0" type="line"/>
      <point x="391" y="236" type="line"/>
      <point x="434" y="245"/>
      <point x="502" y="267"/>
      <point x="520" y="383" type="curve" smooth="yes"/>
      <point x="523" y="400"/>
      <point x="524" y="415"/>
      <point x="524" y="429" type="curve" smooth="yes"/>
      <point x="523" y="531"/>
      <point x="453" y="560"/>
      <point x="375" y="560" type="curve" smooth="yes"/>
      <point x="157" y="560" type="line"/>
    </contour>
    <contour>
      <point x="334" y="616" type="move" name="top"/>
    </contour>
    <contour>
      <point x="227" y="-114" type="move" name="bottom"/>
    </contour>
  </outline>
</glyph>
<glyph name="S.smcp" format="1">
  <advance width="483"/>
  <note>
    GF Latin Plus glyph
  </note>
  <outline>
    <contour>
      <point x="68" y="10" type="line"/>
      <point x="111" y="2"/>
      <point x="186" y="-5"/>
      <point x="255" y="-5" type="curve" smooth="yes"/>
      <point x="375" y="-5"/>
      <point x="444" y="28"/>
      <point x="459" y="127" type="curve" smooth="yes"/>
      <point x="468" y="189"/>
      <point x="468" y="199"/>
      <point x="468" y="209" type="curve" smooth="yes"/>
      <point x="468" y="274"/>
      <point x="432" y="314"/>
      <point x="331" y="314" type="curve" smooth="yes"/>
      <point x="264" y="314" type="line" smooth="yes"/>
      <point x="216" y="314"/>
      <point x="193" y="327"/>
      <point x="193" y="364" type="curve" smooth="yes"/>
      <point x="193" y="371"/>
      <point x="193" y="379"/>
      <point x="201" y="421" type="curve" smooth="yes"/>
      <point x="211" y="485"/>
      <point x="246" y="499"/>
      <point x="315" y="499" type="curve" smooth="yes"/>
      <point x="358" y="499"/>
      <point x="436" y="496"/>
      <point x="490" y="492" type="curve"/>
      <point x="498" y="548" type="line"/>
      <point x="449" y="558"/>
      <point x="367" y="565"/>
      <point x="322" y="565" type="curve" smooth="yes"/>
      <point x="216" y="565"/>
      <point x="145" y="535"/>
      <point x="128" y="427" type="curve" smooth="yes"/>
      <point x="120" y="368"/>
      <point x="118" y="359"/>
      <point x="119" y="348" type="curve" smooth="yes"/>
      <point x="119" y="282"/>
      <point x="165" y="246"/>
      <point x="247" y="246" type="curve" smooth="yes"/>
      <point x="313" y="246" type="line" smooth="yes"/>
      <point x="370" y="246"/>
      <point x="394" y="230"/>
      <point x="395" y="193" type="curve" smooth="yes"/>
      <point x="395" y="187"/>
      <point x="394" y="178"/>
      <point x="387" y="136" type="curve" smooth="yes"/>
      <point x="378" y="73"/>
      <point x="332" y="60"/>
      <point x="256" y="60" type="curve" smooth="yes"/>
      <point x="193" y="60"/>
      <point x="122" y="62"/>
      <point x="76" y="66" type="curve"/>
    </contour>
    <contour>
      <point x="337" y="616" type="move" name="top"/>
    </contour>
    <contour>
      <point x="221" y="-114" type="move" name="bottom"/>
    </contour>
  </outline>
</glyph>
<glyph name="Schwa.smcp" format="1">
  <advance width="518"/>
  <note>
    GF Latin Plus glyph
  </note>
  <outline>
    <contour>
      <point x="254" y="-5" type="curve" smooth="yes"/>
      <point x="377" y="-5"/>
      <point x="469" y="50"/>
      <point x="506" y="281" type="curve" smooth="yes"/>
      <point x="513" y="327"/>
      <point x="517" y="364"/>
      <point x="516" y="396" type="curve" smooth="yes"/>
      <point x="515" y="532"/>
      <point x="443" y="565"/>
      <point x="321" y="565" type="curve" smooth="yes"/>
      <point x="256" y="565"/>
      <point x="204" y="555"/>
      <point x="167" y="546" type="curve"/>
      <point x="158" y="491" type="line"/>
      <point x="183" y="494"/>
      <point x="223" y="500"/>
      <point x="293" y="500" type="curve" smooth="yes"/>
      <point x="393" y="500"/>
      <point x="440" y="479"/>
      <point x="441" y="392" type="curve" smooth="yes"/>
      <point x="441" y="368"/>
      <point x="438" y="338"/>
      <point x="433" y="302" type="curve"/>
      <point x="105" y="302" type="line"/>
      <point x="98" y="265" type="line" smooth="yes"/>
      <point x="91" y="219"/>
      <point x="89" y="186"/>
      <point x="89" y="159" type="curve" smooth="yes"/>
      <point x="90" y="41"/>
      <point x="148" y="-5"/>
    </contour>
    <contour>
      <point x="262" y="60" type="curve" smooth="yes"/>
      <point x="192" y="60"/>
      <point x="165" y="92"/>
      <point x="164" y="163" type="curve" smooth="yes"/>
      <point x="164" y="185"/>
      <point x="167" y="212"/>
      <point x="171" y="243" type="curve"/>
      <point x="421" y="243" type="line"/>
      <point x="391" y="98"/>
      <point x="342" y="60"/>
    </contour>
  </outline>
</glyph>
<glyph name="T.smcp" format="1">
  <advance width="512"/>
  <note>
    GF Latin Plus glyph
  </note>
  <outline>
    <contour>
      <point x="111" y="495" type="line"/>
      <point x="292" y="495" type="line"/>
      <point x="214" y="0" type="line"/>
      <point x="290" y="0" type="line"/>
      <point x="368" y="495" type="line"/>
      <point x="550" y="495" type="line"/>
      <point x="561" y="560" type="line"/>
      <point x="122" y="560" type="line"/>
    </contour>
    <contour>
      <point x="347" y="616" type="move" name="top"/>
    </contour>
    <contour>
      <point x="232" y="-114" type="move" name="bottom"/>
    </contour>
  </outline>
</glyph>
<glyph name="Tbar.smcp" format="1">
  <advance width="508"/>
  <note>
    GF Latin Plus glyph
  </note>
  <outline>
    <contour>
      <point x="110" y="274" type="line"/>
      <point x="482" y="274" type="line"/>
      <point x="488" y="314" type="line"/>
      <point x="115" y="314" type="line"/>
    </contour>
    <component base="T.smcp"/>
  </outline>
</glyph>
<glyph name="Thorn.smcp" format="1">
  <advance width="471"/>
  <note>
    GF Latin Plus glyph
  </note>
  <outline>
    <contour>
      <point x="232" y="560" type="line"/>
      <point x="157" y="560" type="line"/>
      <point x="68" y="0" type="line"/>
      <point x="144" y="0" type="line"/>
    </contour>
    <contour>
      <point x="184" y="393" type="line"/>
      <point x="310" y="393" type="line" smooth="yes"/>
      <point x="364" y="393"/>
      <point x="395" y="373"/>
      <point x="396" y="322" type="curve" smooth="yes"/>
      <point x="396" y="313"/>
      <point x="394" y="294"/>
      <point x="392" y="280" type="curve" smooth="yes"/>
      <point x="380" y="209"/>
      <point x="331" y="185"/>
      <point x="275" y="185" type="curve" smooth="yes"/>
      <point x="156" y="185" type="line"/>
      <point x="147" y="131" type="line"/>
      <point x="190" y="126"/>
      <point x="237" y="120"/>
      <point x="284" y="120" type="curve" smooth="yes"/>
      <point x="362" y="120"/>
      <point x="448" y="152"/>
      <point x="467" y="274" type="curve" smooth="yes"/>
      <point x="470" y="291"/>
      <point x="473" y="315"/>
      <point x="473" y="328" type="curve" smooth="yes"/>
      <point x="472" y="427"/>
      <point x="406" y="456"/>
      <point x="323" y="456" type="curve" smooth="yes"/>
      <point x="193" y="456" type="line"/>
    </contour>
  </outline>
</glyph>
<glyph name="U.smcp" format="1">
  <advance width="571"/>
  <note>
    GF Latin Plus glyph
  </note>
  <outline>
    <contour>
      <point x="108" y="252" type="line" smooth="yes"/>
      <point x="102" y="217"/>
      <point x="99" y="181"/>
      <point x="100" y="154" type="curve" smooth="yes"/>
      <point x="101" y="39"/>
      <point x="165" y="-5"/>
      <point x="286" y="-5" type="curve" smooth="yes"/>
      <point x="423" y="-5"/>
      <point x="508" y="29"/>
      <point x="540" y="234" type="curve" smooth="yes"/>
      <point x="592" y="560" type="line"/>
      <point x="516" y="560" type="line"/>
      <point x="466" y="243" type="line" smooth="yes"/>
      <point x="441" y="86"/>
      <point x="387" y="60"/>
      <point x="294" y="60" type="curve" smooth="yes"/>
      <point x="215" y="60"/>
      <point x="176" y="86"/>
      <point x="175" y="160" type="curve" smooth="yes"/>
      <point x="174" y="181"/>
      <point x="178" y="213"/>
      <point x="183" y="243" type="curve" smooth="yes"/>
      <point x="233" y="560" type="line"/>
      <point x="157" y="560" type="line"/>
    </contour>
    <contour>
      <point x="376" y="616" type="move" name="top"/>
    </contour>
    <contour>
      <point x="350" y="0" type="move" name="ogonek"/>
    </contour>
    <contour>
      <point x="260" y="-114" type="move" name="bottom"/>
    </contour>
  </outline>
</glyph>
<glyph name="V.smcp" format="1">
  <advance width="572"/>
  <note>
    GF Latin Plus glyph
  </note>
  <outline>
    <contour>
      <point x="127" y="560" type="line"/>
      <point x="235" y="0" type="line"/>
      <point x="332" y="0" type="line"/>
      <point x="623" y="560" type="line"/>
      <point x="545" y="560" type="line"/>
      <point x="296" y="78" type="line"/>
      <point x="205" y="560" type="line"/>
    </contour>
  </outline>
</glyph>
<glyph name="W.smcp" format="1">
  <advance width="837"/>
  <note>
    GF Latin Plus glyph
  </note>
  <outline>
    <contour>
      <point x="128" y="560" type="line"/>
      <point x="204" y="0" type="line"/>
      <point x="286" y="0" type="line"/>
      <point x="485" y="456" type="line"/>
      <point x="533" y="0" type="line"/>
      <point x="614" y="0" type="line"/>
      <point x="875" y="560" type="line"/>
      <point x="796" y="560" type="line"/>
      <point x="581" y="103" type="line"/>
      <point x="537" y="560" type="line"/>
      <point x="463" y="560" type="line"/>
      <point x="269" y="103" type="line"/>
      <point x="206" y="560" type="line"/>
    </contour>
    <contour>
      <point x="515" y="616" type="move" name="top"/>
    </contour>
  </outline>
</glyph>
<glyph name="X.salt" format="1">
  <advance width="635"/>
  <outline>
    <contour>
      <point x="37" y="0" type="line"/>
      <point x="123" y="0" type="line"/>
      <point x="307" y="251" type="line" smooth="yes"/>
      <point x="341" y="298"/>
      <point x="361" y="350"/>
      <point x="361" y="401" type="curve" smooth="yes"/>
      <point x="361" y="435"/>
      <point x="350" y="468"/>
      <point x="337" y="496" type="curve" smooth="yes"/>
      <point x="235" y="736" type="line"/>
      <point x="152" y="736" type="line"/>
      <point x="260" y="473" type="line" smooth="yes"/>
      <point x="272" y="445"/>
      <point x="281" y="418"/>
      <point x="281" y="391" type="curve" smooth="yes"/>
      <point x="281" y="351"/>
      <point x="263" y="311"/>
      <point x="234" y="272" type="curve" smooth="yes"/>
    </contour>
    <contour>
      <point x="513" y="0" type="line"/>
      <point x="599" y="0" type="line"/>
      <point x="487" y="272" type="line" smooth="yes"/>
      <point x="478" y="296"/>
      <point x="474" y="317"/>
      <point x="474" y="339" type="curve" smooth="yes"/>
      <point x="474" y="383"/>
      <point x="496" y="429"/>
      <point x="528" y="473" type="curve" smooth="yes"/>
      <point x="716" y="736" type="line"/>
      <point x="633" y="736" type="line"/>
      <point x="457" y="496" type="line" smooth="yes"/>
      <point x="421" y="447"/>
      <point x="393" y="387"/>
      <point x="393" y="329" type="curve" smooth="yes"/>
      <point x="393" y="303"/>
      <point x="398" y="276"/>
      <point x="409" y="251" type="curve" smooth="yes"/>
    </contour>
    <contour>
      <point x="445" y="810" type="move" name="top"/>
    </contour>
    <contour>
      <point x="293" y="-150" type="move" name="bottom"/>
    </contour>
  </outline>
</glyph>
<glyph name="X.smcp" format="1">
  <advance width="527"/>
  <note>
    GF Latin Plus glyph
  </note>
  <outline>
    <contour>
      <point x="37" y="0" type="line"/>
      <point x="124" y="0" type="line"/>
      <point x="309" y="234" type="line"/>
      <point x="277" y="298" type="line"/>
    </contour>
    <contour>
      <point x="307" y="319" type="line"/>
      <point x="338" y="257" type="line"/>
      <point x="585" y="560" type="line"/>
      <point x="499" y="560" type="line"/>
    </contour>
    <contour>
      <point x="281" y="253" type="line"/>
      <point x="409" y="0" type="line"/>
      <point x="492" y="0" type="line"/>
      <point x="337" y="301" type="line"/>
      <point x="207" y="560" type="line"/>
      <point x="123" y="560" type="line"/>
    </contour>
    <contour>
      <point x="365" y="650" type="move" name="top"/>
    </contour>
    <contour>
      <point x="239" y="-150" type="move" name="bottom"/>
    </contour>
  </outline>
</glyph>
<glyph name="Y.smcp" format="1">
  <advance width="523"/>
  <note>
    GF Latin Plus glyph
  </note>
  <outline>
    <contour>
      <point x="119" y="560" type="line"/>
      <point x="245" y="178" type="line"/>
      <point x="217" y="0" type="line"/>
      <point x="293" y="0" type="line"/>
      <point x="321" y="178" type="line"/>
      <point x="582" y="560" type="line"/>
      <point x="496" y="560" type="line"/>
      <point x="294" y="259" type="line"/>
      <point x="201" y="560" type="line"/>
    </contour>
    <contour>
      <point x="352" y="616" type="move" name="top"/>
    </contour>
    <contour>
      <point x="236" y="-114" type="move" name="bottom"/>
    </contour>
  </outline>
</glyph>
<glyph name="a.salt" format="1">
  <advance width="564"/>
  <outline>
    <contour>
      <point x="171" y="268" type="curve" smooth="yes"/>
      <point x="194" y="410"/>
      <point x="238" y="474"/>
      <point x="364" y="474" type="curve" smooth="yes"/>
      <point x="423" y="474"/>
      <point x="468" y="457"/>
      <point x="487" y="446" type="curve"/>
      <point x="431" y="90" type="line"/>
      <point x="387" y="72"/>
      <point x="334" y="59"/>
      <point x="272" y="59" type="curve" smooth="yes"/>
      <point x="205" y="59"/>
      <point x="162" y="102"/>
      <point x="162" y="187" type="curve" smooth="yes"/>
      <point x="162" y="207"/>
      <point x="165" y="233"/>
    </contour>
    <contour>
      <point x="94" y="278" type="curve" smooth="yes"/>
      <point x="89" y="249"/>
      <point x="83" y="209"/>
      <point x="83" y="175" type="curve" smooth="yes"/>
      <point x="83" y="47"/>
      <point x="153" y="-6"/>
      <point x="260" y="-6" type="curve" smooth="yes"/>
      <point x="341" y="-6"/>
      <point x="445" y="17"/>
      <point x="504" y="42" type="curve"/>
      <point x="573" y="480" type="line"/>
      <point x="526" y="521"/>
      <point x="440" y="540"/>
      <point x="368" y="540" type="curve" smooth="yes"/>
      <point x="199" y="540"/>
      <point x="122" y="457"/>
    </contour>
  </outline>
</glyph>
<glyph name="a.superior" format="1">
  <advance width="423"/>
  <note>
    GF Latin Plus glyph
  </note>
  <outline>
    <contour>
      <point x="179" y="478" type="curve" smooth="yes"/>
      <point x="195" y="575"/>
      <point x="225" y="620"/>
      <point x="315" y="620" type="curve" smooth="yes"/>
      <point x="356" y="620"/>
      <point x="387" y="609"/>
      <point x="402" y="601" type="curve"/>
      <point x="364" y="366" type="line"/>
      <point x="330" y="348"/>
      <point x="295" y="332"/>
      <point x="250" y="332" type="curve" smooth="yes"/>
      <point x="202" y="332"/>
      <point x="171" y="362"/>
      <point x="171" y="419" type="curve" smooth="yes"/>
      <point x="171" y="434"/>
      <point x="174" y="453"/>
    </contour>
    <contour>
      <point x="113" y="485" type="curve" smooth="yes"/>
      <point x="109" y="464"/>
      <point x="105" y="434"/>
      <point x="105" y="409" type="curve" smooth="yes"/>
      <point x="105" y="315"/>
      <point x="157" y="276"/>
      <point x="222" y="276" type="curve" smooth="yes"/>
      <point x="274" y="276"/>
      <point x="337" y="305"/>
      <point x="358" y="321" type="curve"/>
      <point x="361" y="280" type="line"/>
      <point x="418" y="280" type="line"/>
      <point x="474" y="632" type="line"/>
      <point x="438" y="661"/>
      <point x="374" y="676"/>
      <point x="318" y="676" type="curve" smooth="yes"/>
      <point x="191" y="676"/>
      <point x="133" y="615"/>
    </contour>
    <contour>
      <point x="328" y="756" type="move" name="top"/>
    </contour>
    <contour>
      <point x="410" y="280" type="move" name="ogonek"/>
    </contour>
    <contour>
      <point x="236" y="170" type="move" name="bottom"/>
    </contour>
  </outline>
</glyph>
<glyph name="acute.smcp" format="1">
  <advance width="244"/>
  <outline>
    <contour>
      <point x="95" y="531" type="line"/>
      <point x="195" y="674" type="line"/>
      <point x="340" y="674" type="line"/>
      <point x="204" y="531" type="line"/>
    </contour>
  </outline>
</glyph>
<glyph name="adieresis.smcp" format="1">
  <advance width="620"/>
  <outline>
    <contour>
      <point x="488" y="696" type="curve" smooth="yes"/>
      <point x="494" y="732"/>
      <point x="528" y="761"/>
      <point x="564" y="761" type="curve" smooth="yes"/>
      <point x="600" y="761"/>
      <point x="625" y="732"/>
      <point x="619" y="696" type="curve" smooth="yes"/>
      <point x="613" y="660"/>
      <point x="579" y="630"/>
      <point x="543" y="630" type="curve" smooth="yes"/>
      <point x="507" y="630"/>
      <point x="482" y="660"/>
    </contour>
    <contour>
      <point x="233" y="696" type="curve" smooth="yes"/>
      <point x="239" y="732"/>
      <point x="273" y="761"/>
      <point x="309" y="761" type="curve" smooth="yes"/>
      <point x="345" y="761"/>
      <point x="370" y="732"/>
      <point x="364" y="696" type="curve" smooth="yes"/>
      <point x="358" y="660"/>
      <point x="324" y="630"/>
      <point x="288" y="630" type="curve" smooth="yes"/>
      <point x="252" y="630"/>
      <point x="227" y="660"/>
    </contour>
    <contour>
      <point x="322" y="231" type="line"/>
      <point x="390" y="231" type="line"/>
      <point x="375" y="344" type="line"/>
    </contour>
    <contour>
      <point x="20" y="0" type="line"/>
      <point x="283" y="570" type="line"/>
      <point x="527" y="570" type="line"/>
      <point x="601" y="0" type="line"/>
      <point x="415" y="0" type="line"/>
      <point x="403" y="87" type="line"/>
      <point x="259" y="87" type="line"/>
      <point x="221" y="0" type="line"/>
    </contour>
  </outline>
</glyph>
<glyph name="ae.smcp" format="1">
  <advance width="825"/>
  <outline>
    <contour>
      <point x="352" y="242" type="line"/>
      <point x="399" y="242" type="line"/>
      <point x="419" y="366" type="line"/>
    </contour>
    <contour>
      <point x="13" y="0" type="line"/>
      <point x="253" y="445" type="line" smooth="yes"/>
      <point x="327" y="582"/>
      <point x="501" y="569"/>
      <point x="595" y="570" type="curve"/>
      <point x="595" y="570"/>
      <point x="800" y="570"/>
      <point x="890" y="553" type="curve"/>
      <point x="866" y="407" type="line"/>
      <point x="651" y="407" type="line" smooth="yes"/>
      <point x="621" y="407"/>
      <point x="618" y="398"/>
      <point x="614" y="374" type="curve" smooth="yes"/>
      <point x="612" y="361" type="line"/>
      <point x="817" y="353" type="line"/>
      <point x="795" y="212" type="line"/>
      <point x="587" y="205" type="line"/>
      <point x="586" y="193" type="line"/>
      <point x="581" y="164"/>
      <point x="595" y="161"/>
      <point x="616" y="161" type="curve" smooth="yes"/>
      <point x="828" y="161" type="line"/>
      <point x="804" y="15" type="line"/>
      <point x="686" y="-11"/>
      <point x="495" y="-3"/>
      <point x="495" y="-3" type="curve"/>
      <point x="439" y="-4"/>
      <point x="365" y="20"/>
      <point x="379" y="111" type="curve" smooth="yes"/>
      <point x="380" y="118" type="line"/>
      <point x="285" y="118" type="line"/>
      <point x="221" y="0" type="line"/>
    </contour>
  </outline>
</glyph>
<glyph name="agrave.smcp" format="1">
  <advance width="620"/>
  <outline>
    <contour>
      <point x="270" y="773" type="line"/>
      <point x="415" y="773" type="line"/>
      <point x="469" y="630" type="line"/>
      <point x="360" y="630" type="line"/>
    </contour>
    <contour>
      <point x="322" y="231" type="line"/>
      <point x="390" y="231" type="line"/>
      <point x="375" y="344" type="line"/>
    </contour>
    <contour>
      <point x="20" y="0" type="line"/>
      <point x="283" y="570" type="line"/>
      <point x="527" y="570" type="line"/>
      <point x="601" y="0" type="line"/>
      <point x="415" y="0" type="line"/>
      <point x="403" y="87" type="line"/>
      <point x="259" y="87" type="line"/>
      <point x="221" y="0" type="line"/>
    </contour>
  </outline>
</glyph>
